<<<<<<< HEAD
version https://git-lfs.github.com/spec/v1
oid sha256:63da31086fb068d3e34066ba817af5a00f641eace4244c893331eafa6cfdc058
size 3857
=======
mtllib 01_blue_books_stack.mtl

o blue_books_stack_book_bottom
usemtl book_mid_blue
v -0.134794 -0.088066 0.000000
v -0.134794 -0.088066 0.020000
v -0.124850 0.101673 0.000000
v -0.124850 0.101673 0.020000
v 0.124850 -0.101673 0.000000
v 0.124850 -0.101673 0.020000
v 0.134794 0.088066 0.000000
v 0.134794 0.088066 0.020000
vn -0.998630 0.052336 0.000000
vn -0.052336 -0.998630 0.000000
vn -0.998630 0.052336 0.000000
vn 0.000000 0.000000 -1.000000
vn 0.000000 0.000000 1.000000
vn -0.052336 -0.998630 0.000000
vn 0.000000 0.000000 1.000000
vn 0.052336 0.998630 0.000000
vn 0.000000 0.000000 -1.000000
vn 0.052336 0.998630 0.000000
vn 0.998630 -0.052336 0.000000
vn 0.998630 -0.052336 0.000000
f 2//1 4//1 1//1
f 5//2 2//2 1//2
f 1//3 4//3 3//3
f 3//4 5//4 1//4
f 2//5 8//5 4//5
f 6//6 2//6 5//6
f 6//7 8//7 2//7
f 4//8 8//8 3//8
f 7//9 5//9 3//9
f 3//10 8//10 7//10
f 7//11 6//11 5//11
f 8//12 6//12 7//12

o blue_books_stack_pages_bottom
usemtl paper_shadow
v -0.126912 -0.080969 0.008000
v -0.126912 -0.080969 0.018000
v -0.117753 0.093791 0.008000
v -0.117753 0.093791 0.018000
v 0.117753 -0.093791 0.008000
v 0.117753 -0.093791 0.018000
v 0.126912 0.080969 0.008000
v 0.126912 0.080969 0.018000
vn -0.998630 0.052336 0.000000
vn -0.052336 -0.998630 0.000000
vn -0.998630 0.052336 0.000000
vn 0.000000 0.000000 -1.000000
vn 0.000000 0.000000 1.000000
vn -0.052336 -0.998630 0.000000
vn 0.000000 0.000000 1.000000
vn 0.052336 0.998630 0.000000
vn 0.000000 0.000000 -1.000000
vn 0.052336 0.998630 0.000000
vn 0.998630 -0.052336 0.000000
vn 0.998630 -0.052336 0.000000
f 10//13 12//13 9//13
f 13//14 10//14 9//14
f 9//15 12//15 11//15
f 11//16 13//16 9//16
f 10//17 16//17 12//17
f 14//18 10//18 13//18
f 14//19 16//19 10//19
f 12//20 16//20 11//20
f 15//21 13//21 11//21
f 11//22 16//22 15//22
f 15//23 14//23 13//23
f 16//24 14//24 15//24

o blue_books_stack_book_top
usemtl book_light_blue
v -0.111960 -0.084136 0.019000
v -0.111960 -0.084136 0.037000
v -0.117893 0.085760 0.019000
v -0.117893 0.085760 0.037000
v 0.127893 -0.075760 0.019000
v 0.127893 -0.075760 0.037000
v 0.121960 0.094136 0.019000
v 0.121960 0.094136 0.037000
vn -0.999391 -0.034899 0.000000
vn 0.034899 -0.999391 0.000000
vn -0.999391 -0.034899 0.000000
vn 0.000000 0.000000 -1.000000
vn 0.000000 0.000000 1.000000
vn 0.034899 -0.999391 0.000000
vn 0.000000 0.000000 1.000000
vn -0.034899 0.999391 0.000000
vn 0.000000 0.000000 -1.000000
vn -0.034899 0.999391 0.000000
vn 0.999391 0.034899 0.000000
vn 0.999391 0.034899 0.000000
f 18//25 20//25 17//25
f 21//26 18//26 17//26
f 17//27 20//27 19//27
f 19//28 21//28 17//28
f 18//29 24//29 20//29
f 22//30 18//30 21//30
f 22//31 24//31 18//31
f 20//32 24//32 19//32
f 23//33 21//33 19//33
f 19//34 24//34 23//34
f 23//35 22//35 21//35
f 24//36 22//36 23//36

o blue_books_stack_pages_top
usemtl paper_shadow
v -0.104727 -0.076379 0.026500
v -0.104727 -0.076379 0.035500
v -0.110136 0.078527 0.026500
v -0.110136 0.078527 0.035500
v 0.120136 -0.068527 0.026500
v 0.120136 -0.068527 0.035500
v 0.114727 0.086379 0.026500
v 0.114727 0.086379 0.035500
vn -0.999391 -0.034899 0.000000
vn 0.034899 -0.999391 0.000000
vn -0.999391 -0.034899 0.000000
vn 0.000000 0.000000 -1.000000
vn 0.000000 0.000000 1.000000
vn 0.034899 -0.999391 0.000000
vn 0.000000 0.000000 1.000000
vn -0.034899 0.999391 0.000000
vn 0.000000 0.000000 -1.000000
vn -0.034899 0.999391 0.000000
vn 0.999391 0.034899 0.000000
vn 0.999391 0.034899 0.000000
f 26//37 28//37 25//37
f 29//38 26//38 25//38
f 25//39 28//39 27//39
f 27//40 29//40 25//40
f 26//41 32//41 28//41
f 30//42 26//42 29//42
f 30//43 32//43 26//43
f 28//44 32//44 27//44
f 31//45 29//45 27//45
f 27//46 32//46 31//46
f 31//47 30//47 29//47
f 32//48 30//48 31//48
>>>>>>> 5d2e6717b67104740609f428dbe619cddf777927
