<<<<<<< HEAD
version https://git-lfs.github.com/spec/v1
oid sha256:d9b3453c6d9000785aa8c91018e59c19fdcf7f2869e523056a41a3c1b2a6cd71
size 1909
=======
mtllib 02_small_blue_notebook.mtl

o small_blue_notebook_cover
usemtl book_dark_blue
v -0.049246 -0.051839 0.000000
v -0.049246 -0.051839 0.012000
v -0.064006 0.031870 0.000000
v -0.064006 0.031870 0.012000
v 0.064006 -0.031870 0.000000
v 0.064006 -0.031870 0.012000
v 0.049246 0.051839 0.000000
v 0.049246 0.051839 0.012000
vn -0.984808 -0.173648 0.000000
vn 0.173648 -0.984808 0.000000
vn -0.984808 -0.173648 0.000000
vn 0.000000 0.000000 -1.000000
vn 0.000000 0.000000 1.000000
vn 0.173648 -0.984808 0.000000
vn 0.000000 0.000000 1.000000
vn -0.173648 0.984808 0.000000
vn 0.000000 0.000000 -1.000000
vn -0.173648 0.984808 0.000000
vn 0.984808 0.173648 0.000000
vn 0.984808 0.173648 0.000000
f 2//1 4//1 1//1
f 5//2 2//2 1//2
f 1//3 4//3 3//3
f 3//4 5//4 1//4
f 2//5 8//5 4//5
f 6//6 2//6 5//6
f 6//7 8//7 2//7
f 4//8 8//8 3//8
f 7//9 5//9 3//9
f 3//10 8//10 7//10
f 7//11 6//11 5//11
f 8//12 6//12 7//12

o small_blue_notebook_pages
usemtl paper_white
v -0.043887 -0.044802 0.005000
v -0.043887 -0.044802 0.011000
v -0.056563 0.027089 0.005000
v -0.056563 0.027089 0.011000
v 0.056563 -0.027089 0.005000
v 0.056563 -0.027089 0.011000
v 0.043887 0.044802 0.005000
v 0.043887 0.044802 0.011000
vn -0.984808 -0.173648 0.000000
vn 0.173648 -0.984808 0.000000
vn -0.984808 -0.173648 0.000000
vn 0.000000 0.000000 -1.000000
vn 0.000000 0.000000 1.000000
vn 0.173648 -0.984808 0.000000
vn 0.000000 0.000000 1.000000
vn -0.173648 0.984808 0.000000
vn 0.000000 0.000000 -1.000000
vn -0.173648 0.984808 0.000000
vn 0.984808 0.173648 0.000000
vn 0.984808 0.173648 0.000000
f 10//13 12//13 9//13
f 13//14 10//14 9//14
f 9//15 12//15 11//15
f 11//16 13//16 9//16
f 10//17 16//17 12//17
f 14//18 10//18 13//18
f 14//19 16//19 10//19
f 12//20 16//20 11//20
f 15//21 13//21 11//21
f 11//22 16//22 15//22
f 15//23 14//23 13//23
f 16//24 14//24 15//24
>>>>>>> 5d2e6717b67104740609f428dbe619cddf777927
