<<<<<<< HEAD
version https://git-lfs.github.com/spec/v1
oid sha256:80dcd7b53b290243779bd7083eba65c3f2fd482a0f9fd7f64ea75b74fa68c143
size 4812
=======
mtllib 03_loose_paper_stack.mtl

o loose_paper_stack_sheet_0
usemtl paper_white
v -0.120000 -0.075000 0.000000
v -0.120000 -0.075000 0.002500
v -0.120000 0.075000 0.000000
v -0.120000 0.075000 0.002500
v 0.120000 -0.075000 0.000000
v 0.120000 -0.075000 0.002500
v 0.120000 0.075000 0.000000
v 0.120000 0.075000 0.002500
vn -1.000000 0.000000 0.000000
vn 0.000000 -1.000000 0.000000
vn -1.000000 0.000000 0.000000
vn 0.000000 0.000000 -1.000000
vn 0.000000 0.000000 1.000000
vn 0.000000 -1.000000 0.000000
vn 0.000000 0.000000 1.000000
vn 0.000000 1.000000 0.000000
vn 0.000000 0.000000 -1.000000
vn 0.000000 1.000000 0.000000
vn 1.000000 0.000000 0.000000
vn 1.000000 0.000000 0.000000
f 2//1 4//1 1//1
f 5//2 2//2 1//2
f 1//3 4//3 3//3
f 3//4 5//4 1//4
f 2//5 8//5 4//5
f 6//6 2//6 5//6
f 6//7 8//7 2//7
f 4//8 8//8 3//8
f 7//9 5//9 3//9
f 3//10 8//10 7//10
f 7//11 6//11 5//11
f 8//12 6//12 7//12

o loose_paper_stack_sheet_1
usemtl paper_white
v -0.103789 -0.090279 0.002750
v -0.103789 -0.090279 0.005250
v -0.121460 0.053640 0.002750
v -0.121460 0.053640 0.005250
v 0.129460 -0.061640 0.002750
v 0.129460 -0.061640 0.005250
v 0.111789 0.082279 0.002750
v 0.111789 0.082279 0.005250
vn -0.992546 -0.121869 0.000000
vn 0.121869 -0.992546 0.000000
vn -0.992546 -0.121869 0.000000
vn 0.000000 0.000000 -1.000000
vn 0.000000 0.000000 1.000000
vn 0.121869 -0.992546 0.000000
vn 0.000000 0.000000 1.000000
vn -0.121869 0.992546 0.000000
vn 0.000000 0.000000 -1.000000
vn -0.121869 0.992546 0.000000
vn 0.992546 0.121869 0.000000
vn 0.992546 0.121869 0.000000
f 10//13 12//13 9//13
f 13//14 10//14 9//14
f 9//15 12//15 11//15
f 11//16 13//16 9//16
f 10//17 16//17 12//17
f 14//18 10//18 13//18
f 14//19 16//19 10//19
f 12//20 16//20 11//20
f 15//21 13//21 11//21
f 11//22 16//22 15//22
f 15//23 14//23 13//23
f 16//24 14//24 15//24

o loose_paper_stack_sheet_2
usemtl paper_white
v -0.121675 -0.056875 0.005250
v -0.121675 -0.056875 0.007750
v -0.111770 0.084779 0.005250
v -0.111770 0.084779 0.007750
v 0.105770 -0.072779 0.005250
v 0.105770 -0.072779 0.007750
v 0.115675 0.068875 0.005250
v 0.115675 0.068875 0.007750
vn -0.997564 0.069756 0.000000
vn -0.069756 -0.997564 0.000000
vn -0.997564 0.069756 0.000000
vn 0.000000 0.000000 -1.000000
vn 0.000000 0.000000 1.000000
vn -0.069756 -0.997564 0.000000
vn 0.000000 0.000000 1.000000
vn 0.069756 0.997564 0.000000
vn 0.000000 0.000000 -1.000000
vn 0.069756 0.997564 0.000000
vn 0.997564 -0.069756 0.000000
vn 0.997564 -0.069756 0.000000
f 18//25 20//25 17//25
f 21//26 18//26 17//26
f 17//27 20//27 19//27
f 19//28 21//28 17//28
f 18//29 24//29 20//29
f 22//30 18//30 21//30
f 22//31 24//31 18//31
f 20//32 24//32 19//32
f 23//33 21//33 19//33
f 19//34 24//34 23//34
f 23//35 22//35 21//35
f 24//36 22//36 23//36

o loose_paper_stack_sheet_3
usemtl paper_white
v -0.089813 -0.080721 0.007750
v -0.089813 -0.080721 0.010250
v -0.116145 0.054743 0.007750
v -0.116145 0.054743 0.010250
v 0.126145 -0.038743 0.007750
v 0.126145 -0.038743 0.010250
v 0.099813 0.096721 0.007750
v 0.099813 0.096721 0.010250
vn -0.981627 -0.190809 0.000000
vn 0.190809 -0.981627 0.000000
vn -0.981627 -0.190809 0.000000
vn 0.000000 0.000000 -1.000000
vn 0.000000 0.000000 1.000000
vn 0.190809 -0.981627 0.000000
vn 0.000000 0.000000 1.000000
vn -0.190809 0.981627 0.000000
vn 0.000000 0.000000 -1.000000
vn -0.190809 0.981627 0.000000
vn 0.981627 0.190809 0.000000
vn 0.981627 0.190809 0.000000
f 26//37 28//37 25//37
f 29//38 26//38 25//38
f 25//39 28//39 27//39
f 27//40 29//40 25//40
f 26//41 32//41 28//41
f 30//42 26//42 29//42
f 30//43 32//43 26//43
f 28//44 32//44 27//44
f 31//45 29//45 27//45
f 27//46 32//46 31//46
f 31//47 30//47 29//47
f 32//48 30//48 31//48

o loose_paper_stack_base_shadow
usemtl paper_shadow
v -0.119721 -0.081728 0.000000
v -0.119721 -0.081728 0.004000
v -0.125130 0.073178 0.000000
v -0.125130 0.073178 0.004000
v 0.125130 -0.073178 0.000000
v 0.125130 -0.073178 0.004000
v 0.119721 0.081728 0.000000
v 0.119721 0.081728 0.004000
vn -0.999391 -0.034899 0.000000
vn 0.034899 -0.999391 0.000000
vn -0.999391 -0.034899 0.000000
vn 0.000000 0.000000 -1.000000
vn 0.000000 0.000000 1.000000
vn 0.034899 -0.999391 0.000000
vn 0.000000 0.000000 1.000000
vn -0.034899 0.999391 0.000000
vn 0.000000 0.000000 -1.000000
vn -0.034899 0.999391 0.000000
vn 0.999391 0.034899 0.000000
vn 0.999391 0.034899 0.000000
f 34//49 36//49 33//49
f 37//50 34//50 33//50
f 33//51 36//51 35//51
f 35//52 37//52 33//52
f 34//53 40//53 36//53
f 38//54 34//54 37//54
f 38//55 40//55 34//55
f 36//56 40//56 35//56
f 39//57 37//57 35//57
f 35//58 40//58 39//58
f 39//59 38//59 37//59
f 40//60 38//60 39//60
>>>>>>> 5d2e6717b67104740609f428dbe619cddf777927
