<<<<<<< HEAD
version https://git-lfs.github.com/spec/v1
oid sha256:91d85bc3d2c411079caaa68aca93e5d31d092eeee6e7a8cfa06e03c7bc26554e
size 4814
=======
mtllib 04_blue_cloth_bundle.mtl

o blue_cloth_bundle_piece_0
usemtl cloth_blue
v -0.108769 -0.055401 0.000000
v -0.108769 -0.055401 0.012000
v -0.089285 0.083236 0.000000
v -0.089285 0.083236 0.012000
v 0.089285 -0.083236 0.000000
v 0.089285 -0.083236 0.012000
v 0.108769 0.055401 0.000000
v 0.108769 0.055401 0.012000
vn -0.990268 0.139173 0.000000
vn -0.139173 -0.990268 0.000000
vn -0.990268 0.139173 0.000000
vn 0.000000 0.000000 -1.000000
vn 0.000000 0.000000 1.000000
vn -0.139173 -0.990268 0.000000
vn 0.000000 0.000000 1.000000
vn 0.139173 0.990268 0.000000
vn 0.000000 0.000000 -1.000000
vn 0.139173 0.990268 0.000000
vn 0.990268 -0.139173 0.000000
vn 0.990268 -0.139173 0.000000
f 2//1 4//1 1//1
f 5//2 2//2 1//2
f 1//3 4//3 3//3
f 3//4 5//4 1//4
f 2//5 8//5 4//5
f 6//6 2//6 5//6
f 6//7 8//7 2//7
f 4//8 8//8 3//8
f 7//9 5//9 3//9
f 3//10 8//10 7//10
f 7//11 6//11 5//11
f 8//12 6//12 7//12

o blue_cloth_bundle_piece_1
usemtl cloth_beige
v -0.085878 -0.060729 0.010000
v -0.085878 -0.060729 0.020000
v -0.116780 0.034377 0.010000
v -0.116780 0.034377 0.020000
v 0.056780 -0.014377 0.010000
v 0.056780 -0.014377 0.020000
v 0.025878 0.080729 0.010000
v 0.025878 0.080729 0.020000
vn -0.951057 -0.309017 0.000000
vn 0.309017 -0.951057 0.000000
vn -0.951057 -0.309017 0.000000
vn 0.000000 0.000000 -1.000000
vn 0.000000 0.000000 1.000000
vn 0.309017 -0.951057 0.000000
vn 0.000000 0.000000 1.000000
vn -0.309017 0.951057 0.000000
vn 0.000000 0.000000 -1.000000
vn -0.309017 0.951057 0.000000
vn 0.951057 0.309017 0.000000
vn 0.951057 0.309017 0.000000
f 10//13 12//13 9//13
f 13//14 10//14 9//14
f 9//15 12//15 11//15
f 11//16 13//16 9//16
f 10//17 16//17 12//17
f 14//18 10//18 13//18
f 14//19 16//19 10//19
f 12//20 16//20 11//20
f 15//21 13//21 11//21
f 11//22 16//22 15//22
f 15//23 14//23 13//23
f 16//24 14//24 15//24

o blue_cloth_bundle_piece_2
usemtl cloth_blue_light
v -0.031343 -0.028357 0.012000
v -0.031343 -0.028357 0.022000
v -0.001375 0.045818 0.012000
v -0.001375 0.045818 0.022000
v 0.061375 -0.065818 0.012000
v 0.061375 -0.065818 0.022000
v 0.091343 0.008357 0.012000
v 0.091343 0.008357 0.022000
vn -0.927184 0.374607 0.000000
vn -0.374607 -0.927184 0.000000
vn -0.927184 0.374607 0.000000
vn 0.000000 0.000000 -1.000000
vn 0.000000 0.000000 1.000000
vn -0.374607 -0.927184 0.000000
vn 0.000000 0.000000 1.000000
vn 0.374607 0.927184 0.000000
vn 0.000000 0.000000 -1.000000
vn 0.374607 0.927184 0.000000
vn 0.927184 -0.374607 0.000000
vn 0.927184 -0.374607 0.000000
f 18//25 20//25 17//25
f 21//26 18//26 17//26
f 17//27 20//27 19//27
f 19//28 21//28 17//28
f 18//29 24//29 20//29
f 22//30 18//30 21//30
f 22//31 24//31 18//31
f 20//32 24//32 19//32
f 23//33 21//33 19//33
f 19//34 24//34 23//34
f 23//35 22//35 21//35
f 24//36 22//36 23//36

o blue_cloth_bundle_piece_3
usemtl cloth_beige
v -0.061624 -0.065336 0.016000
v -0.061624 -0.065336 0.024000
v -0.082755 -0.020021 0.016000
v -0.082755 -0.020021 0.024000
v -0.007245 -0.039979 0.016000
v -0.007245 -0.039979 0.024000
v -0.028376 0.005336 0.016000
v -0.028376 0.005336 0.024000
vn -0.906308 -0.422618 0.000000
vn 0.422618 -0.906308 0.000000
vn -0.906308 -0.422618 0.000000
vn 0.000000 0.000000 -1.000000
vn 0.000000 0.000000 1.000000
vn 0.422618 -0.906308 0.000000
vn 0.000000 0.000000 1.000000
vn -0.422618 0.906308 0.000000
vn 0.000000 0.000000 -1.000000
vn -0.422618 0.906308 0.000000
vn 0.906308 0.422618 0.000000
vn 0.906308 0.422618 0.000000
f 26//37 28//37 25//37
f 29//38 26//38 25//38
f 25//39 28//39 27//39
f 27//40 29//40 25//40
f 26//41 32//41 28//41
f 30//42 26//42 29//42
f 30//43 32//43 26//43
f 28//44 32//44 27//44
f 31//45 29//45 27//45
f 27//46 32//46 31//46
f 31//47 30//47 29//47
f 32//48 30//48 31//48

o blue_cloth_bundle_piece_4
usemtl cloth_blue
v 0.021388 0.005635 0.019000
v 0.021388 0.005635 0.025000
v 0.029705 0.044761 0.019000
v 0.029705 0.044761 0.025000
v 0.070295 -0.004761 0.019000
v 0.070295 -0.004761 0.025000
v 0.078612 0.034365 0.019000
v 0.078612 0.034365 0.025000
vn -0.978148 0.207912 0.000000
vn -0.207912 -0.978148 0.000000
vn -0.978148 0.207912 0.000000
vn 0.000000 0.000000 -1.000000
vn 0.000000 0.000000 1.000000
vn -0.207912 -0.978148 0.000000
vn 0.000000 0.000000 1.000000
vn 0.207912 0.978148 0.000000
vn 0.000000 0.000000 -1.000000
vn 0.207912 0.978148 0.000000
vn 0.978148 -0.207912 0.000000
vn 0.978148 -0.207912 0.000000
f 34//49 36//49 33//49
f 37//50 34//50 33//50
f 33//51 36//51 35//51
f 35//52 37//52 33//52
f 34//53 40//53 36//53
f 38//54 34//54 37//54
f 38//55 40//55 34//55
f 36//56 40//56 35//56
f 39//57 37//57 35//57
f 35//58 40//58 39//58
f 39//59 38//59 37//59
f 40//60 38//60 39//60
>>>>>>> 5d2e6717b67104740609f428dbe619cddf777927
