<<<<<<< HEAD
version https://git-lfs.github.com/spec/v1
oid sha256:01dd2e52dec2f1c94430c0b4113b18524f52e8d1385004e7023002ee9e2398ef
size 30900
=======
mtllib 05_small_dropper_bottle.mtl

o small_dropper_bottle_body
usemtl bottle_white
v 0.000000 0.000000 0.000000
v 0.022000 0.000000 0.000000
v 0.022000 0.000000 0.085000
v 0.000000 0.000000 0.085000
v 0.021109 0.006198 0.000000
v 0.021109 0.006198 0.085000
v 0.018508 0.011894 0.000000
v 0.018508 0.011894 0.085000
v 0.014407 0.016626 0.000000
v 0.014407 0.016626 0.085000
v 0.009139 0.020012 0.000000
v 0.009139 0.020012 0.085000
v 0.003131 0.021776 0.000000
v 0.003131 0.021776 0.085000
v -0.003131 0.021776 0.000000
v -0.003131 0.021776 0.085000
v -0.009139 0.020012 0.000000
v -0.009139 0.020012 0.085000
v -0.014407 0.016626 0.000000
v -0.014407 0.016626 0.085000
v -0.018508 0.011894 0.000000
v -0.018508 0.011894 0.085000
v -0.021109 0.006198 0.000000
v -0.021109 0.006198 0.085000
v -0.022000 0.000000 0.000000
v -0.022000 0.000000 0.085000
v -0.021109 -0.006198 0.000000
v -0.021109 -0.006198 0.085000
v -0.018508 -0.011894 0.000000
v -0.018508 -0.011894 0.085000
v -0.014407 -0.016626 0.000000
v -0.014407 -0.016626 0.085000
v -0.009139 -0.020012 0.000000
v -0.009139 -0.020012 0.085000
v -0.003131 -0.021776 0.000000
v -0.003131 -0.021776 0.085000
v 0.003131 -0.021776 0.000000
v 0.003131 -0.021776 0.085000
v 0.009139 -0.020012 0.000000
v 0.009139 -0.020012 0.085000
v 0.014407 -0.016626 0.000000
v 0.014407 -0.016626 0.085000
v 0.018508 -0.011894 0.000000
v 0.018508 -0.011894 0.085000
v 0.021109 -0.006198 0.000000
v 0.021109 -0.006198 0.085000
vn 0.000000 0.000000 -1.000000
vn 0.989821 0.142315 0.000000
vn 0.989821 0.142315 -0.000000
vn 0.000000 0.000000 1.000000
vn -0.000000 0.000000 -1.000000
vn 0.909632 0.415415 0.000000
vn 0.909632 0.415415 -0.000000
vn 0.000000 0.000000 1.000000
vn -0.000000 0.000000 -1.000000
vn 0.755750 0.654861 0.000000
vn 0.755750 0.654861 -0.000000
vn 0.000000 0.000000 1.000000
vn -0.000000 0.000000 -1.000000
vn 0.540641 0.841254 0.000000
vn 0.540641 0.841254 -0.000000
vn 0.000000 0.000000 1.000000
vn -0.000000 0.000000 -1.000000
vn 0.281733 0.959493 0.000000
vn 0.281733 0.959493 -0.000000
vn 0.000000 0.000000 1.000000
vn -0.000000 0.000000 -1.000000
vn 0.000000 1.000000 -0.000000
vn 0.000000 1.000000 -0.000000
vn 0.000000 0.000000 1.000000
vn -0.000000 -0.000000 -1.000000
vn -0.281733 0.959493 0.000000
vn -0.281733 0.959493 0.000000
vn 0.000000 0.000000 1.000000
vn -0.000000 -0.000000 -1.000000
vn -0.540641 0.841254 0.000000
vn -0.540641 0.841254 0.000000
vn 0.000000 0.000000 1.000000
vn -0.000000 -0.000000 -1.000000
vn -0.755750 0.654861 0.000000
vn -0.755750 0.654861 0.000000
vn 0.000000 0.000000 1.000000
vn -0.000000 -0.000000 -1.000000
vn -0.909632 0.415415 0.000000
vn -0.909632 0.415415 0.000000
vn 0.000000 0.000000 1.000000
vn -0.000000 -0.000000 -1.000000
vn -0.989821 0.142315 0.000000
vn -0.989821 0.142315 0.000000
vn 0.000000 0.000000 1.000000
vn 0.000000 -0.000000 -1.000000
vn -0.989821 -0.142315 0.000000
vn -0.989821 -0.142315 0.000000
vn -0.000000 0.000000 1.000000
vn 0.000000 -0.000000 -1.000000
vn -0.909632 -0.415415 0.000000
vn -0.909632 -0.415415 0.000000
vn -0.000000 0.000000 1.000000
vn 0.000000 -0.000000 -1.000000
vn -0.755750 -0.654861 0.000000
vn -0.755750 -0.654861 0.000000
vn -0.000000 0.000000 1.000000
vn 0.000000 -0.000000 -1.000000
vn -0.540641 -0.841254 0.000000
vn -0.540641 -0.841254 0.000000
vn -0.000000 0.000000 1.000000
vn 0.000000 -0.000000 -1.000000
vn -0.281733 -0.959493 0.000000
vn -0.281733 -0.959493 0.000000
vn -0.000000 0.000000 1.000000
vn 0.000000 0.000000 -1.000000
vn 0.000000 -1.000000 0.000000
vn 0.000000 -1.000000 0.000000
vn 0.000000 -0.000000 1.000000
vn 0.000000 0.000000 -1.000000
vn 0.281733 -0.959493 0.000000
vn 0.281733 -0.959493 0.000000
vn 0.000000 -0.000000 1.000000
vn 0.000000 0.000000 -1.000000
vn 0.540641 -0.841254 0.000000
vn 0.540641 -0.841254 0.000000
vn 0.000000 -0.000000 1.000000
vn 0.000000 0.000000 -1.000000
vn 0.755750 -0.654861 0.000000
vn 0.755750 -0.654861 0.000000
vn 0.000000 -0.000000 1.000000
vn 0.000000 0.000000 -1.000000
vn 0.909632 -0.415415 0.000000
vn 0.909632 -0.415415 0.000000
vn 0.000000 -0.000000 1.000000
vn 0.000000 0.000000 -1.000000
vn 0.989821 -0.142315 0.000000
vn 0.989821 -0.142315 0.000000
vn 0.000000 -0.000000 1.000000
f 2//1 1//1 5//1
f 2//2 5//2 3//2
f 3//3 5//3 6//3
f 3//4 6//4 4//4
f 5//5 1//5 7//5
f 5//6 7//6 6//6
f 6//7 7//7 8//7
f 6//8 8//8 4//8
f 7//9 1//9 9//9
f 7//10 9//10 8//10
f 8//11 9//11 10//11
f 8//12 10//12 4//12
f 9//13 1//13 11//13
f 9//14 11//14 10//14
f 10//15 11//15 12//15
f 10//16 12//16 4//16
f 11//17 1//17 13//17
f 11//18 13//18 12//18
f 12//19 13//19 14//19
f 12//20 14//20 4//20
f 13//21 1//21 15//21
f 13//22 15//22 14//22
f 14//23 15//23 16//23
f 14//24 16//24 4//24
f 15//25 1//25 17//25
f 15//26 17//26 16//26
f 16//27 17//27 18//27
f 16//28 18//28 4//28
f 17//29 1//29 19//29
f 17//30 19//30 18//30
f 18//31 19//31 20//31
f 18//32 20//32 4//32
f 19//33 1//33 21//33
f 19//34 21//34 20//34
f 20//35 21//35 22//35
f 20//36 22//36 4//36
f 21//37 1//37 23//37
f 21//38 23//38 22//38
f 22//39 23//39 24//39
f 22//40 24//40 4//40
f 23//41 1//41 25//41
f 23//42 25//42 24//42
f 24//43 25//43 26//43
f 24//44 26//44 4//44
f 25//45 1//45 27//45
f 25//46 27//46 26//46
f 26//47 27//47 28//47
f 26//48 28//48 4//48
f 27//49 1//49 29//49
f 27//50 29//50 28//50
f 28//51 29//51 30//51
f 28//52 30//52 4//52
f 29//53 1//53 31//53
f 29//54 31//54 30//54
f 30//55 31//55 32//55
f 30//56 32//56 4//56
f 31//57 1//57 33//57
f 31//58 33//58 32//58
f 32//59 33//59 34//59
f 32//60 34//60 4//60
f 33//61 1//61 35//61
f 33//62 35//62 34//62
f 34//63 35//63 36//63
f 34//64 36//64 4//64
f 35//65 1//65 37//65
f 35//66 37//66 36//66
f 36//67 37//67 38//67
f 36//68 38//68 4//68
f 37//69 1//69 39//69
f 37//70 39//70 38//70
f 38//71 39//71 40//71
f 38//72 40//72 4//72
f 39//73 1//73 41//73
f 39//74 41//74 40//74
f 40//75 41//75 42//75
f 40//76 42//76 4//76
f 41//77 1//77 43//77
f 41//78 43//78 42//78
f 42//79 43//79 44//79
f 42//80 44//80 4//80
f 43//81 1//81 45//81
f 43//82 45//82 44//82
f 44//83 45//83 46//83
f 44//84 46//84 4//84
f 45//85 1//85 2//85
f 45//86 2//86 46//86
f 46//87 2//87 3//87
f 46//88 3//88 4//88

o small_dropper_bottle_shoulder
usemtl bottle_white
v 0.000000 0.000000 0.084000
v 0.018000 0.000000 0.084000
v 0.018000 0.000000 0.102000
v 0.000000 0.000000 0.102000
v 0.017119 0.005562 0.084000
v 0.017119 0.005562 0.102000
v 0.014562 0.010580 0.084000
v 0.014562 0.010580 0.102000
v 0.010580 0.014562 0.084000
v 0.010580 0.014562 0.102000
v 0.005562 0.017119 0.084000
v 0.005562 0.017119 0.102000
v 0.000000 0.018000 0.084000
v 0.000000 0.018000 0.102000
v -0.005562 0.017119 0.084000
v -0.005562 0.017119 0.102000
v -0.010580 0.014562 0.084000
v -0.010580 0.014562 0.102000
v -0.014562 0.010580 0.084000
v -0.014562 0.010580 0.102000
v -0.017119 0.005562 0.084000
v -0.017119 0.005562 0.102000
v -0.018000 0.000000 0.084000
v -0.018000 0.000000 0.102000
v -0.017119 -0.005562 0.084000
v -0.017119 -0.005562 0.102000
v -0.014562 -0.010580 0.084000
v -0.014562 -0.010580 0.102000
v -0.010580 -0.014562 0.084000
v -0.010580 -0.014562 0.102000
v -0.005562 -0.017119 0.084000
v -0.005562 -0.017119 0.102000
v -0.000000 -0.018000 0.084000
v -0.000000 -0.018000 0.102000
v 0.005562 -0.017119 0.084000
v 0.005562 -0.017119 0.102000
v 0.010580 -0.014562 0.084000
v 0.010580 -0.014562 0.102000
v 0.014562 -0.010580 0.084000
v 0.014562 -0.010580 0.102000
v 0.017119 -0.005562 0.084000
v 0.017119 -0.005562 0.102000
vn 0.000000 0.000000 -1.000000
vn 0.987688 0.156434 0.000000
vn 0.987688 0.156434 -0.000000
vn 0.000000 0.000000 1.000000
vn -0.000000 0.000000 -1.000000
vn 0.891007 0.453990 0.000000
vn 0.891007 0.453990 -0.000000
vn 0.000000 0.000000 1.000000
vn -0.000000 0.000000 -1.000000
vn 0.707107 0.707107 0.000000
vn 0.707107 0.707107 -0.000000
vn 0.000000 0.000000 1.000000
vn -0.000000 0.000000 -1.000000
vn 0.453990 0.891007 0.000000
vn 0.453990 0.891007 -0.000000
vn 0.000000 0.000000 1.000000
vn -0.000000 0.000000 -1.000000
vn 0.156434 0.987688 0.000000
vn 0.156434 0.987688 -0.000000
vn 0.000000 0.000000 1.000000
vn -0.000000 0.000000 -1.000000
vn -0.156434 0.987688 0.000000
vn -0.156434 0.987688 0.000000
vn 0.000000 0.000000 1.000000
vn -0.000000 -0.000000 -1.000000
vn -0.453990 0.891007 0.000000
vn -0.453990 0.891007 0.000000
vn 0.000000 0.000000 1.000000
vn -0.000000 -0.000000 -1.000000
vn -0.707107 0.707107 0.000000
vn -0.707107 0.707107 0.000000
vn 0.000000 0.000000 1.000000
vn -0.000000 -0.000000 -1.000000
vn -0.891007 0.453990 0.000000
vn -0.891007 0.453990 0.000000
vn 0.000000 0.000000 1.000000
vn -0.000000 -0.000000 -1.000000
vn -0.987688 0.156434 0.000000
vn -0.987688 0.156434 0.000000
vn 0.000000 0.000000 1.000000
vn 0.000000 -0.000000 -1.000000
vn -0.987688 -0.156434 0.000000
vn -0.987688 -0.156434 0.000000
vn -0.000000 0.000000 1.000000
vn 0.000000 -0.000000 -1.000000
vn -0.891007 -0.453990 0.000000
vn -0.891007 -0.453990 0.000000
vn -0.000000 0.000000 1.000000
vn 0.000000 -0.000000 -1.000000
vn -0.707107 -0.707107 0.000000
vn -0.707107 -0.707107 0.000000
vn -0.000000 0.000000 1.000000
vn 0.000000 -0.000000 -1.000000
vn -0.453990 -0.891007 0.000000
vn -0.453990 -0.891007 0.000000
vn -0.000000 0.000000 1.000000
vn 0.000000 -0.000000 -1.000000
vn -0.156434 -0.987688 0.000000
vn -0.156434 -0.987688 0.000000
vn -0.000000 0.000000 1.000000
vn 0.000000 0.000000 -1.000000
vn 0.156434 -0.987688 0.000000
vn 0.156434 -0.987688 0.000000
vn 0.000000 -0.000000 1.000000
vn 0.000000 0.000000 -1.000000
vn 0.453990 -0.891007 0.000000
vn 0.453990 -0.891007 0.000000
vn 0.000000 -0.000000 1.000000
vn 0.000000 0.000000 -1.000000
vn 0.707107 -0.707107 0.000000
vn 0.707107 -0.707107 0.000000
vn 0.000000 -0.000000 1.000000
vn 0.000000 0.000000 -1.000000
vn 0.891007 -0.453990 0.000000
vn 0.891007 -0.453990 0.000000
vn 0.000000 -0.000000 1.000000
vn 0.000000 0.000000 -1.000000
vn 0.987688 -0.156434 0.000000
vn 0.987688 -0.156434 0.000000
vn 0.000000 -0.000000 1.000000
f 48//89 47//89 51//89
f 48//90 51//90 49//90
f 49//91 51//91 52//91
f 49//92 52//92 50//92
f 51//93 47//93 53//93
f 51//94 53//94 52//94
f 52//95 53//95 54//95
f 52//96 54//96 50//96
f 53//97 47//97 55//97
f 53//98 55//98 54//98
f 54//99 55//99 56//99
f 54//100 56//100 50//100
f 55//101 47//101 57//101
f 55//102 57//102 56//102
f 56//103 57//103 58//103
f 56//104 58//104 50//104
f 57//105 47//105 59//105
f 57//106 59//106 58//106
f 58//107 59//107 60//107
f 58//108 60//108 50//108
f 59//109 47//109 61//109
f 59//110 61//110 60//110
f 60//111 61//111 62//111
f 60//112 62//112 50//112
f 61//113 47//113 63//113
f 61//114 63//114 62//114
f 62//115 63//115 64//115
f 62//116 64//116 50//116
f 63//117 47//117 65//117
f 63//118 65//118 64//118
f 64//119 65//119 66//119
f 64//120 66//120 50//120
f 65//121 47//121 67//121
f 65//122 67//122 66//122
f 66//123 67//123 68//123
f 66//124 68//124 50//124
f 67//125 47//125 69//125
f 67//126 69//126 68//126
f 68//127 69//127 70//127
f 68//128 70//128 50//128
f 69//129 47//129 71//129
f 69//130 71//130 70//130
f 70//131 71//131 72//131
f 70//132 72//132 50//132
f 71//133 47//133 73//133
f 71//134 73//134 72//134
f 72//135 73//135 74//135
f 72//136 74//136 50//136
f 73//137 47//137 75//137
f 73//138 75//138 74//138
f 74//139 75//139 76//139
f 74//140 76//140 50//140
f 75//141 47//141 77//141
f 75//142 77//142 76//142
f 76//143 77//143 78//143
f 76//144 78//144 50//144
f 77//145 47//145 79//145
f 77//146 79//146 78//146
f 78//147 79//147 80//147
f 78//148 80//148 50//148
f 79//149 47//149 81//149
f 79//150 81//150 80//150
f 80//151 81//151 82//151
f 80//152 82//152 50//152
f 81//153 47//153 83//153
f 81//154 83//154 82//154
f 82//155 83//155 84//155
f 82//156 84//156 50//156
f 83//157 47//157 85//157
f 83//158 85//158 84//158
f 84//159 85//159 86//159
f 84//160 86//160 50//160
f 85//161 47//161 87//161
f 85//162 87//162 86//162
f 86//163 87//163 88//163
f 86//164 88//164 50//164
f 87//165 47//165 48//165
f 87//166 48//166 88//166
f 88//167 48//167 49//167
f 88//168 49//168 50//168

o small_dropper_bottle_neck
usemtl bottle_white
v 0.000000 0.000000 0.102000
v 0.010000 0.000000 0.102000
v 0.010000 0.000000 0.118000
v 0.000000 0.000000 0.118000
v 0.009397 0.003420 0.102000
v 0.009397 0.003420 0.118000
v 0.007660 0.006428 0.102000
v 0.007660 0.006428 0.118000
v 0.005000 0.008660 0.102000
v 0.005000 0.008660 0.118000
v 0.001736 0.009848 0.102000
v 0.001736 0.009848 0.118000
v -0.001736 0.009848 0.102000
v -0.001736 0.009848 0.118000
v -0.005000 0.008660 0.102000
v -0.005000 0.008660 0.118000
v -0.007660 0.006428 0.102000
v -0.007660 0.006428 0.118000
v -0.009397 0.003420 0.102000
v -0.009397 0.003420 0.118000
v -0.010000 0.000000 0.102000
v -0.010000 0.000000 0.118000
v -0.009397 -0.003420 0.102000
v -0.009397 -0.003420 0.118000
v -0.007660 -0.006428 0.102000
v -0.007660 -0.006428 0.118000
v -0.005000 -0.008660 0.102000
v -0.005000 -0.008660 0.118000
v -0.001736 -0.009848 0.102000
v -0.001736 -0.009848 0.118000
v 0.001736 -0.009848 0.102000
v 0.001736 -0.009848 0.118000
v 0.005000 -0.008660 0.102000
v 0.005000 -0.008660 0.118000
v 0.007660 -0.006428 0.102000
v 0.007660 -0.006428 0.118000
v 0.009397 -0.003420 0.102000
v 0.009397 -0.003420 0.118000
vn 0.000000 0.000000 -1.000000
vn 0.984808 0.173648 0.000000
vn 0.984808 0.173648 -0.000000
vn 0.000000 0.000000 1.000000
vn -0.000000 0.000000 -1.000000
vn 0.866025 0.500000 0.000000
vn 0.866025 0.500000 -0.000000
vn 0.000000 0.000000 1.000000
vn -0.000000 0.000000 -1.000000
vn 0.642788 0.766044 0.000000
vn 0.642788 0.766044 -0.000000
vn 0.000000 0.000000 1.000000
vn -0.000000 0.000000 -1.000000
vn 0.342020 0.939693 0.000000
vn 0.342020 0.939693 -0.000000
vn 0.000000 0.000000 1.000000
vn -0.000000 0.000000 -1.000000
vn 0.000000 1.000000 -0.000000
vn 0.000000 1.000000 -0.000000
vn 0.000000 0.000000 1.000000
vn -0.000000 -0.000000 -1.000000
vn -0.342020 0.939693 0.000000
vn -0.342020 0.939693 0.000000
vn 0.000000 0.000000 1.000000
vn -0.000000 -0.000000 -1.000000
vn -0.642788 0.766044 0.000000
vn -0.642788 0.766044 0.000000
vn 0.000000 0.000000 1.000000
vn -0.000000 -0.000000 -1.000000
vn -0.866025 0.500000 0.000000
vn -0.866025 0.500000 0.000000
vn 0.000000 0.000000 1.000000
vn -0.000000 -0.000000 -1.000000
vn -0.984808 0.173648 0.000000
vn -0.984808 0.173648 0.000000
vn 0.000000 0.000000 1.000000
vn 0.000000 -0.000000 -1.000000
vn -0.984808 -0.173648 0.000000
vn -0.984808 -0.173648 0.000000
vn -0.000000 0.000000 1.000000
vn 0.000000 -0.000000 -1.000000
vn -0.866025 -0.500000 0.000000
vn -0.866025 -0.500000 0.000000
vn -0.000000 0.000000 1.000000
vn 0.000000 -0.000000 -1.000000
vn -0.642788 -0.766044 0.000000
vn -0.642788 -0.766044 0.000000
vn -0.000000 0.000000 1.000000
vn 0.000000 -0.000000 -1.000000
vn -0.342020 -0.939693 0.000000
vn -0.342020 -0.939693 0.000000
vn -0.000000 0.000000 1.000000
vn 0.000000 0.000000 -1.000000
vn -0.000000 -1.000000 0.000000
vn -0.000000 -1.000000 0.000000
vn -0.000000 -0.000000 1.000000
vn 0.000000 0.000000 -1.000000
vn 0.342020 -0.939693 0.000000
vn 0.342020 -0.939693 0.000000
vn 0.000000 -0.000000 1.000000
vn 0.000000 0.000000 -1.000000
vn 0.642788 -0.766044 0.000000
vn 0.642788 -0.766044 0.000000
vn 0.000000 -0.000000 1.000000
vn 0.000000 0.000000 -1.000000
vn 0.866025 -0.500000 0.000000
vn 0.866025 -0.500000 0.000000
vn 0.000000 -0.000000 1.000000
vn 0.000000 0.000000 -1.000000
vn 0.984808 -0.173648 0.000000
vn 0.984808 -0.173648 0.000000
vn 0.000000 -0.000000 1.000000
f 90//169 89//169 93//169
f 90//170 93//170 91//170
f 91//171 93//171 94//171
f 91//172 94//172 92//172
f 93//173 89//173 95//173
f 93//174 95//174 94//174
f 94//175 95//175 96//175
f 94//176 96//176 92//176
f 95//177 89//177 97//177
f 95//178 97//178 96//178
f 96//179 97//179 98//179
f 96//180 98//180 92//180
f 97//181 89//181 99//181
f 97//182 99//182 98//182
f 98//183 99//183 100//183
f 98//184 100//184 92//184
f 99//185 89//185 101//185
f 99//186 101//186 100//186
f 100//187 101//187 102//187
f 100//188 102//188 92//188
f 101//189 89//189 103//189
f 101//190 103//190 102//190
f 102//191 103//191 104//191
f 102//192 104//192 92//192
f 103//193 89//193 105//193
f 103//194 105//194 104//194
f 104//195 105//195 106//195
f 104//196 106//196 92//196
f 105//197 89//197 107//197
f 105//198 107//198 106//198
f 106//199 107//199 108//199
f 106//200 108//200 92//200
f 107//201 89//201 109//201
f 107//202 109//202 108//202
f 108//203 109//203 110//203
f 108//204 110//204 92//204
f 109//205 89//205 111//205
f 109//206 111//206 110//206
f 110//207 111//207 112//207
f 110//208 112//208 92//208
f 111//209 89//209 113//209
f 111//210 113//210 112//210
f 112//211 113//211 114//211
f 112//212 114//212 92//212
f 113//213 89//213 115//213
f 113//214 115//214 114//214
f 114//215 115//215 116//215
f 114//216 116//216 92//216
f 115//217 89//217 117//217
f 115//218 117//218 116//218
f 116//219 117//219 118//219
f 116//220 118//220 92//220
f 117//221 89//221 119//221
f 117//222 119//222 118//222
f 118//223 119//223 120//223
f 118//224 120//224 92//224
f 119//225 89//225 121//225
f 119//226 121//226 120//226
f 120//227 121//227 122//227
f 120//228 122//228 92//228
f 121//229 89//229 123//229
f 121//230 123//230 122//230
f 122//231 123//231 124//231
f 122//232 124//232 92//232
f 123//233 89//233 125//233
f 123//234 125//234 124//234
f 124//235 125//235 126//235
f 124//236 126//236 92//236
f 125//237 89//237 90//237
f 125//238 90//238 126//238
f 126//239 90//239 91//239
f 126//240 91//240 92//240

o small_dropper_bottle_cap
usemtl cap_blue
v 0.000000 0.000000 0.118000
v 0.013000 0.000000 0.118000
v 0.013000 0.000000 0.146000
v 0.000000 0.000000 0.146000
v 0.012216 0.004446 0.118000
v 0.012216 0.004446 0.146000
v 0.009959 0.008356 0.118000
v 0.009959 0.008356 0.146000
v 0.006500 0.011258 0.118000
v 0.006500 0.011258 0.146000
v 0.002257 0.012803 0.118000
v 0.002257 0.012803 0.146000
v -0.002257 0.012803 0.118000
v -0.002257 0.012803 0.146000
v -0.006500 0.011258 0.118000
v -0.006500 0.011258 0.146000
v -0.009959 0.008356 0.118000
v -0.009959 0.008356 0.146000
v -0.012216 0.004446 0.118000
v -0.012216 0.004446 0.146000
v -0.013000 0.000000 0.118000
v -0.013000 0.000000 0.146000
v -0.012216 -0.004446 0.118000
v -0.012216 -0.004446 0.146000
v -0.009959 -0.008356 0.118000
v -0.009959 -0.008356 0.146000
v -0.006500 -0.011258 0.118000
v -0.006500 -0.011258 0.146000
v -0.002257 -0.012803 0.118000
v -0.002257 -0.012803 0.146000
v 0.002257 -0.012803 0.118000
v 0.002257 -0.012803 0.146000
v 0.006500 -0.011258 0.118000
v 0.006500 -0.011258 0.146000
v 0.009959 -0.008356 0.118000
v 0.009959 -0.008356 0.146000
v 0.012216 -0.004446 0.118000
v 0.012216 -0.004446 0.146000
vn 0.000000 0.000000 -1.000000
vn 0.984808 0.173648 0.000000
vn 0.984808 0.173648 -0.000000
vn 0.000000 0.000000 1.000000
vn -0.000000 0.000000 -1.000000
vn 0.866025 0.500000 0.000000
vn 0.866025 0.500000 -0.000000
vn 0.000000 0.000000 1.000000
vn -0.000000 0.000000 -1.000000
vn 0.642788 0.766044 0.000000
vn 0.642788 0.766044 -0.000000
vn 0.000000 0.000000 1.000000
vn -0.000000 0.000000 -1.000000
vn 0.342020 0.939693 0.000000
vn 0.342020 0.939693 -0.000000
vn 0.000000 0.000000 1.000000
vn -0.000000 0.000000 -1.000000
vn 0.000000 1.000000 -0.000000
vn 0.000000 1.000000 -0.000000
vn 0.000000 0.000000 1.000000
vn -0.000000 -0.000000 -1.000000
vn -0.342020 0.939693 0.000000
vn -0.342020 0.939693 0.000000
vn 0.000000 0.000000 1.000000
vn -0.000000 -0.000000 -1.000000
vn -0.642788 0.766044 0.000000
vn -0.642788 0.766044 0.000000
vn 0.000000 0.000000 1.000000
vn -0.000000 -0.000000 -1.000000
vn -0.866025 0.500000 0.000000
vn -0.866025 0.500000 0.000000
vn 0.000000 0.000000 1.000000
vn -0.000000 -0.000000 -1.000000
vn -0.984808 0.173648 0.000000
vn -0.984808 0.173648 0.000000
vn 0.000000 0.000000 1.000000
vn 0.000000 -0.000000 -1.000000
vn -0.984808 -0.173648 0.000000
vn -0.984808 -0.173648 0.000000
vn -0.000000 0.000000 1.000000
vn 0.000000 -0.000000 -1.000000
vn -0.866025 -0.500000 0.000000
vn -0.866025 -0.500000 0.000000
vn -0.000000 0.000000 1.000000
vn 0.000000 -0.000000 -1.000000
vn -0.642788 -0.766044 0.000000
vn -0.642788 -0.766044 0.000000
vn -0.000000 0.000000 1.000000
vn 0.000000 -0.000000 -1.000000
vn -0.342020 -0.939693 0.000000
vn -0.342020 -0.939693 0.000000
vn -0.000000 0.000000 1.000000
vn 0.000000 0.000000 -1.000000
vn -0.000000 -1.000000 0.000000
vn -0.000000 -1.000000 0.000000
vn -0.000000 -0.000000 1.000000
vn 0.000000 0.000000 -1.000000
vn 0.342020 -0.939693 0.000000
vn 0.342020 -0.939693 0.000000
vn 0.000000 -0.000000 1.000000
vn 0.000000 0.000000 -1.000000
vn 0.642788 -0.766044 0.000000
vn 0.642788 -0.766044 0.000000
vn 0.000000 -0.000000 1.000000
vn 0.000000 0.000000 -1.000000
vn 0.866025 -0.500000 0.000000
vn 0.866025 -0.500000 0.000000
vn 0.000000 -0.000000 1.000000
vn 0.000000 0.000000 -1.000000
vn 0.984808 -0.173648 0.000000
vn 0.984808 -0.173648 0.000000
vn 0.000000 -0.000000 1.000000
f 128//241 127//241 131//241
f 128//242 131//242 129//242
f 129//243 131//243 132//243
f 129//244 132//244 130//244
f 131//245 127//245 133//245
f 131//246 133//246 132//246
f 132//247 133//247 134//247
f 132//248 134//248 130//248
f 133//249 127//249 135//249
f 133//250 135//250 134//250
f 134//251 135//251 136//251
f 134//252 136//252 130//252
f 135//253 127//253 137//253
f 135//254 137//254 136//254
f 136//255 137//255 138//255
f 136//256 138//256 130//256
f 137//257 127//257 139//257
f 137//258 139//258 138//258
f 138//259 139//259 140//259
f 138//260 140//260 130//260
f 139//261 127//261 141//261
f 139//262 141//262 140//262
f 140//263 141//263 142//263
f 140//264 142//264 130//264
f 141//265 127//265 143//265
f 141//266 143//266 142//266
f 142//267 143//267 144//267
f 142//268 144//268 130//268
f 143//269 127//269 145//269
f 143//270 145//270 144//270
f 144//271 145//271 146//271
f 144//272 146//272 130//272
f 145//273 127//273 147//273
f 145//274 147//274 146//274
f 146//275 147//275 148//275
f 146//276 148//276 130//276
f 147//277 127//277 149//277
f 147//278 149//278 148//278
f 148//279 149//279 150//279
f 148//280 150//280 130//280
f 149//281 127//281 151//281
f 149//282 151//282 150//282
f 150//283 151//283 152//283
f 150//284 152//284 130//284
f 151//285 127//285 153//285
f 151//286 153//286 152//286
f 152//287 153//287 154//287
f 152//288 154//288 130//288
f 153//289 127//289 155//289
f 153//290 155//290 154//290
f 154//291 155//291 156//291
f 154//292 156//292 130//292
f 155//293 127//293 157//293
f 155//294 157//294 156//294
f 156//295 157//295 158//295
f 156//296 158//296 130//296
f 157//297 127//297 159//297
f 157//298 159//298 158//298
f 158//299 159//299 160//299
f 158//300 160//300 130//300
f 159//301 127//301 161//301
f 159//302 161//302 160//302
f 160//303 161//303 162//303
f 160//304 162//304 130//304
f 161//305 127//305 163//305
f 161//306 163//306 162//306
f 162//307 163//307 164//307
f 162//308 164//308 130//308
f 163//309 127//309 128//309
f 163//310 128//310 164//310
f 164//311 128//311 129//311
f 164//312 129//312 130//312

o small_dropper_bottle_nozzle_base
usemtl nozzle_white
v 0.000000 0.000000 0.146000
v 0.008000 0.000000 0.146000
v 0.008000 0.000000 0.158000
v 0.000000 0.000000 0.158000
v 0.007391 0.003061 0.146000
v 0.007391 0.003061 0.158000
v 0.005657 0.005657 0.146000
v 0.005657 0.005657 0.158000
v 0.003061 0.007391 0.146000
v 0.003061 0.007391 0.158000
v 0.000000 0.008000 0.146000
v 0.000000 0.008000 0.158000
v -0.003061 0.007391 0.146000
v -0.003061 0.007391 0.158000
v -0.005657 0.005657 0.146000
v -0.005657 0.005657 0.158000
v -0.007391 0.003061 0.146000
v -0.007391 0.003061 0.158000
v -0.008000 0.000000 0.146000
v -0.008000 0.000000 0.158000
v -0.007391 -0.003061 0.146000
v -0.007391 -0.003061 0.158000
v -0.005657 -0.005657 0.146000
v -0.005657 -0.005657 0.158000
v -0.003061 -0.007391 0.146000
v -0.003061 -0.007391 0.158000
v -0.000000 -0.008000 0.146000
v -0.000000 -0.008000 0.158000
v 0.003061 -0.007391 0.146000
v 0.003061 -0.007391 0.158000
v 0.005657 -0.005657 0.146000
v 0.005657 -0.005657 0.158000
v 0.007391 -0.003061 0.146000
v 0.007391 -0.003061 0.158000
vn 0.000000 0.000000 -1.000000
vn 0.980785 0.195090 0.000000
vn 0.980785 0.195090 -0.000000
vn 0.000000 0.000000 1.000000
vn -0.000000 0.000000 -1.000000
vn 0.831470 0.555570 0.000000
vn 0.831470 0.555570 -0.000000
vn 0.000000 0.000000 1.000000
vn -0.000000 0.000000 -1.000000
vn 0.555570 0.831470 0.000000
vn 0.555570 0.831470 -0.000000
vn 0.000000 0.000000 1.000000
vn -0.000000 0.000000 -1.000000
vn 0.195090 0.980785 0.000000
vn 0.195090 0.980785 -0.000000
vn 0.000000 0.000000 1.000000
vn -0.000000 0.000000 -1.000000
vn -0.195090 0.980785 0.000000
vn -0.195090 0.980785 0.000000
vn 0.000000 0.000000 1.000000
vn -0.000000 -0.000000 -1.000000
vn -0.555570 0.831470 0.000000
vn -0.555570 0.831470 0.000000
vn 0.000000 0.000000 1.000000
vn -0.000000 -0.000000 -1.000000
vn -0.831470 0.555570 0.000000
vn -0.831470 0.555570 0.000000
vn 0.000000 0.000000 1.000000
vn -0.000000 -0.000000 -1.000000
vn -0.980785 0.195090 0.000000
vn -0.980785 0.195090 0.000000
vn 0.000000 0.000000 1.000000
vn 0.000000 -0.000000 -1.000000
vn -0.980785 -0.195090 0.000000
vn -0.980785 -0.195090 0.000000
vn -0.000000 0.000000 1.000000
vn 0.000000 -0.000000 -1.000000
vn -0.831470 -0.555570 0.000000
vn -0.831470 -0.555570 0.000000
vn -0.000000 0.000000 1.000000
vn 0.000000 -0.000000 -1.000000
vn -0.555570 -0.831470 0.000000
vn -0.555570 -0.831470 0.000000
vn -0.000000 0.000000 1.000000
vn 0.000000 -0.000000 -1.000000
vn -0.195090 -0.980785 0.000000
vn -0.195090 -0.980785 0.000000
vn -0.000000 0.000000 1.000000
vn 0.000000 0.000000 -1.000000
vn 0.195090 -0.980785 0.000000
vn 0.195090 -0.980785 0.000000
vn 0.000000 -0.000000 1.000000
vn 0.000000 0.000000 -1.000000
vn 0.555570 -0.831470 0.000000
vn 0.555570 -0.831470 0.000000
vn 0.000000 -0.000000 1.000000
vn 0.000000 0.000000 -1.000000
vn 0.831470 -0.555570 0.000000
vn 0.831470 -0.555570 0.000000
vn 0.000000 -0.000000 1.000000
vn 0.000000 0.000000 -1.000000
vn 0.980785 -0.195090 0.000000
vn 0.980785 -0.195090 0.000000
vn 0.000000 -0.000000 1.000000
f 166//313 165//313 169//313
f 166//314 169//314 167//314
f 167//315 169//315 170//315
f 167//316 170//316 168//316
f 169//317 165//317 171//317
f 169//318 171//318 170//318
f 170//319 171//319 172//319
f 170//320 172//320 168//320
f 171//321 165//321 173//321
f 171//322 173//322 172//322
f 172//323 173//323 174//323
f 172//324 174//324 168//324
f 173//325 165//325 175//325
f 173//326 175//326 174//326
f 174//327 175//327 176//327
f 174//328 176//328 168//328
f 175//329 165//329 177//329
f 175//330 177//330 176//330
f 176//331 177//331 178//331
f 176//332 178//332 168//332
f 177//333 165//333 179//333
f 177//334 179//334 178//334
f 178//335 179//335 180//335
f 178//336 180//336 168//336
f 179//337 165//337 181//337
f 179//338 181//338 180//338
f 180//339 181//339 182//339
f 180//340 182//340 168//340
f 181//341 165//341 183//341
f 181//342 183//342 182//342
f 182//343 183//343 184//343
f 182//344 184//344 168//344
f 183//345 165//345 185//345
f 183//346 185//346 184//346
f 184//347 185//347 186//347
f 184//348 186//348 168//348
f 185//349 165//349 187//349
f 185//350 187//350 186//350
f 186//351 187//351 188//351
f 186//352 188//352 168//352
f 187//353 165//353 189//353
f 187//354 189//354 188//354
f 188//355 189//355 190//355
f 188//356 190//356 168//356
f 189//357 165//357 191//357
f 189//358 191//358 190//358
f 190//359 191//359 192//359
f 190//360 192//360 168//360
f 191//361 165//361 193//361
f 191//362 193//362 192//362
f 192//363 193//363 194//363
f 192//364 194//364 168//364
f 193//365 165//365 195//365
f 193//366 195//366 194//366
f 194//367 195//367 196//367
f 194//368 196//368 168//368
f 195//369 165//369 197//369
f 195//370 197//370 196//370
f 196//371 197//371 198//371
f 196//372 198//372 168//372
f 197//373 165//373 166//373
f 197//374 166//374 198//374
f 198//375 166//375 167//375
f 198//376 167//376 168//376

o small_dropper_bottle_nozzle_tip
usemtl nozzle_white
v -0.005000 -0.005000 0.157000
v -0.005000 -0.005000 0.187000
v -0.005000 0.005000 0.157000
v -0.005000 0.005000 0.187000
v 0.005000 -0.005000 0.157000
v 0.005000 -0.005000 0.187000
v 0.005000 0.005000 0.157000
v 0.005000 0.005000 0.187000
vn -1.000000 0.000000 0.000000
vn 0.000000 -1.000000 0.000000
vn -1.000000 0.000000 0.000000
vn 0.000000 0.000000 -1.000000
vn 0.000000 0.000000 1.000000
vn 0.000000 -1.000000 0.000000
vn 0.000000 0.000000 1.000000
vn 0.000000 1.000000 0.000000
vn 0.000000 0.000000 -1.000000
vn 0.000000 1.000000 0.000000
vn 1.000000 0.000000 0.000000
vn 1.000000 0.000000 0.000000
f 200//377 202//377 199//377
f 203//378 200//378 199//378
f 199//379 202//379 201//379
f 201//380 203//380 199//380
f 200//381 206//381 202//381
f 204//382 200//382 203//382
f 204//383 206//383 200//383
f 202//384 206//384 201//384
f 205//385 203//385 201//385
f 201//386 206//386 205//386
f 205//387 204//387 203//387
f 206//388 204//388 205//388

o small_dropper_bottle_label_front
usemtl label_blue
v -0.015000 -0.021000 0.030000
v -0.015000 -0.021000 0.070000
v -0.015000 -0.017000 0.030000
v -0.015000 -0.017000 0.070000
v 0.015000 -0.021000 0.030000
v 0.015000 -0.021000 0.070000
v 0.015000 -0.017000 0.030000
v 0.015000 -0.017000 0.070000
vn -1.000000 0.000000 0.000000
vn 0.000000 -1.000000 0.000000
vn -1.000000 0.000000 0.000000
vn 0.000000 0.000000 -1.000000
vn 0.000000 0.000000 1.000000
vn 0.000000 -1.000000 0.000000
vn 0.000000 0.000000 1.000000
vn 0.000000 1.000000 0.000000
vn 0.000000 0.000000 -1.000000
vn 0.000000 1.000000 0.000000
vn 1.000000 0.000000 0.000000
vn 1.000000 0.000000 0.000000
f 208//389 210//389 207//389
f 211//390 208//390 207//390
f 207//391 210//391 209//391
f 209//392 211//392 207//392
f 208//393 214//393 210//393
f 212//394 208//394 211//394
f 212//395 214//395 208//395
f 210//396 214//396 209//396
f 213//397 211//397 209//397
f 209//398 214//398 213//398
f 213//399 212//399 211//399
f 214//400 212//400 213//400
>>>>>>> 5d2e6717b67104740609f428dbe619cddf777927
