# Glass cabinet for Unity
# Units: meters, Y-up
mtllib glass_cabinet_wood.mtl

v -0.525000 0.000000 -0.210000
v -0.475000 0.000000 -0.210000
v -0.475000 1.750000 -0.210000
v -0.525000 1.750000 -0.210000
v -0.525000 0.000000 0.210000
v -0.475000 0.000000 0.210000
v -0.475000 1.750000 0.210000
v -0.525000 1.750000 0.210000
v 0.475000 0.000000 -0.210000
v 0.525000 0.000000 -0.210000
v 0.525000 1.750000 -0.210000
v 0.475000 1.750000 -0.210000
v 0.475000 0.000000 0.210000
v 0.525000 0.000000 0.210000
v 0.525000 1.750000 0.210000
v 0.475000 1.750000 0.210000
v -0.525000 1.700000 -0.210000
v 0.525000 1.700000 -0.210000
v 0.525000 1.750000 -0.210000
v -0.525000 1.750000 -0.210000
v -0.525000 1.700000 0.210000
v 0.525000 1.700000 0.210000
v 0.525000 1.750000 0.210000
v -0.525000 1.750000 0.210000
v -0.525000 0.000000 -0.210000
v 0.525000 0.000000 -0.210000
v 0.525000 0.080000 -0.210000
v -0.525000 0.080000 -0.210000
v -0.525000 0.000000 0.210000
v 0.525000 0.000000 0.210000
v 0.525000 0.080000 0.210000
v -0.525000 0.080000 0.210000
v -0.475000 0.050000 -0.210000
v 0.475000 0.050000 -0.210000
v 0.475000 1.700000 -0.210000
v -0.475000 1.700000 -0.210000
v -0.475000 0.050000 -0.190000
v 0.475000 0.050000 -0.190000
v 0.475000 1.700000 -0.190000
v -0.475000 1.700000 -0.190000
v -0.010000 0.080000 -0.159600
v 0.010000 0.080000 -0.159600
v 0.010000 1.700000 -0.159600
v -0.010000 1.700000 -0.159600
v -0.010000 0.080000 0.201600
v 0.010000 0.080000 0.201600
v 0.010000 1.700000 0.201600
v -0.010000 1.700000 0.201600
v -0.475000 0.610000 -0.159600
v 0.475000 0.610000 -0.159600
v 0.475000 0.630000 -0.159600
v -0.475000 0.630000 -0.159600
v -0.475000 0.610000 0.201600
v 0.475000 0.610000 0.201600
v 0.475000 0.630000 0.201600
v -0.475000 0.630000 0.201600
v -0.475000 1.150000 -0.159600
v 0.475000 1.150000 -0.159600
v 0.475000 1.170000 -0.159600
v -0.475000 1.170000 -0.159600
v -0.475000 1.150000 0.201600
v 0.475000 1.150000 0.201600
v 0.475000 1.170000 0.201600
v -0.475000 1.170000 0.201600
v -0.463000 1.644667 0.182000
v -0.022000 1.644667 0.182000
v -0.022000 1.694667 0.182000
v -0.463000 1.694667 0.182000
v -0.463000 1.644667 0.210000
v -0.022000 1.644667 0.210000
v -0.022000 1.694667 0.210000
v -0.463000 1.694667 0.210000
v -0.463000 1.178667 0.182000
v -0.022000 1.178667 0.182000
v -0.022000 1.228667 0.182000
v -0.463000 1.228667 0.182000
v -0.463000 1.178667 0.210000
v -0.022000 1.178667 0.210000
v -0.022000 1.228667 0.210000
v -0.463000 1.228667 0.210000
v -0.463000 1.228667 0.182000
v -0.413000 1.228667 0.182000
v -0.413000 1.644667 0.182000
v -0.463000 1.644667 0.182000
v -0.463000 1.228667 0.210000
v -0.413000 1.228667 0.210000
v -0.413000 1.644667 0.210000
v -0.463000 1.644667 0.210000
v -0.072000 1.228667 0.182000
v -0.022000 1.228667 0.182000
v -0.022000 1.644667 0.182000
v -0.072000 1.644667 0.182000
v -0.072000 1.228667 0.210000
v -0.022000 1.228667 0.210000
v -0.022000 1.644667 0.210000
v -0.072000 1.644667 0.210000
v -0.403000 1.238667 0.184000
v -0.082000 1.238667 0.184000
v -0.082000 1.634667 0.184000
v -0.403000 1.634667 0.184000
v -0.403000 1.238667 0.196000
v -0.082000 1.238667 0.196000
v -0.082000 1.634667 0.196000
v -0.403000 1.634667 0.196000
v -0.099560 1.495667 0.185000
v -0.085560 1.495667 0.185000
v -0.085560 1.509667 0.185000
v -0.099560 1.509667 0.185000
v -0.099560 1.495667 0.220000
v -0.085560 1.495667 0.220000
v -0.085560 1.509667 0.220000
v -0.099560 1.509667 0.220000
v -0.099560 1.363667 0.185000
v -0.085560 1.363667 0.185000
v -0.085560 1.377667 0.185000
v -0.099560 1.377667 0.185000
v -0.099560 1.363667 0.220000
v -0.085560 1.363667 0.220000
v -0.085560 1.377667 0.220000
v -0.099560 1.377667 0.220000
v -0.099560 1.370667 0.190000
v -0.085560 1.370667 0.190000
v -0.085560 1.502667 0.190000
v -0.099560 1.502667 0.190000
v -0.099560 1.370667 0.204000
v -0.085560 1.370667 0.204000
v -0.085560 1.502667 0.204000
v -0.099560 1.502667 0.204000
v 0.022000 1.644667 0.182000
v 0.463000 1.644667 0.182000
v 0.463000 1.694667 0.182000
v 0.022000 1.694667 0.182000
v 0.022000 1.644667 0.210000
v 0.463000 1.644667 0.210000
v 0.463000 1.694667 0.210000
v 0.022000 1.694667 0.210000
v 0.022000 1.178667 0.182000
v 0.463000 1.178667 0.182000
v 0.463000 1.228667 0.182000
v 0.022000 1.228667 0.182000
v 0.022000 1.178667 0.210000
v 0.463000 1.178667 0.210000
v 0.463000 1.228667 0.210000
v 0.022000 1.228667 0.210000
v 0.022000 1.228667 0.182000
v 0.072000 1.228667 0.182000
v 0.072000 1.644667 0.182000
v 0.022000 1.644667 0.182000
v 0.022000 1.228667 0.210000
v 0.072000 1.228667 0.210000
v 0.072000 1.644667 0.210000
v 0.022000 1.644667 0.210000
v 0.413000 1.228667 0.182000
v 0.463000 1.228667 0.182000
v 0.463000 1.644667 0.182000
v 0.413000 1.644667 0.182000
v 0.413000 1.228667 0.210000
v 0.463000 1.228667 0.210000
v 0.463000 1.644667 0.210000
v 0.413000 1.644667 0.210000
v 0.082000 1.238667 0.184000
v 0.403000 1.238667 0.184000
v 0.403000 1.634667 0.184000
v 0.082000 1.634667 0.184000
v 0.082000 1.238667 0.196000
v 0.403000 1.238667 0.196000
v 0.403000 1.634667 0.196000
v 0.082000 1.634667 0.196000
v 0.085560 1.495667 0.185000
v 0.099560 1.495667 0.185000
v 0.099560 1.509667 0.185000
v 0.085560 1.509667 0.185000
v 0.085560 1.495667 0.220000
v 0.099560 1.495667 0.220000
v 0.099560 1.509667 0.220000
v 0.085560 1.509667 0.220000
v 0.085560 1.363667 0.185000
v 0.099560 1.363667 0.185000
v 0.099560 1.377667 0.185000
v 0.085560 1.377667 0.185000
v 0.085560 1.363667 0.220000
v 0.099560 1.363667 0.220000
v 0.099560 1.377667 0.220000
v 0.085560 1.377667 0.220000
v 0.085560 1.370667 0.190000
v 0.099560 1.370667 0.190000
v 0.099560 1.502667 0.190000
v 0.085560 1.502667 0.190000
v 0.085560 1.370667 0.204000
v 0.099560 1.370667 0.204000
v 0.099560 1.502667 0.204000
v 0.085560 1.502667 0.204000
v -0.463000 1.098000 0.182000
v -0.022000 1.098000 0.182000
v -0.022000 1.148000 0.182000
v -0.463000 1.148000 0.182000
v -0.463000 1.098000 0.210000
v -0.022000 1.098000 0.210000
v -0.022000 1.148000 0.210000
v -0.463000 1.148000 0.210000
v -0.463000 0.632000 0.182000
v -0.022000 0.632000 0.182000
v -0.022000 0.682000 0.182000
v -0.463000 0.682000 0.182000
v -0.463000 0.632000 0.210000
v -0.022000 0.632000 0.210000
v -0.022000 0.682000 0.210000
v -0.463000 0.682000 0.210000
v -0.463000 0.682000 0.182000
v -0.413000 0.682000 0.182000
v -0.413000 1.098000 0.182000
v -0.463000 1.098000 0.182000
v -0.463000 0.682000 0.210000
v -0.413000 0.682000 0.210000
v -0.413000 1.098000 0.210000
v -0.463000 1.098000 0.210000
v -0.072000 0.682000 0.182000
v -0.022000 0.682000 0.182000
v -0.022000 1.098000 0.182000
v -0.072000 1.098000 0.182000
v -0.072000 0.682000 0.210000
v -0.022000 0.682000 0.210000
v -0.022000 1.098000 0.210000
v -0.072000 1.098000 0.210000
v -0.403000 0.692000 0.184000
v -0.082000 0.692000 0.184000
v -0.082000 1.088000 0.184000
v -0.403000 1.088000 0.184000
v -0.403000 0.692000 0.196000
v -0.082000 0.692000 0.196000
v -0.082000 1.088000 0.196000
v -0.403000 1.088000 0.196000
v -0.099560 0.949000 0.185000
v -0.085560 0.949000 0.185000
v -0.085560 0.963000 0.185000
v -0.099560 0.963000 0.185000
v -0.099560 0.949000 0.220000
v -0.085560 0.949000 0.220000
v -0.085560 0.963000 0.220000
v -0.099560 0.963000 0.220000
v -0.099560 0.817000 0.185000
v -0.085560 0.817000 0.185000
v -0.085560 0.831000 0.185000
v -0.099560 0.831000 0.185000
v -0.099560 0.817000 0.220000
v -0.085560 0.817000 0.220000
v -0.085560 0.831000 0.220000
v -0.099560 0.831000 0.220000
v -0.099560 0.824000 0.190000
v -0.085560 0.824000 0.190000
v -0.085560 0.956000 0.190000
v -0.099560 0.956000 0.190000
v -0.099560 0.824000 0.204000
v -0.085560 0.824000 0.204000
v -0.085560 0.956000 0.204000
v -0.099560 0.956000 0.204000
v 0.022000 1.098000 0.182000
v 0.463000 1.098000 0.182000
v 0.463000 1.148000 0.182000
v 0.022000 1.148000 0.182000
v 0.022000 1.098000 0.210000
v 0.463000 1.098000 0.210000
v 0.463000 1.148000 0.210000
v 0.022000 1.148000 0.210000
v 0.022000 0.632000 0.182000
v 0.463000 0.632000 0.182000
v 0.463000 0.682000 0.182000
v 0.022000 0.682000 0.182000
v 0.022000 0.632000 0.210000
v 0.463000 0.632000 0.210000
v 0.463000 0.682000 0.210000
v 0.022000 0.682000 0.210000
v 0.022000 0.682000 0.182000
v 0.072000 0.682000 0.182000
v 0.072000 1.098000 0.182000
v 0.022000 1.098000 0.182000
v 0.022000 0.682000 0.210000
v 0.072000 0.682000 0.210000
v 0.072000 1.098000 0.210000
v 0.022000 1.098000 0.210000
v 0.413000 0.682000 0.182000
v 0.463000 0.682000 0.182000
v 0.463000 1.098000 0.182000
v 0.413000 1.098000 0.182000
v 0.413000 0.682000 0.210000
v 0.463000 0.682000 0.210000
v 0.463000 1.098000 0.210000
v 0.413000 1.098000 0.210000
v 0.082000 0.692000 0.184000
v 0.403000 0.692000 0.184000
v 0.403000 1.088000 0.184000
v 0.082000 1.088000 0.184000
v 0.082000 0.692000 0.196000
v 0.403000 0.692000 0.196000
v 0.403000 1.088000 0.196000
v 0.082000 1.088000 0.196000
v 0.085560 0.949000 0.185000
v 0.099560 0.949000 0.185000
v 0.099560 0.963000 0.185000
v 0.085560 0.963000 0.185000
v 0.085560 0.949000 0.220000
v 0.099560 0.949000 0.220000
v 0.099560 0.963000 0.220000
v 0.085560 0.963000 0.220000
v 0.085560 0.817000 0.185000
v 0.099560 0.817000 0.185000
v 0.099560 0.831000 0.185000
v 0.085560 0.831000 0.185000
v 0.085560 0.817000 0.220000
v 0.099560 0.817000 0.220000
v 0.099560 0.831000 0.220000
v 0.085560 0.831000 0.220000
v 0.085560 0.824000 0.190000
v 0.099560 0.824000 0.190000
v 0.099560 0.956000 0.190000
v 0.085560 0.956000 0.190000
v 0.085560 0.824000 0.204000
v 0.099560 0.824000 0.204000
v 0.099560 0.956000 0.204000
v 0.085560 0.956000 0.204000
v -0.463000 0.551333 0.182000
v -0.022000 0.551333 0.182000
v -0.022000 0.601333 0.182000
v -0.463000 0.601333 0.182000
v -0.463000 0.551333 0.210000
v -0.022000 0.551333 0.210000
v -0.022000 0.601333 0.210000
v -0.463000 0.601333 0.210000
v -0.463000 0.085333 0.182000
v -0.022000 0.085333 0.182000
v -0.022000 0.135333 0.182000
v -0.463000 0.135333 0.182000
v -0.463000 0.085333 0.210000
v -0.022000 0.085333 0.210000
v -0.022000 0.135333 0.210000
v -0.463000 0.135333 0.210000
v -0.463000 0.135333 0.182000
v -0.413000 0.135333 0.182000
v -0.413000 0.551333 0.182000
v -0.463000 0.551333 0.182000
v -0.463000 0.135333 0.210000
v -0.413000 0.135333 0.210000
v -0.413000 0.551333 0.210000
v -0.463000 0.551333 0.210000
v -0.072000 0.135333 0.182000
v -0.022000 0.135333 0.182000
v -0.022000 0.551333 0.182000
v -0.072000 0.551333 0.182000
v -0.072000 0.135333 0.210000
v -0.022000 0.135333 0.210000
v -0.022000 0.551333 0.210000
v -0.072000 0.551333 0.210000
v -0.403000 0.145333 0.184000
v -0.082000 0.145333 0.184000
v -0.082000 0.541333 0.184000
v -0.403000 0.541333 0.184000
v -0.403000 0.145333 0.196000
v -0.082000 0.145333 0.196000
v -0.082000 0.541333 0.196000
v -0.403000 0.541333 0.196000
v -0.099560 0.402333 0.185000
v -0.085560 0.402333 0.185000
v -0.085560 0.416333 0.185000
v -0.099560 0.416333 0.185000
v -0.099560 0.402333 0.220000
v -0.085560 0.402333 0.220000
v -0.085560 0.416333 0.220000
v -0.099560 0.416333 0.220000
v -0.099560 0.270333 0.185000
v -0.085560 0.270333 0.185000
v -0.085560 0.284333 0.185000
v -0.099560 0.284333 0.185000
v -0.099560 0.270333 0.220000
v -0.085560 0.270333 0.220000
v -0.085560 0.284333 0.220000
v -0.099560 0.284333 0.220000
v -0.099560 0.277333 0.190000
v -0.085560 0.277333 0.190000
v -0.085560 0.409333 0.190000
v -0.099560 0.409333 0.190000
v -0.099560 0.277333 0.204000
v -0.085560 0.277333 0.204000
v -0.085560 0.409333 0.204000
v -0.099560 0.409333 0.204000
v 0.022000 0.551333 0.182000
v 0.463000 0.551333 0.182000
v 0.463000 0.601333 0.182000
v 0.022000 0.601333 0.182000
v 0.022000 0.551333 0.210000
v 0.463000 0.551333 0.210000
v 0.463000 0.601333 0.210000
v 0.022000 0.601333 0.210000
v 0.022000 0.085333 0.182000
v 0.463000 0.085333 0.182000
v 0.463000 0.135333 0.182000
v 0.022000 0.135333 0.182000
v 0.022000 0.085333 0.210000
v 0.463000 0.085333 0.210000
v 0.463000 0.135333 0.210000
v 0.022000 0.135333 0.210000
v 0.022000 0.135333 0.182000
v 0.072000 0.135333 0.182000
v 0.072000 0.551333 0.182000
v 0.022000 0.551333 0.182000
v 0.022000 0.135333 0.210000
v 0.072000 0.135333 0.210000
v 0.072000 0.551333 0.210000
v 0.022000 0.551333 0.210000
v 0.413000 0.135333 0.182000
v 0.463000 0.135333 0.182000
v 0.463000 0.551333 0.182000
v 0.413000 0.551333 0.182000
v 0.413000 0.135333 0.210000
v 0.463000 0.135333 0.210000
v 0.463000 0.551333 0.210000
v 0.413000 0.551333 0.210000
v 0.082000 0.145333 0.184000
v 0.403000 0.145333 0.184000
v 0.403000 0.541333 0.184000
v 0.082000 0.541333 0.184000
v 0.082000 0.145333 0.196000
v 0.403000 0.145333 0.196000
v 0.403000 0.541333 0.196000
v 0.082000 0.541333 0.196000
v 0.085560 0.402333 0.185000
v 0.099560 0.402333 0.185000
v 0.099560 0.416333 0.185000
v 0.085560 0.416333 0.185000
v 0.085560 0.402333 0.220000
v 0.099560 0.402333 0.220000
v 0.099560 0.416333 0.220000
v 0.085560 0.416333 0.220000
v 0.085560 0.270333 0.185000
v 0.099560 0.270333 0.185000
v 0.099560 0.284333 0.185000
v 0.085560 0.284333 0.185000
v 0.085560 0.270333 0.220000
v 0.099560 0.270333 0.220000
v 0.099560 0.284333 0.220000
v 0.085560 0.284333 0.220000
v 0.085560 0.277333 0.190000
v 0.099560 0.277333 0.190000
v 0.099560 0.409333 0.190000
v 0.085560 0.409333 0.190000
v 0.085560 0.277333 0.204000
v 0.099560 0.277333 0.204000
v 0.099560 0.409333 0.204000
v 0.085560 0.409333 0.204000
v -0.525000 0.021000 0.180000
v 0.525000 0.021000 0.180000
v 0.525000 0.051000 0.180000
v -0.525000 0.051000 0.180000
v -0.525000 0.021000 0.210000
v 0.525000 0.021000 0.210000
v 0.525000 0.051000 0.210000
v -0.525000 0.051000 0.210000

vn 0.000000 0.000000 -1.000000
vn 0.000000 0.000000 -1.000000
vn 0.000000 0.000000 1.000000
vn 0.000000 0.000000 1.000000
vn 0.000000 -1.000000 0.000000
vn 0.000000 -1.000000 0.000000
vn 0.000000 1.000000 0.000000
vn 0.000000 1.000000 0.000000
vn -1.000000 0.000000 0.000000
vn -1.000000 0.000000 0.000000
vn 1.000000 0.000000 0.000000
vn 1.000000 0.000000 0.000000
vn 0.000000 0.000000 -1.000000
vn 0.000000 0.000000 -1.000000
vn 0.000000 0.000000 1.000000
vn 0.000000 0.000000 1.000000
vn 0.000000 -1.000000 0.000000
vn 0.000000 -1.000000 0.000000
vn 0.000000 1.000000 0.000000
vn 0.000000 1.000000 0.000000
vn -1.000000 0.000000 0.000000
vn -1.000000 0.000000 0.000000
vn 1.000000 0.000000 0.000000
vn 1.000000 0.000000 0.000000
vn 0.000000 0.000000 -1.000000
vn 0.000000 0.000000 -1.000000
vn 0.000000 0.000000 1.000000
vn 0.000000 0.000000 1.000000
vn 0.000000 -1.000000 0.000000
vn 0.000000 -1.000000 0.000000
vn 0.000000 1.000000 0.000000
vn 0.000000 1.000000 0.000000
vn -1.000000 0.000000 0.000000
vn -1.000000 0.000000 0.000000
vn 1.000000 0.000000 0.000000
vn 1.000000 0.000000 0.000000
vn 0.000000 0.000000 -1.000000
vn 0.000000 0.000000 -1.000000
vn 0.000000 0.000000 1.000000
vn 0.000000 0.000000 1.000000
vn 0.000000 -1.000000 0.000000
vn 0.000000 -1.000000 0.000000
vn 0.000000 1.000000 0.000000
vn 0.000000 1.000000 0.000000
vn -1.000000 0.000000 0.000000
vn -1.000000 0.000000 0.000000
vn 1.000000 0.000000 0.000000
vn 1.000000 0.000000 0.000000
vn 0.000000 0.000000 -1.000000
vn 0.000000 0.000000 -1.000000
vn 0.000000 0.000000 1.000000
vn 0.000000 0.000000 1.000000
vn 0.000000 -1.000000 0.000000
vn 0.000000 -1.000000 0.000000
vn 0.000000 1.000000 0.000000
vn 0.000000 1.000000 0.000000
vn -1.000000 0.000000 0.000000
vn -1.000000 0.000000 0.000000
vn 1.000000 0.000000 0.000000
vn 1.000000 0.000000 0.000000
vn 0.000000 0.000000 -1.000000
vn 0.000000 0.000000 -1.000000
vn 0.000000 0.000000 1.000000
vn 0.000000 0.000000 1.000000
vn 0.000000 -1.000000 0.000000
vn 0.000000 -1.000000 0.000000
vn 0.000000 1.000000 0.000000
vn 0.000000 1.000000 0.000000
vn -1.000000 0.000000 0.000000
vn -1.000000 0.000000 0.000000
vn 1.000000 0.000000 0.000000
vn 1.000000 0.000000 0.000000
vn 0.000000 0.000000 -1.000000
vn 0.000000 0.000000 -1.000000
vn 0.000000 0.000000 1.000000
vn 0.000000 0.000000 1.000000
vn 0.000000 -1.000000 0.000000
vn 0.000000 -1.000000 0.000000
vn 0.000000 1.000000 0.000000
vn 0.000000 1.000000 0.000000
vn -1.000000 0.000000 0.000000
vn -1.000000 0.000000 0.000000
vn 1.000000 0.000000 0.000000
vn 1.000000 0.000000 0.000000
vn 0.000000 0.000000 -1.000000
vn 0.000000 0.000000 -1.000000
vn 0.000000 0.000000 1.000000
vn 0.000000 0.000000 1.000000
vn 0.000000 -1.000000 0.000000
vn 0.000000 -1.000000 0.000000
vn 0.000000 1.000000 0.000000
vn 0.000000 1.000000 0.000000
vn -1.000000 0.000000 0.000000
vn -1.000000 0.000000 0.000000
vn 1.000000 0.000000 0.000000
vn 1.000000 0.000000 0.000000
vn 0.000000 0.000000 -1.000000
vn 0.000000 0.000000 -1.000000
vn 0.000000 0.000000 1.000000
vn 0.000000 0.000000 1.000000
vn 0.000000 -1.000000 0.000000
vn 0.000000 -1.000000 0.000000
vn 0.000000 1.000000 0.000000
vn 0.000000 1.000000 0.000000
vn -1.000000 0.000000 0.000000
vn -1.000000 0.000000 0.000000
vn 1.000000 0.000000 0.000000
vn 1.000000 0.000000 0.000000
vn 0.000000 0.000000 -1.000000
vn 0.000000 0.000000 -1.000000
vn 0.000000 0.000000 1.000000
vn 0.000000 0.000000 1.000000
vn 0.000000 -1.000000 0.000000
vn 0.000000 -1.000000 0.000000
vn 0.000000 1.000000 0.000000
vn 0.000000 1.000000 0.000000
vn -1.000000 0.000000 0.000000
vn -1.000000 0.000000 0.000000
vn 1.000000 0.000000 0.000000
vn 1.000000 0.000000 0.000000
vn 0.000000 0.000000 -1.000000
vn 0.000000 0.000000 -1.000000
vn 0.000000 0.000000 1.000000
vn 0.000000 0.000000 1.000000
vn 0.000000 -1.000000 0.000000
vn 0.000000 -1.000000 0.000000
vn 0.000000 1.000000 0.000000
vn 0.000000 1.000000 0.000000
vn -1.000000 0.000000 0.000000
vn -1.000000 0.000000 0.000000
vn 1.000000 0.000000 0.000000
vn 1.000000 0.000000 0.000000
vn 0.000000 0.000000 -1.000000
vn 0.000000 0.000000 -1.000000
vn 0.000000 0.000000 1.000000
vn 0.000000 0.000000 1.000000
vn 0.000000 -1.000000 0.000000
vn 0.000000 -1.000000 0.000000
vn 0.000000 1.000000 0.000000
vn 0.000000 1.000000 0.000000
vn -1.000000 0.000000 0.000000
vn -1.000000 0.000000 0.000000
vn 1.000000 0.000000 0.000000
vn 1.000000 0.000000 0.000000
vn 0.000000 0.000000 -1.000000
vn 0.000000 0.000000 -1.000000
vn 0.000000 0.000000 1.000000
vn 0.000000 0.000000 1.000000
vn 0.000000 -1.000000 0.000000
vn 0.000000 -1.000000 0.000000
vn 0.000000 1.000000 0.000000
vn 0.000000 1.000000 0.000000
vn -1.000000 0.000000 0.000000
vn -1.000000 0.000000 0.000000
vn 1.000000 0.000000 0.000000
vn 1.000000 0.000000 0.000000
vn 0.000000 0.000000 -1.000000
vn 0.000000 0.000000 -1.000000
vn 0.000000 0.000000 1.000000
vn 0.000000 0.000000 1.000000
vn 0.000000 -1.000000 0.000000
vn 0.000000 -1.000000 0.000000
vn 0.000000 1.000000 0.000000
vn 0.000000 1.000000 0.000000
vn -1.000000 0.000000 0.000000
vn -1.000000 0.000000 0.000000
vn 1.000000 0.000000 0.000000
vn 1.000000 0.000000 0.000000
vn 0.000000 0.000000 -1.000000
vn 0.000000 0.000000 -1.000000
vn 0.000000 0.000000 1.000000
vn 0.000000 0.000000 1.000000
vn 0.000000 -1.000000 0.000000
vn 0.000000 -1.000000 0.000000
vn 0.000000 1.000000 0.000000
vn 0.000000 1.000000 0.000000
vn -1.000000 0.000000 0.000000
vn -1.000000 0.000000 0.000000
vn 1.000000 0.000000 0.000000
vn 1.000000 0.000000 0.000000
vn 0.000000 0.000000 -1.000000
vn 0.000000 0.000000 -1.000000
vn 0.000000 0.000000 1.000000
vn 0.000000 0.000000 1.000000
vn 0.000000 -1.000000 0.000000
vn 0.000000 -1.000000 0.000000
vn 0.000000 1.000000 0.000000
vn 0.000000 1.000000 0.000000
vn -1.000000 0.000000 0.000000
vn -1.000000 0.000000 0.000000
vn 1.000000 0.000000 0.000000
vn 1.000000 0.000000 0.000000
vn 0.000000 0.000000 -1.000000
vn 0.000000 0.000000 -1.000000
vn 0.000000 0.000000 1.000000
vn 0.000000 0.000000 1.000000
vn 0.000000 -1.000000 0.000000
vn 0.000000 -1.000000 0.000000
vn 0.000000 1.000000 0.000000
vn 0.000000 1.000000 0.000000
vn -1.000000 0.000000 0.000000
vn -1.000000 0.000000 0.000000
vn 1.000000 0.000000 0.000000
vn 1.000000 0.000000 0.000000
vn 0.000000 0.000000 -1.000000
vn 0.000000 0.000000 -1.000000
vn 0.000000 0.000000 1.000000
vn 0.000000 0.000000 1.000000
vn 0.000000 -1.000000 0.000000
vn 0.000000 -1.000000 0.000000
vn 0.000000 1.000000 0.000000
vn 0.000000 1.000000 0.000000
vn -1.000000 0.000000 0.000000
vn -1.000000 0.000000 0.000000
vn 1.000000 0.000000 0.000000
vn 1.000000 0.000000 0.000000
vn 0.000000 0.000000 -1.000000
vn 0.000000 0.000000 -1.000000
vn 0.000000 0.000000 1.000000
vn 0.000000 0.000000 1.000000
vn 0.000000 -1.000000 0.000000
vn 0.000000 -1.000000 0.000000
vn 0.000000 1.000000 0.000000
vn 0.000000 1.000000 0.000000
vn -1.000000 0.000000 0.000000
vn -1.000000 0.000000 0.000000
vn 1.000000 0.000000 0.000000
vn 1.000000 0.000000 0.000000
vn 0.000000 0.000000 -1.000000
vn 0.000000 0.000000 -1.000000
vn 0.000000 0.000000 1.000000
vn 0.000000 0.000000 1.000000
vn 0.000000 -1.000000 0.000000
vn 0.000000 -1.000000 0.000000
vn 0.000000 1.000000 0.000000
vn 0.000000 1.000000 0.000000
vn -1.000000 0.000000 0.000000
vn -1.000000 0.000000 0.000000
vn 1.000000 0.000000 0.000000
vn 1.000000 0.000000 0.000000
vn 0.000000 0.000000 -1.000000
vn 0.000000 0.000000 -1.000000
vn 0.000000 0.000000 1.000000
vn 0.000000 0.000000 1.000000
vn 0.000000 -1.000000 0.000000
vn 0.000000 -1.000000 0.000000
vn 0.000000 1.000000 0.000000
vn 0.000000 1.000000 0.000000
vn -1.000000 0.000000 0.000000
vn -1.000000 0.000000 0.000000
vn 1.000000 0.000000 0.000000
vn 1.000000 0.000000 0.000000
vn 0.000000 0.000000 -1.000000
vn 0.000000 0.000000 -1.000000
vn 0.000000 0.000000 1.000000
vn 0.000000 0.000000 1.000000
vn 0.000000 -1.000000 0.000000
vn 0.000000 -1.000000 0.000000
vn 0.000000 1.000000 0.000000
vn 0.000000 1.000000 0.000000
vn -1.000000 0.000000 0.000000
vn -1.000000 0.000000 0.000000
vn 1.000000 0.000000 0.000000
vn 1.000000 0.000000 0.000000
vn 0.000000 0.000000 -1.000000
vn 0.000000 0.000000 -1.000000
vn 0.000000 0.000000 1.000000
vn 0.000000 0.000000 1.000000
vn 0.000000 -1.000000 0.000000
vn 0.000000 -1.000000 0.000000
vn 0.000000 1.000000 0.000000
vn 0.000000 1.000000 0.000000
vn -1.000000 0.000000 0.000000
vn -1.000000 0.000000 0.000000
vn 1.000000 0.000000 0.000000
vn 1.000000 0.000000 0.000000
vn 0.000000 0.000000 -1.000000
vn 0.000000 0.000000 -1.000000
vn 0.000000 0.000000 1.000000
vn 0.000000 0.000000 1.000000
vn 0.000000 -1.000000 0.000000
vn 0.000000 -1.000000 0.000000
vn 0.000000 1.000000 0.000000
vn 0.000000 1.000000 0.000000
vn -1.000000 0.000000 0.000000
vn -1.000000 0.000000 0.000000
vn 1.000000 0.000000 0.000000
vn 1.000000 0.000000 0.000000
vn 0.000000 0.000000 -1.000000
vn 0.000000 0.000000 -1.000000
vn 0.000000 0.000000 1.000000
vn 0.000000 0.000000 1.000000
vn 0.000000 -1.000000 0.000000
vn 0.000000 -1.000000 0.000000
vn 0.000000 1.000000 0.000000
vn 0.000000 1.000000 0.000000
vn -1.000000 0.000000 0.000000
vn -1.000000 0.000000 0.000000
vn 1.000000 0.000000 0.000000
vn 1.000000 0.000000 0.000000
vn 0.000000 0.000000 -1.000000
vn 0.000000 0.000000 -1.000000
vn 0.000000 0.000000 1.000000
vn 0.000000 0.000000 1.000000
vn 0.000000 -1.000000 0.000000
vn 0.000000 -1.000000 0.000000
vn 0.000000 1.000000 0.000000
vn 0.000000 1.000000 0.000000
vn -1.000000 0.000000 0.000000
vn -1.000000 0.000000 0.000000
vn 1.000000 0.000000 0.000000
vn 1.000000 0.000000 0.000000
vn 0.000000 0.000000 -1.000000
vn 0.000000 0.000000 -1.000000
vn 0.000000 0.000000 1.000000
vn 0.000000 0.000000 1.000000
vn 0.000000 -1.000000 0.000000
vn 0.000000 -1.000000 0.000000
vn 0.000000 1.000000 0.000000
vn 0.000000 1.000000 0.000000
vn -1.000000 0.000000 0.000000
vn -1.000000 0.000000 0.000000
vn 1.000000 0.000000 0.000000
vn 1.000000 0.000000 0.000000
vn 0.000000 0.000000 -1.000000
vn 0.000000 0.000000 -1.000000
vn 0.000000 0.000000 1.000000
vn 0.000000 0.000000 1.000000
vn 0.000000 -1.000000 0.000000
vn 0.000000 -1.000000 0.000000
vn 0.000000 1.000000 0.000000
vn 0.000000 1.000000 0.000000
vn -1.000000 0.000000 0.000000
vn -1.000000 0.000000 0.000000
vn 1.000000 0.000000 0.000000
vn 1.000000 0.000000 0.000000
vn 0.000000 0.000000 -1.000000
vn 0.000000 0.000000 -1.000000
vn 0.000000 0.000000 1.000000
vn 0.000000 0.000000 1.000000
vn 0.000000 -1.000000 0.000000
vn 0.000000 -1.000000 0.000000
vn 0.000000 1.000000 0.000000
vn 0.000000 1.000000 0.000000
vn -1.000000 0.000000 0.000000
vn -1.000000 0.000000 0.000000
vn 1.000000 0.000000 0.000000
vn 1.000000 0.000000 0.000000
vn 0.000000 0.000000 -1.000000
vn 0.000000 0.000000 -1.000000
vn 0.000000 0.000000 1.000000
vn 0.000000 0.000000 1.000000
vn 0.000000 -1.000000 0.000000
vn 0.000000 -1.000000 0.000000
vn 0.000000 1.000000 0.000000
vn 0.000000 1.000000 0.000000
vn -1.000000 0.000000 0.000000
vn -1.000000 0.000000 0.000000
vn 1.000000 0.000000 0.000000
vn 1.000000 0.000000 0.000000
vn 0.000000 0.000000 -1.000000
vn 0.000000 0.000000 -1.000000
vn 0.000000 0.000000 1.000000
vn 0.000000 0.000000 1.000000
vn 0.000000 -1.000000 0.000000
vn 0.000000 -1.000000 0.000000
vn 0.000000 1.000000 0.000000
vn 0.000000 1.000000 0.000000
vn -1.000000 0.000000 0.000000
vn -1.000000 0.000000 0.000000
vn 1.000000 0.000000 0.000000
vn 1.000000 0.000000 0.000000
vn 0.000000 0.000000 -1.000000
vn 0.000000 0.000000 -1.000000
vn 0.000000 0.000000 1.000000
vn 0.000000 0.000000 1.000000
vn 0.000000 -1.000000 0.000000
vn 0.000000 -1.000000 0.000000
vn 0.000000 1.000000 0.000000
vn 0.000000 1.000000 0.000000
vn -1.000000 0.000000 0.000000
vn -1.000000 0.000000 0.000000
vn 1.000000 0.000000 0.000000
vn 1.000000 0.000000 0.000000
vn 0.000000 0.000000 -1.000000
vn 0.000000 0.000000 -1.000000
vn 0.000000 0.000000 1.000000
vn 0.000000 0.000000 1.000000
vn 0.000000 -1.000000 0.000000
vn 0.000000 -1.000000 0.000000
vn 0.000000 1.000000 0.000000
vn 0.000000 1.000000 0.000000
vn -1.000000 0.000000 0.000000
vn -1.000000 0.000000 0.000000
vn 1.000000 0.000000 0.000000
vn 1.000000 0.000000 0.000000
vn 0.000000 0.000000 -1.000000
vn 0.000000 0.000000 -1.000000
vn 0.000000 0.000000 1.000000
vn 0.000000 0.000000 1.000000
vn 0.000000 -1.000000 0.000000
vn 0.000000 -1.000000 0.000000
vn 0.000000 1.000000 0.000000
vn 0.000000 1.000000 0.000000
vn -1.000000 0.000000 0.000000
vn -1.000000 0.000000 0.000000
vn 1.000000 0.000000 0.000000
vn 1.000000 0.000000 0.000000
vn 0.000000 0.000000 -1.000000
vn 0.000000 0.000000 -1.000000
vn 0.000000 0.000000 1.000000
vn 0.000000 0.000000 1.000000
vn 0.000000 -1.000000 0.000000
vn 0.000000 -1.000000 0.000000
vn 0.000000 1.000000 0.000000
vn 0.000000 1.000000 0.000000
vn -1.000000 0.000000 0.000000
vn -1.000000 0.000000 0.000000
vn 1.000000 0.000000 0.000000
vn 1.000000 0.000000 0.000000
vn 0.000000 0.000000 -1.000000
vn 0.000000 0.000000 -1.000000
vn 0.000000 0.000000 1.000000
vn 0.000000 0.000000 1.000000
vn 0.000000 -1.000000 0.000000
vn 0.000000 -1.000000 0.000000
vn 0.000000 1.000000 0.000000
vn 0.000000 1.000000 0.000000
vn -1.000000 0.000000 0.000000
vn -1.000000 0.000000 0.000000
vn 1.000000 0.000000 0.000000
vn 1.000000 0.000000 0.000000
vn 0.000000 0.000000 -1.000000
vn 0.000000 0.000000 -1.000000
vn 0.000000 0.000000 1.000000
vn 0.000000 0.000000 1.000000
vn 0.000000 -1.000000 0.000000
vn 0.000000 -1.000000 0.000000
vn 0.000000 1.000000 0.000000
vn 0.000000 1.000000 0.000000
vn -1.000000 0.000000 0.000000
vn -1.000000 0.000000 0.000000
vn 1.000000 0.000000 0.000000
vn 1.000000 0.000000 0.000000
vn 0.000000 0.000000 -1.000000
vn 0.000000 0.000000 -1.000000
vn 0.000000 0.000000 1.000000
vn 0.000000 0.000000 1.000000
vn 0.000000 -1.000000 0.000000
vn 0.000000 -1.000000 0.000000
vn 0.000000 1.000000 0.000000
vn 0.000000 1.000000 0.000000
vn -1.000000 0.000000 0.000000
vn -1.000000 0.000000 0.000000
vn 1.000000 0.000000 0.000000
vn 1.000000 0.000000 0.000000
vn 0.000000 0.000000 -1.000000
vn 0.000000 0.000000 -1.000000
vn 0.000000 0.000000 1.000000
vn 0.000000 0.000000 1.000000
vn 0.000000 -1.000000 0.000000
vn 0.000000 -1.000000 0.000000
vn 0.000000 1.000000 0.000000
vn 0.000000 1.000000 0.000000
vn -1.000000 0.000000 0.000000
vn -1.000000 0.000000 0.000000
vn 1.000000 0.000000 0.000000
vn 1.000000 0.000000 0.000000
vn 0.000000 0.000000 -1.000000
vn 0.000000 0.000000 -1.000000
vn 0.000000 0.000000 1.000000
vn 0.000000 0.000000 1.000000
vn 0.000000 -1.000000 0.000000
vn 0.000000 -1.000000 0.000000
vn 0.000000 1.000000 0.000000
vn 0.000000 1.000000 0.000000
vn -1.000000 0.000000 0.000000
vn -1.000000 0.000000 0.000000
vn 1.000000 0.000000 0.000000
vn 1.000000 0.000000 0.000000
vn 0.000000 0.000000 -1.000000
vn 0.000000 0.000000 -1.000000
vn 0.000000 0.000000 1.000000
vn 0.000000 0.000000 1.000000
vn 0.000000 -1.000000 0.000000
vn 0.000000 -1.000000 0.000000
vn 0.000000 1.000000 0.000000
vn 0.000000 1.000000 0.000000
vn -1.000000 0.000000 0.000000
vn -1.000000 0.000000 0.000000
vn 1.000000 0.000000 0.000000
vn 1.000000 0.000000 0.000000
vn 0.000000 0.000000 -1.000000
vn 0.000000 0.000000 -1.000000
vn 0.000000 0.000000 1.000000
vn 0.000000 0.000000 1.000000
vn 0.000000 -1.000000 0.000000
vn 0.000000 -1.000000 0.000000
vn 0.000000 1.000000 0.000000
vn 0.000000 1.000000 0.000000
vn -1.000000 0.000000 0.000000
vn -1.000000 0.000000 0.000000
vn 1.000000 0.000000 0.000000
vn 1.000000 0.000000 0.000000
vn 0.000000 0.000000 -1.000000
vn 0.000000 0.000000 -1.000000
vn 0.000000 0.000000 1.000000
vn 0.000000 0.000000 1.000000
vn 0.000000 -1.000000 0.000000
vn 0.000000 -1.000000 0.000000
vn 0.000000 1.000000 0.000000
vn 0.000000 1.000000 0.000000
vn -1.000000 0.000000 0.000000
vn -1.000000 0.000000 0.000000
vn 1.000000 0.000000 0.000000
vn 1.000000 0.000000 0.000000
vn 0.000000 0.000000 -1.000000
vn 0.000000 0.000000 -1.000000
vn 0.000000 0.000000 1.000000
vn 0.000000 0.000000 1.000000
vn 0.000000 -1.000000 0.000000
vn 0.000000 -1.000000 0.000000
vn 0.000000 1.000000 0.000000
vn 0.000000 1.000000 0.000000
vn -1.000000 0.000000 0.000000
vn -1.000000 0.000000 0.000000
vn 1.000000 0.000000 0.000000
vn 1.000000 0.000000 0.000000
vn 0.000000 0.000000 -1.000000
vn 0.000000 0.000000 -1.000000
vn 0.000000 0.000000 1.000000
vn 0.000000 0.000000 1.000000
vn 0.000000 -1.000000 0.000000
vn 0.000000 -1.000000 0.000000
vn 0.000000 1.000000 0.000000
vn 0.000000 1.000000 0.000000
vn -1.000000 0.000000 0.000000
vn -1.000000 0.000000 0.000000
vn 1.000000 0.000000 0.000000
vn 1.000000 0.000000 0.000000
vn 0.000000 0.000000 -1.000000
vn 0.000000 0.000000 -1.000000
vn 0.000000 0.000000 1.000000
vn 0.000000 0.000000 1.000000
vn 0.000000 -1.000000 0.000000
vn 0.000000 -1.000000 0.000000
vn 0.000000 1.000000 0.000000
vn 0.000000 1.000000 0.000000
vn -1.000000 0.000000 0.000000
vn -1.000000 0.000000 0.000000
vn 1.000000 0.000000 0.000000
vn 1.000000 0.000000 0.000000
vn 0.000000 0.000000 -1.000000
vn 0.000000 0.000000 -1.000000
vn 0.000000 0.000000 1.000000
vn 0.000000 0.000000 1.000000
vn 0.000000 -1.000000 0.000000
vn 0.000000 -1.000000 0.000000
vn 0.000000 1.000000 0.000000
vn 0.000000 1.000000 0.000000
vn -1.000000 0.000000 0.000000
vn -1.000000 0.000000 0.000000
vn 1.000000 0.000000 0.000000
vn 1.000000 0.000000 0.000000
vn 0.000000 0.000000 -1.000000
vn 0.000000 0.000000 -1.000000
vn 0.000000 0.000000 1.000000
vn 0.000000 0.000000 1.000000
vn 0.000000 -1.000000 0.000000
vn 0.000000 -1.000000 0.000000
vn 0.000000 1.000000 0.000000
vn 0.000000 1.000000 0.000000
vn -1.000000 0.000000 0.000000
vn -1.000000 0.000000 0.000000
vn 1.000000 0.000000 0.000000
vn 1.000000 0.000000 0.000000
vn 0.000000 0.000000 -1.000000
vn 0.000000 0.000000 -1.000000
vn 0.000000 0.000000 1.000000
vn 0.000000 0.000000 1.000000
vn 0.000000 -1.000000 0.000000
vn 0.000000 -1.000000 0.000000
vn 0.000000 1.000000 0.000000
vn 0.000000 1.000000 0.000000
vn -1.000000 0.000000 0.000000
vn -1.000000 0.000000 0.000000
vn 1.000000 0.000000 0.000000
vn 1.000000 0.000000 0.000000
vn 0.000000 0.000000 -1.000000
vn 0.000000 0.000000 -1.000000
vn 0.000000 0.000000 1.000000
vn 0.000000 0.000000 1.000000
vn 0.000000 -1.000000 0.000000
vn 0.000000 -1.000000 0.000000
vn 0.000000 1.000000 0.000000
vn 0.000000 1.000000 0.000000
vn -1.000000 0.000000 0.000000
vn -1.000000 0.000000 0.000000
vn 1.000000 0.000000 0.000000
vn 1.000000 0.000000 0.000000
vn 0.000000 0.000000 -1.000000
vn 0.000000 0.000000 -1.000000
vn 0.000000 0.000000 1.000000
vn 0.000000 0.000000 1.000000
vn 0.000000 -1.000000 0.000000
vn 0.000000 -1.000000 0.000000
vn 0.000000 1.000000 0.000000
vn 0.000000 1.000000 0.000000
vn -1.000000 0.000000 0.000000
vn -1.000000 0.000000 0.000000
vn 1.000000 0.000000 0.000000
vn 1.000000 0.000000 0.000000
vn 0.000000 0.000000 -1.000000
vn 0.000000 0.000000 -1.000000
vn 0.000000 0.000000 1.000000
vn 0.000000 0.000000 1.000000
vn 0.000000 -1.000000 0.000000
vn 0.000000 -1.000000 0.000000
vn 0.000000 1.000000 0.000000
vn 0.000000 1.000000 0.000000
vn -1.000000 0.000000 0.000000
vn -1.000000 0.000000 0.000000
vn 1.000000 0.000000 0.000000
vn 1.000000 0.000000 0.000000
vn 0.000000 0.000000 -1.000000
vn 0.000000 0.000000 -1.000000
vn 0.000000 0.000000 1.000000
vn 0.000000 0.000000 1.000000
vn 0.000000 -1.000000 0.000000
vn 0.000000 -1.000000 0.000000
vn 0.000000 1.000000 0.000000
vn 0.000000 1.000000 0.000000
vn -1.000000 0.000000 0.000000
vn -1.000000 0.000000 0.000000
vn 1.000000 0.000000 0.000000
vn 1.000000 0.000000 0.000000
vn 0.000000 0.000000 -1.000000
vn 0.000000 0.000000 -1.000000
vn 0.000000 0.000000 1.000000
vn 0.000000 0.000000 1.000000
vn 0.000000 -1.000000 0.000000
vn 0.000000 -1.000000 0.000000
vn 0.000000 1.000000 0.000000
vn 0.000000 1.000000 0.000000
vn -1.000000 0.000000 0.000000
vn -1.000000 0.000000 0.000000
vn 1.000000 0.000000 0.000000
vn 1.000000 0.000000 0.000000
vn 0.000000 0.000000 -1.000000
vn 0.000000 0.000000 -1.000000
vn 0.000000 0.000000 1.000000
vn 0.000000 0.000000 1.000000
vn 0.000000 -1.000000 0.000000
vn 0.000000 -1.000000 0.000000
vn 0.000000 1.000000 0.000000
vn 0.000000 1.000000 0.000000
vn -1.000000 0.000000 0.000000
vn -1.000000 0.000000 0.000000
vn 1.000000 0.000000 0.000000
vn 1.000000 0.000000 0.000000
vn 0.000000 0.000000 -1.000000
vn 0.000000 0.000000 -1.000000
vn 0.000000 0.000000 1.000000
vn 0.000000 0.000000 1.000000
vn 0.000000 -1.000000 0.000000
vn 0.000000 -1.000000 0.000000
vn 0.000000 1.000000 0.000000
vn 0.000000 1.000000 0.000000
vn -1.000000 0.000000 0.000000
vn -1.000000 0.000000 0.000000
vn 1.000000 0.000000 0.000000
vn 1.000000 0.000000 0.000000
vn 0.000000 0.000000 -1.000000
vn 0.000000 0.000000 -1.000000
vn 0.000000 0.000000 1.000000
vn 0.000000 0.000000 1.000000
vn 0.000000 -1.000000 0.000000
vn 0.000000 -1.000000 0.000000
vn 0.000000 1.000000 0.000000
vn 0.000000 1.000000 0.000000
vn -1.000000 0.000000 0.000000
vn -1.000000 0.000000 0.000000
vn 1.000000 0.000000 0.000000
vn 1.000000 0.000000 0.000000


o Cabinet_left_side
usemtl cabinet_white
f 1//1 4//1 3//1
f 1//2 3//2 2//2
f 5//3 6//3 7//3
f 5//4 7//4 8//4
f 1//5 2//5 6//5
f 1//6 6//6 5//6
f 4//7 8//7 7//7
f 4//8 7//8 3//8
f 1//9 5//9 8//9
f 1//10 8//10 4//10
f 2//11 3//11 7//11
f 2//12 7//12 6//12

o Cabinet_right_side
usemtl cabinet_white
f 9//13 12//13 11//13
f 9//14 11//14 10//14
f 13//15 14//15 15//15
f 13//16 15//16 16//16
f 9//17 10//17 14//17
f 9//18 14//18 13//18
f 12//19 16//19 15//19
f 12//20 15//20 11//20
f 9//21 13//21 16//21
f 9//22 16//22 12//22
f 10//23 11//23 15//23
f 10//24 15//24 14//24

o Cabinet_top
usemtl cabinet_white
f 17//25 20//25 19//25
f 17//26 19//26 18//26
f 21//27 22//27 23//27
f 21//28 23//28 24//28
f 17//29 18//29 22//29
f 17//30 22//30 21//30
f 20//31 24//31 23//31
f 20//32 23//32 19//32
f 17//33 21//33 24//33
f 17//34 24//34 20//34
f 18//35 19//35 23//35
f 18//36 23//36 22//36

o Cabinet_bottom
usemtl cabinet_white
f 25//37 28//37 27//37
f 25//38 27//38 26//38
f 29//39 30//39 31//39
f 29//40 31//40 32//40
f 25//41 26//41 30//41
f 25//42 30//42 29//42
f 28//43 32//43 31//43
f 28//44 31//44 27//44
f 25//45 29//45 32//45
f 25//46 32//46 28//46
f 26//47 27//47 31//47
f 26//48 31//48 30//48

o Cabinet_back
usemtl cabinet_white
f 33//49 36//49 35//49
f 33//50 35//50 34//50
f 37//51 38//51 39//51
f 37//52 39//52 40//52
f 33//53 34//53 38//53
f 33//54 38//54 37//54
f 36//55 40//55 39//55
f 36//56 39//56 35//56
f 33//57 37//57 40//57
f 33//58 40//58 36//58
f 34//59 35//59 39//59
f 34//60 39//60 38//60

o Divider_vertical
usemtl cabinet_white
f 41//61 44//61 43//61
f 41//62 43//62 42//62
f 45//63 46//63 47//63
f 45//64 47//64 48//64
f 41//65 42//65 46//65
f 41//66 46//66 45//66
f 44//67 48//67 47//67
f 44//68 47//68 43//68
f 41//69 45//69 48//69
f 41//70 48//70 44//70
f 42//71 43//71 47//71
f 42//72 47//72 46//72

o Divider_horizontal_0.62
usemtl cabinet_white
f 49//73 52//73 51//73
f 49//74 51//74 50//74
f 53//75 54//75 55//75
f 53//76 55//76 56//76
f 49//77 50//77 54//77
f 49//78 54//78 53//78
f 52//79 56//79 55//79
f 52//80 55//80 51//80
f 49//81 53//81 56//81
f 49//82 56//82 52//82
f 50//83 51//83 55//83
f 50//84 55//84 54//84

o Divider_horizontal_1.16
usemtl cabinet_white
f 57//85 60//85 59//85
f 57//86 59//86 58//86
f 61//87 62//87 63//87
f 61//88 63//88 64//88
f 57//89 58//89 62//89
f 57//90 62//90 61//90
f 60//91 64//91 63//91
f 60//92 63//92 59//92
f 57//93 61//93 64//93
f 57//94 64//94 60//94
f 58//95 59//95 63//95
f 58//96 63//96 62//96

o Door_L_1_top
usemtl cabinet_white
f 65//97 68//97 67//97
f 65//98 67//98 66//98
f 69//99 70//99 71//99
f 69//100 71//100 72//100
f 65//101 66//101 70//101
f 65//102 70//102 69//102
f 68//103 72//103 71//103
f 68//104 71//104 67//104
f 65//105 69//105 72//105
f 65//106 72//106 68//106
f 66//107 67//107 71//107
f 66//108 71//108 70//108

o Door_L_1_bot
usemtl cabinet_white
f 73//109 76//109 75//109
f 73//110 75//110 74//110
f 77//111 78//111 79//111
f 77//112 79//112 80//112
f 73//113 74//113 78//113
f 73//114 78//114 77//114
f 76//115 80//115 79//115
f 76//116 79//116 75//116
f 73//117 77//117 80//117
f 73//118 80//118 76//118
f 74//119 75//119 79//119
f 74//120 79//120 78//120

o Door_L_1_left
usemtl cabinet_white
f 81//121 84//121 83//121
f 81//122 83//122 82//122
f 85//123 86//123 87//123
f 85//124 87//124 88//124
f 81//125 82//125 86//125
f 81//126 86//126 85//126
f 84//127 88//127 87//127
f 84//128 87//128 83//128
f 81//129 85//129 88//129
f 81//130 88//130 84//130
f 82//131 83//131 87//131
f 82//132 87//132 86//132

o Door_L_1_right
usemtl cabinet_white
f 89//133 92//133 91//133
f 89//134 91//134 90//134
f 93//135 94//135 95//135
f 93//136 95//136 96//136
f 89//137 90//137 94//137
f 89//138 94//138 93//138
f 92//139 96//139 95//139
f 92//140 95//140 91//140
f 89//141 93//141 96//141
f 89//142 96//142 92//142
f 90//143 91//143 95//143
f 90//144 95//144 94//144

o Door_L_1_glass
usemtl glass_blue
f 97//145 100//145 99//145
f 97//146 99//146 98//146
f 101//147 102//147 103//147
f 101//148 103//148 104//148
f 97//149 98//149 102//149
f 97//150 102//150 101//150
f 100//151 104//151 103//151
f 100//152 103//152 99//152
f 97//153 101//153 104//153
f 97//154 104//154 100//154
f 98//155 99//155 103//155
f 98//156 103//156 102//156

o Door_L_1_handle_topmount
usemtl metal
f 105//157 108//157 107//157
f 105//158 107//158 106//158
f 109//159 110//159 111//159
f 109//160 111//160 112//160
f 105//161 106//161 110//161
f 105//162 110//162 109//162
f 108//163 112//163 111//163
f 108//164 111//164 107//164
f 105//165 109//165 112//165
f 105//166 112//166 108//166
f 106//167 107//167 111//167
f 106//168 111//168 110//168

o Door_L_1_handle_botmount
usemtl metal
f 113//169 116//169 115//169
f 113//170 115//170 114//170
f 117//171 118//171 119//171
f 117//172 119//172 120//172
f 113//173 114//173 118//173
f 113//174 118//174 117//174
f 116//175 120//175 119//175
f 116//176 119//176 115//176
f 113//177 117//177 120//177
f 113//178 120//178 116//178
f 114//179 115//179 119//179
f 114//180 119//180 118//180

o Door_L_1_handle_bar
usemtl metal
f 121//181 124//181 123//181
f 121//182 123//182 122//182
f 125//183 126//183 127//183
f 125//184 127//184 128//184
f 121//185 122//185 126//185
f 121//186 126//186 125//186
f 124//187 128//187 127//187
f 124//188 127//188 123//188
f 121//189 125//189 128//189
f 121//190 128//190 124//190
f 122//191 123//191 127//191
f 122//192 127//192 126//192

o Door_R_1_top
usemtl cabinet_white
f 129//193 132//193 131//193
f 129//194 131//194 130//194
f 133//195 134//195 135//195
f 133//196 135//196 136//196
f 129//197 130//197 134//197
f 129//198 134//198 133//198
f 132//199 136//199 135//199
f 132//200 135//200 131//200
f 129//201 133//201 136//201
f 129//202 136//202 132//202
f 130//203 131//203 135//203
f 130//204 135//204 134//204

o Door_R_1_bot
usemtl cabinet_white
f 137//205 140//205 139//205
f 137//206 139//206 138//206
f 141//207 142//207 143//207
f 141//208 143//208 144//208
f 137//209 138//209 142//209
f 137//210 142//210 141//210
f 140//211 144//211 143//211
f 140//212 143//212 139//212
f 137//213 141//213 144//213
f 137//214 144//214 140//214
f 138//215 139//215 143//215
f 138//216 143//216 142//216

o Door_R_1_left
usemtl cabinet_white
f 145//217 148//217 147//217
f 145//218 147//218 146//218
f 149//219 150//219 151//219
f 149//220 151//220 152//220
f 145//221 146//221 150//221
f 145//222 150//222 149//222
f 148//223 152//223 151//223
f 148//224 151//224 147//224
f 145//225 149//225 152//225
f 145//226 152//226 148//226
f 146//227 147//227 151//227
f 146//228 151//228 150//228

o Door_R_1_right
usemtl cabinet_white
f 153//229 156//229 155//229
f 153//230 155//230 154//230
f 157//231 158//231 159//231
f 157//232 159//232 160//232
f 153//233 154//233 158//233
f 153//234 158//234 157//234
f 156//235 160//235 159//235
f 156//236 159//236 155//236
f 153//237 157//237 160//237
f 153//238 160//238 156//238
f 154//239 155//239 159//239
f 154//240 159//240 158//240

o Door_R_1_glass
usemtl glass_blue
f 161//241 164//241 163//241
f 161//242 163//242 162//242
f 165//243 166//243 167//243
f 165//244 167//244 168//244
f 161//245 162//245 166//245
f 161//246 166//246 165//246
f 164//247 168//247 167//247
f 164//248 167//248 163//248
f 161//249 165//249 168//249
f 161//250 168//250 164//250
f 162//251 163//251 167//251
f 162//252 167//252 166//252

o Door_R_1_handle_topmount
usemtl metal
f 169//253 172//253 171//253
f 169//254 171//254 170//254
f 173//255 174//255 175//255
f 173//256 175//256 176//256
f 169//257 170//257 174//257
f 169//258 174//258 173//258
f 172//259 176//259 175//259
f 172//260 175//260 171//260
f 169//261 173//261 176//261
f 169//262 176//262 172//262
f 170//263 171//263 175//263
f 170//264 175//264 174//264

o Door_R_1_handle_botmount
usemtl metal
f 177//265 180//265 179//265
f 177//266 179//266 178//266
f 181//267 182//267 183//267
f 181//268 183//268 184//268
f 177//269 178//269 182//269
f 177//270 182//270 181//270
f 180//271 184//271 183//271
f 180//272 183//272 179//272
f 177//273 181//273 184//273
f 177//274 184//274 180//274
f 178//275 179//275 183//275
f 178//276 183//276 182//276

o Door_R_1_handle_bar
usemtl metal
f 185//277 188//277 187//277
f 185//278 187//278 186//278
f 189//279 190//279 191//279
f 189//280 191//280 192//280
f 185//281 186//281 190//281
f 185//282 190//282 189//282
f 188//283 192//283 191//283
f 188//284 191//284 187//284
f 185//285 189//285 192//285
f 185//286 192//286 188//286
f 186//287 187//287 191//287
f 186//288 191//288 190//288

o Door_L_2_top
usemtl cabinet_white
f 193//289 196//289 195//289
f 193//290 195//290 194//290
f 197//291 198//291 199//291
f 197//292 199//292 200//292
f 193//293 194//293 198//293
f 193//294 198//294 197//294
f 196//295 200//295 199//295
f 196//296 199//296 195//296
f 193//297 197//297 200//297
f 193//298 200//298 196//298
f 194//299 195//299 199//299
f 194//300 199//300 198//300

o Door_L_2_bot
usemtl cabinet_white
f 201//301 204//301 203//301
f 201//302 203//302 202//302
f 205//303 206//303 207//303
f 205//304 207//304 208//304
f 201//305 202//305 206//305
f 201//306 206//306 205//306
f 204//307 208//307 207//307
f 204//308 207//308 203//308
f 201//309 205//309 208//309
f 201//310 208//310 204//310
f 202//311 203//311 207//311
f 202//312 207//312 206//312

o Door_L_2_left
usemtl cabinet_white
f 209//313 212//313 211//313
f 209//314 211//314 210//314
f 213//315 214//315 215//315
f 213//316 215//316 216//316
f 209//317 210//317 214//317
f 209//318 214//318 213//318
f 212//319 216//319 215//319
f 212//320 215//320 211//320
f 209//321 213//321 216//321
f 209//322 216//322 212//322
f 210//323 211//323 215//323
f 210//324 215//324 214//324

o Door_L_2_right
usemtl cabinet_white
f 217//325 220//325 219//325
f 217//326 219//326 218//326
f 221//327 222//327 223//327
f 221//328 223//328 224//328
f 217//329 218//329 222//329
f 217//330 222//330 221//330
f 220//331 224//331 223//331
f 220//332 223//332 219//332
f 217//333 221//333 224//333
f 217//334 224//334 220//334
f 218//335 219//335 223//335
f 218//336 223//336 222//336

o Door_L_2_glass
usemtl glass_blue
f 225//337 228//337 227//337
f 225//338 227//338 226//338
f 229//339 230//339 231//339
f 229//340 231//340 232//340
f 225//341 226//341 230//341
f 225//342 230//342 229//342
f 228//343 232//343 231//343
f 228//344 231//344 227//344
f 225//345 229//345 232//345
f 225//346 232//346 228//346
f 226//347 227//347 231//347
f 226//348 231//348 230//348

o Door_L_2_handle_topmount
usemtl metal
f 233//349 236//349 235//349
f 233//350 235//350 234//350
f 237//351 238//351 239//351
f 237//352 239//352 240//352
f 233//353 234//353 238//353
f 233//354 238//354 237//354
f 236//355 240//355 239//355
f 236//356 239//356 235//356
f 233//357 237//357 240//357
f 233//358 240//358 236//358
f 234//359 235//359 239//359
f 234//360 239//360 238//360

o Door_L_2_handle_botmount
usemtl metal
f 241//361 244//361 243//361
f 241//362 243//362 242//362
f 245//363 246//363 247//363
f 245//364 247//364 248//364
f 241//365 242//365 246//365
f 241//366 246//366 245//366
f 244//367 248//367 247//367
f 244//368 247//368 243//368
f 241//369 245//369 248//369
f 241//370 248//370 244//370
f 242//371 243//371 247//371
f 242//372 247//372 246//372

o Door_L_2_handle_bar
usemtl metal
f 249//373 252//373 251//373
f 249//374 251//374 250//374
f 253//375 254//375 255//375
f 253//376 255//376 256//376
f 249//377 250//377 254//377
f 249//378 254//378 253//378
f 252//379 256//379 255//379
f 252//380 255//380 251//380
f 249//381 253//381 256//381
f 249//382 256//382 252//382
f 250//383 251//383 255//383
f 250//384 255//384 254//384

o Door_R_2_top
usemtl cabinet_white
f 257//385 260//385 259//385
f 257//386 259//386 258//386
f 261//387 262//387 263//387
f 261//388 263//388 264//388
f 257//389 258//389 262//389
f 257//390 262//390 261//390
f 260//391 264//391 263//391
f 260//392 263//392 259//392
f 257//393 261//393 264//393
f 257//394 264//394 260//394
f 258//395 259//395 263//395
f 258//396 263//396 262//396

o Door_R_2_bot
usemtl cabinet_white
f 265//397 268//397 267//397
f 265//398 267//398 266//398
f 269//399 270//399 271//399
f 269//400 271//400 272//400
f 265//401 266//401 270//401
f 265//402 270//402 269//402
f 268//403 272//403 271//403
f 268//404 271//404 267//404
f 265//405 269//405 272//405
f 265//406 272//406 268//406
f 266//407 267//407 271//407
f 266//408 271//408 270//408

o Door_R_2_left
usemtl cabinet_white
f 273//409 276//409 275//409
f 273//410 275//410 274//410
f 277//411 278//411 279//411
f 277//412 279//412 280//412
f 273//413 274//413 278//413
f 273//414 278//414 277//414
f 276//415 280//415 279//415
f 276//416 279//416 275//416
f 273//417 277//417 280//417
f 273//418 280//418 276//418
f 274//419 275//419 279//419
f 274//420 279//420 278//420

o Door_R_2_right
usemtl cabinet_white
f 281//421 284//421 283//421
f 281//422 283//422 282//422
f 285//423 286//423 287//423
f 285//424 287//424 288//424
f 281//425 282//425 286//425
f 281//426 286//426 285//426
f 284//427 288//427 287//427
f 284//428 287//428 283//428
f 281//429 285//429 288//429
f 281//430 288//430 284//430
f 282//431 283//431 287//431
f 282//432 287//432 286//432

o Door_R_2_glass
usemtl glass_blue
f 289//433 292//433 291//433
f 289//434 291//434 290//434
f 293//435 294//435 295//435
f 293//436 295//436 296//436
f 289//437 290//437 294//437
f 289//438 294//438 293//438
f 292//439 296//439 295//439
f 292//440 295//440 291//440
f 289//441 293//441 296//441
f 289//442 296//442 292//442
f 290//443 291//443 295//443
f 290//444 295//444 294//444

o Door_R_2_handle_topmount
usemtl metal
f 297//445 300//445 299//445
f 297//446 299//446 298//446
f 301//447 302//447 303//447
f 301//448 303//448 304//448
f 297//449 298//449 302//449
f 297//450 302//450 301//450
f 300//451 304//451 303//451
f 300//452 303//452 299//452
f 297//453 301//453 304//453
f 297//454 304//454 300//454
f 298//455 299//455 303//455
f 298//456 303//456 302//456

o Door_R_2_handle_botmount
usemtl metal
f 305//457 308//457 307//457
f 305//458 307//458 306//458
f 309//459 310//459 311//459
f 309//460 311//460 312//460
f 305//461 306//461 310//461
f 305//462 310//462 309//462
f 308//463 312//463 311//463
f 308//464 311//464 307//464
f 305//465 309//465 312//465
f 305//466 312//466 308//466
f 306//467 307//467 311//467
f 306//468 311//468 310//468

o Door_R_2_handle_bar
usemtl metal
f 313//469 316//469 315//469
f 313//470 315//470 314//470
f 317//471 318//471 319//471
f 317//472 319//472 320//472
f 313//473 314//473 318//473
f 313//474 318//474 317//474
f 316//475 320//475 319//475
f 316//476 319//476 315//476
f 313//477 317//477 320//477
f 313//478 320//478 316//478
f 314//479 315//479 319//479
f 314//480 319//480 318//480

o Door_L_3_top
usemtl cabinet_white
f 321//481 324//481 323//481
f 321//482 323//482 322//482
f 325//483 326//483 327//483
f 325//484 327//484 328//484
f 321//485 322//485 326//485
f 321//486 326//486 325//486
f 324//487 328//487 327//487
f 324//488 327//488 323//488
f 321//489 325//489 328//489
f 321//490 328//490 324//490
f 322//491 323//491 327//491
f 322//492 327//492 326//492

o Door_L_3_bot
usemtl cabinet_white
f 329//493 332//493 331//493
f 329//494 331//494 330//494
f 333//495 334//495 335//495
f 333//496 335//496 336//496
f 329//497 330//497 334//497
f 329//498 334//498 333//498
f 332//499 336//499 335//499
f 332//500 335//500 331//500
f 329//501 333//501 336//501
f 329//502 336//502 332//502
f 330//503 331//503 335//503
f 330//504 335//504 334//504

o Door_L_3_left
usemtl cabinet_white
f 337//505 340//505 339//505
f 337//506 339//506 338//506
f 341//507 342//507 343//507
f 341//508 343//508 344//508
f 337//509 338//509 342//509
f 337//510 342//510 341//510
f 340//511 344//511 343//511
f 340//512 343//512 339//512
f 337//513 341//513 344//513
f 337//514 344//514 340//514
f 338//515 339//515 343//515
f 338//516 343//516 342//516

o Door_L_3_right
usemtl cabinet_white
f 345//517 348//517 347//517
f 345//518 347//518 346//518
f 349//519 350//519 351//519
f 349//520 351//520 352//520
f 345//521 346//521 350//521
f 345//522 350//522 349//522
f 348//523 352//523 351//523
f 348//524 351//524 347//524
f 345//525 349//525 352//525
f 345//526 352//526 348//526
f 346//527 347//527 351//527
f 346//528 351//528 350//528

o Door_L_3_glass
usemtl glass_blue
f 353//529 356//529 355//529
f 353//530 355//530 354//530
f 357//531 358//531 359//531
f 357//532 359//532 360//532
f 353//533 354//533 358//533
f 353//534 358//534 357//534
f 356//535 360//535 359//535
f 356//536 359//536 355//536
f 353//537 357//537 360//537
f 353//538 360//538 356//538
f 354//539 355//539 359//539
f 354//540 359//540 358//540

o Door_L_3_handle_topmount
usemtl metal
f 361//541 364//541 363//541
f 361//542 363//542 362//542
f 365//543 366//543 367//543
f 365//544 367//544 368//544
f 361//545 362//545 366//545
f 361//546 366//546 365//546
f 364//547 368//547 367//547
f 364//548 367//548 363//548
f 361//549 365//549 368//549
f 361//550 368//550 364//550
f 362//551 363//551 367//551
f 362//552 367//552 366//552

o Door_L_3_handle_botmount
usemtl metal
f 369//553 372//553 371//553
f 369//554 371//554 370//554
f 373//555 374//555 375//555
f 373//556 375//556 376//556
f 369//557 370//557 374//557
f 369//558 374//558 373//558
f 372//559 376//559 375//559
f 372//560 375//560 371//560
f 369//561 373//561 376//561
f 369//562 376//562 372//562
f 370//563 371//563 375//563
f 370//564 375//564 374//564

o Door_L_3_handle_bar
usemtl metal
f 377//565 380//565 379//565
f 377//566 379//566 378//566
f 381//567 382//567 383//567
f 381//568 383//568 384//568
f 377//569 378//569 382//569
f 377//570 382//570 381//570
f 380//571 384//571 383//571
f 380//572 383//572 379//572
f 377//573 381//573 384//573
f 377//574 384//574 380//574
f 378//575 379//575 383//575
f 378//576 383//576 382//576

o Door_R_3_top
usemtl cabinet_white
f 385//577 388//577 387//577
f 385//578 387//578 386//578
f 389//579 390//579 391//579
f 389//580 391//580 392//580
f 385//581 386//581 390//581
f 385//582 390//582 389//582
f 388//583 392//583 391//583
f 388//584 391//584 387//584
f 385//585 389//585 392//585
f 385//586 392//586 388//586
f 386//587 387//587 391//587
f 386//588 391//588 390//588

o Door_R_3_bot
usemtl cabinet_white
f 393//589 396//589 395//589
f 393//590 395//590 394//590
f 397//591 398//591 399//591
f 397//592 399//592 400//592
f 393//593 394//593 398//593
f 393//594 398//594 397//594
f 396//595 400//595 399//595
f 396//596 399//596 395//596
f 393//597 397//597 400//597
f 393//598 400//598 396//598
f 394//599 395//599 399//599
f 394//600 399//600 398//600

o Door_R_3_left
usemtl cabinet_white
f 401//601 404//601 403//601
f 401//602 403//602 402//602
f 405//603 406//603 407//603
f 405//604 407//604 408//604
f 401//605 402//605 406//605
f 401//606 406//606 405//606
f 404//607 408//607 407//607
f 404//608 407//608 403//608
f 401//609 405//609 408//609
f 401//610 408//610 404//610
f 402//611 403//611 407//611
f 402//612 407//612 406//612

o Door_R_3_right
usemtl cabinet_white
f 409//613 412//613 411//613
f 409//614 411//614 410//614
f 413//615 414//615 415//615
f 413//616 415//616 416//616
f 409//617 410//617 414//617
f 409//618 414//618 413//618
f 412//619 416//619 415//619
f 412//620 415//620 411//620
f 409//621 413//621 416//621
f 409//622 416//622 412//622
f 410//623 411//623 415//623
f 410//624 415//624 414//624

o Door_R_3_glass
usemtl glass_blue
f 417//625 420//625 419//625
f 417//626 419//626 418//626
f 421//627 422//627 423//627
f 421//628 423//628 424//628
f 417//629 418//629 422//629
f 417//630 422//630 421//630
f 420//631 424//631 423//631
f 420//632 423//632 419//632
f 417//633 421//633 424//633
f 417//634 424//634 420//634
f 418//635 419//635 423//635
f 418//636 423//636 422//636

o Door_R_3_handle_topmount
usemtl metal
f 425//637 428//637 427//637
f 425//638 427//638 426//638
f 429//639 430//639 431//639
f 429//640 431//640 432//640
f 425//641 426//641 430//641
f 425//642 430//642 429//642
f 428//643 432//643 431//643
f 428//644 431//644 427//644
f 425//645 429//645 432//645
f 425//646 432//646 428//646
f 426//647 427//647 431//647
f 426//648 431//648 430//648

o Door_R_3_handle_botmount
usemtl metal
f 433//649 436//649 435//649
f 433//650 435//650 434//650
f 437//651 438//651 439//651
f 437//652 439//652 440//652
f 433//653 434//653 438//653
f 433//654 438//654 437//654
f 436//655 440//655 439//655
f 436//656 439//656 435//656
f 433//657 437//657 440//657
f 433//658 440//658 436//658
f 434//659 435//659 439//659
f 434//660 439//660 438//660

o Door_R_3_handle_bar
usemtl metal
f 441//661 444//661 443//661
f 441//662 443//662 442//662
f 445//663 446//663 447//663
f 445//664 447//664 448//664
f 441//665 442//665 446//665
f 441//666 446//666 445//666
f 444//667 448//667 447//667
f 444//668 447//668 443//668
f 441//669 445//669 448//669
f 441//670 448//670 444//670
f 442//671 443//671 447//671
f 442//672 447//672 446//672

o Base_front_lip
usemtl cabinet_shadow
f 449//673 452//673 451//673
f 449//674 451//674 450//674
f 453//675 454//675 455//675
f 453//676 455//676 456//676
f 449//677 450//677 454//677
f 449//678 454//678 453//678
f 452//679 456//679 455//679
f 452//680 455//680 451//680
f 449//681 453//681 456//681
f 449//682 456//682 452//682
f 450//683 451//683 455//683
f 450//684 455//684 454//684
