# Blender 5.0.1
# www.blender.org
mtllib lab_bench_set.mtl
o Bench_left_beam_in
v -0.919797 0.325000 -0.550000
v 0.919797 0.325000 -0.550000
v 0.919797 0.355000 -0.550000
v -0.919797 0.355000 -0.550000
v -0.919797 0.325000 -0.520000
v 0.919797 0.325000 -0.520000
v 0.919797 0.355000 -0.520000
v -0.919797 0.355000 -0.520000
vn -0.0000 -0.0000 -1.0000
vn -0.0000 -0.0000 1.0000
vn -0.0000 -1.0000 -0.0000
vn -0.0000 1.0000 -0.0000
vn -1.0000 -0.0000 -0.0000
vn 1.0000 -0.0000 -0.0000
s 1
usemtl metal_dark
f 1//1 4//1 3//1
f 1//1 3//1 2//1
f 5//2 6//2 7//2
f 5//2 7//2 8//2
f 1//3 2//3 6//3
f 1//3 6//3 5//3
f 4//4 8//4 7//4
f 4//4 7//4 3//4
f 1//5 5//5 8//5
f 1//5 8//5 4//5
f 2//6 3//6 7//6
f 2//6 7//6 6//6
o Bench_left_beam_out
v -0.919797 0.325000 -0.750000
v 0.919797 0.325000 -0.750000
v 0.919797 0.355000 -0.750000
v -0.919797 0.355000 -0.750000
v -0.919797 0.325000 -0.720000
v 0.919797 0.325000 -0.720000
v 0.919797 0.355000 -0.720000
v -0.919797 0.355000 -0.720000
vn -0.0000 -0.0000 -1.0000
vn -0.0000 -0.0000 1.0000
vn -0.0000 -1.0000 -0.0000
vn -0.0000 1.0000 -0.0000
vn -1.0000 -0.0000 -0.0000
vn 1.0000 -0.0000 -0.0000
s 1
usemtl metal_dark
f 9//7 12//7 11//7
f 9//7 11//7 10//7
f 13//8 14//8 15//8
f 13//8 15//8 16//8
f 9//9 10//9 14//9
f 9//9 14//9 13//9
f 12//10 16//10 15//10
f 12//10 15//10 11//10
f 9//11 13//11 16//11
f 9//11 16//11 12//11
f 10//12 11//12 15//12
f 10//12 15//12 14//12
o Bench_left_edge_strip
v -1.125000 0.474500 -0.775000
v 1.125000 0.474500 -0.775000
v 1.125000 0.482500 -0.775000
v -1.125000 0.482500 -0.775000
v -1.125000 0.474500 -0.495000
v 1.125000 0.474500 -0.495000
v 1.125000 0.482500 -0.495000
v -1.125000 0.482500 -0.495000
vn -0.0000 -0.0000 -1.0000
vn -0.0000 -0.0000 1.0000
vn -0.0000 -1.0000 -0.0000
vn -0.0000 1.0000 -0.0000
vn -1.0000 -0.0000 -0.0000
vn 1.0000 -0.0000 -0.0000
s 1
usemtl wood_dark.001
f 17//13 20//13 19//13
f 17//13 19//13 18//13
f 21//14 22//14 23//14
f 21//14 23//14 24//14
f 17//15 18//15 22//15
f 17//15 22//15 21//15
f 20//16 24//16 23//16
f 20//16 23//16 19//16
f 17//17 21//17 24//17
f 17//17 24//17 20//17
f 18//18 19//18 23//18
f 18//18 23//18 22//18
o Bench_left_leg_in_1
v -0.920000 -0.000000 -0.555000
v -0.880000 -0.000000 -0.555000
v -0.880000 0.460000 -0.555000
v -0.920000 0.460000 -0.555000
v -0.920000 -0.000000 -0.515000
v -0.880000 -0.000000 -0.515000
v -0.880000 0.460000 -0.515000
v -0.920000 0.460000 -0.515000
vn -0.0000 -0.0000 -1.0000
vn -0.0000 -0.0000 1.0000
vn -0.0000 -1.0000 -0.0000
vn -0.0000 1.0000 -0.0000
vn -1.0000 -0.0000 -0.0000
vn 1.0000 -0.0000 -0.0000
s 1
usemtl metal.001
f 25//19 28//19 27//19
f 25//19 27//19 26//19
f 29//20 30//20 31//20
f 29//20 31//20 32//20
f 25//21 26//21 30//21
f 25//21 30//21 29//21
f 28//22 32//22 31//22
f 28//22 31//22 27//22
f 25//23 29//23 32//23
f 25//23 32//23 28//23
f 26//24 27//24 31//24
f 26//24 31//24 30//24
o Bench_left_leg_in_3
v 0.880000 -0.000000 -0.555000
v 0.920000 -0.000000 -0.555000
v 0.920000 0.460000 -0.555000
v 0.880000 0.460000 -0.555000
v 0.880000 -0.000000 -0.515000
v 0.920000 -0.000000 -0.515000
v 0.920000 0.460000 -0.515000
v 0.880000 0.460000 -0.515000
vn -0.0000 -0.0000 -1.0000
vn -0.0000 -0.0000 1.0000
vn -0.0000 -1.0000 -0.0000
vn -0.0000 1.0000 -0.0000
vn -1.0000 -0.0000 -0.0000
vn 1.0000 -0.0000 -0.0000
s 1
usemtl metal.001
f 33//25 36//25 35//25
f 33//25 35//25 34//25
f 37//26 38//26 39//26
f 37//26 39//26 40//26
f 33//27 34//27 38//27
f 33//27 38//27 37//27
f 36//28 40//28 39//28
f 36//28 39//28 35//28
f 33//29 37//29 40//29
f 33//29 40//29 36//29
f 34//30 35//30 39//30
f 34//30 39//30 38//30
o Bench_left_leg_out_1
v -0.920000 -0.000000 -0.755000
v -0.880000 -0.000000 -0.755000
v -0.880000 0.460000 -0.755000
v -0.920000 0.460000 -0.755000
v -0.920000 -0.000000 -0.715000
v -0.880000 -0.000000 -0.715000
v -0.880000 0.460000 -0.715000
v -0.920000 0.460000 -0.715000
vn -0.0000 -0.0000 -1.0000
vn -0.0000 -0.0000 1.0000
vn -0.0000 -1.0000 -0.0000
vn -0.0000 1.0000 -0.0000
vn -1.0000 -0.0000 -0.0000
vn 1.0000 -0.0000 -0.0000
s 1
usemtl metal.001
f 41//31 44//31 43//31
f 41//31 43//31 42//31
f 45//32 46//32 47//32
f 45//32 47//32 48//32
f 41//33 42//33 46//33
f 41//33 46//33 45//33
f 44//34 48//34 47//34
f 44//34 47//34 43//34
f 41//35 45//35 48//35
f 41//35 48//35 44//35
f 42//36 43//36 47//36
f 42//36 47//36 46//36
o Bench_left_leg_out_3
v 0.880000 -0.000000 -0.755000
v 0.920000 -0.000000 -0.755000
v 0.920000 0.460000 -0.755000
v 0.880000 0.460000 -0.755000
v 0.880000 -0.000000 -0.715000
v 0.920000 -0.000000 -0.715000
v 0.920000 0.460000 -0.715000
v 0.880000 0.460000 -0.715000
vn -0.0000 -0.0000 -1.0000
vn -0.0000 -0.0000 1.0000
vn -0.0000 -1.0000 -0.0000
vn -0.0000 1.0000 -0.0000
vn -1.0000 -0.0000 -0.0000
vn 1.0000 -0.0000 -0.0000
s 1
usemtl metal.001
f 49//37 52//37 51//37
f 49//37 51//37 50//37
f 53//38 54//38 55//38
f 53//38 55//38 56//38
f 49//39 50//39 54//39
f 49//39 54//39 53//39
f 52//40 56//40 55//40
f 52//40 55//40 51//40
f 49//41 53//41 56//41
f 49//41 56//41 52//41
f 50//42 51//42 55//42
f 50//42 55//42 54//42
o Bench_left_top
v -1.125000 0.442500 -0.775000
v 1.125000 0.442500 -0.775000
v 1.125000 0.477500 -0.775000
v -1.125000 0.477500 -0.775000
v -1.125000 0.442500 -0.495000
v 1.125000 0.442500 -0.495000
v 1.125000 0.477500 -0.495000
v -1.125000 0.477500 -0.495000
vn -0.0000 -0.0000 -1.0000
vn -0.0000 -0.0000 1.0000
vn -0.0000 -1.0000 -0.0000
vn -0.0000 1.0000 -0.0000
vn -1.0000 -0.0000 -0.0000
vn 1.0000 -0.0000 -0.0000
s 1
usemtl wood.001
f 57//43 60//43 59//43
f 57//43 59//43 58//43
f 61//44 62//44 63//44
f 61//44 63//44 64//44
f 57//45 58//45 62//45
f 57//45 62//45 61//45
f 60//46 64//46 63//46
f 60//46 63//46 59//46
f 57//47 61//47 64//47
f 57//47 64//47 60//47
f 58//48 59//48 63//48
f 58//48 63//48 62//48
o Cross_bar_left_1
v -0.915000 0.304296 -0.556902
v -0.885000 0.304296 -0.556902
v -0.885000 0.334296 -0.556902
v -0.915000 0.334296 -0.556902
v -0.915000 0.304296 -0.210453
v -0.885000 0.304296 -0.210453
v -0.885000 0.334296 -0.210453
v -0.915000 0.334296 -0.210453
vn -0.0000 -0.0000 -1.0000
vn -0.0000 -0.0000 1.0000
vn -0.0000 -1.0000 -0.0000
vn -0.0000 1.0000 -0.0000
vn -1.0000 -0.0000 -0.0000
vn 1.0000 -0.0000 -0.0000
s 1
usemtl metal_dark
f 65//49 68//49 67//49
f 65//49 67//49 66//49
f 69//50 70//50 71//50
f 69//50 71//50 72//50
f 65//51 66//51 70//51
f 65//51 70//51 69//51
f 68//52 72//52 71//52
f 68//52 71//52 67//52
f 65//53 69//53 72//53
f 65//53 72//53 68//53
f 66//54 67//54 71//54
f 66//54 71//54 70//54
o Cross_bar_left_3
v 0.885000 0.304296 -0.556902
v 0.915000 0.304296 -0.556902
v 0.915000 0.334296 -0.556902
v 0.885000 0.334296 -0.556902
v 0.885000 0.304296 -0.210453
v 0.915000 0.304296 -0.210453
v 0.915000 0.334296 -0.210453
v 0.885000 0.334296 -0.210453
vn -0.0000 -0.0000 -1.0000
vn -0.0000 -0.0000 1.0000
vn -0.0000 -1.0000 -0.0000
vn -0.0000 1.0000 -0.0000
vn -1.0000 -0.0000 -0.0000
vn 1.0000 -0.0000 -0.0000
s 1
usemtl metal_dark
f 73//55 76//55 75//55
f 73//55 75//55 74//55
f 77//56 78//56 79//56
f 77//56 79//56 80//56
f 73//57 74//57 78//57
f 73//57 78//57 77//57
f 76//58 80//58 79//58
f 76//58 79//58 75//58
f 73//59 77//59 80//59
f 73//59 80//59 76//59
f 74//60 75//60 79//60
f 74//60 79//60 78//60
o Table_beam_left
v -0.910320 0.595000 -0.250000
v 0.910320 0.595000 -0.250000
v 0.910320 0.625000 -0.250000
v -0.910320 0.625000 -0.250000
v -0.910320 0.595000 -0.220000
v 0.910320 0.595000 -0.220000
v 0.910320 0.625000 -0.220000
v -0.910320 0.625000 -0.220000
vn -0.0000 -0.0000 -1.0000
vn -0.0000 -0.0000 1.0000
vn -0.0000 -1.0000 -0.0000
vn -0.0000 1.0000 -0.0000
vn -1.0000 -0.0000 -0.0000
vn 1.0000 -0.0000 -0.0000
s 1
usemtl metal_dark
f 81//61 84//61 83//61
f 81//61 83//61 82//61
f 85//62 86//62 87//62
f 85//62 87//62 88//62
f 81//63 82//63 86//63
f 81//63 86//63 85//63
f 84//64 88//64 87//64
f 84//64 87//64 83//64
f 81//65 85//65 88//65
f 81//65 88//65 84//65
f 82//66 83//66 87//66
f 82//66 87//66 86//66
o Table_beam_right
v -0.910320 0.595000 0.220000
v 0.910320 0.595000 0.220000
v 0.910320 0.625000 0.220000
v -0.910320 0.625000 0.220000
v -0.910320 0.595000 0.250000
v 0.910320 0.595000 0.250000
v 0.910320 0.625000 0.250000
v -0.910320 0.625000 0.250000
vn -0.0000 -0.0000 -1.0000
vn -0.0000 -0.0000 1.0000
vn -0.0000 -1.0000 -0.0000
vn -0.0000 1.0000 -0.0000
vn -1.0000 -0.0000 -0.0000
vn 1.0000 -0.0000 -0.0000
s 1
usemtl metal_dark
f 89//67 92//67 91//67
f 89//67 91//67 90//67
f 93//68 94//68 95//68
f 93//68 95//68 96//68
f 89//69 90//69 94//69
f 89//69 94//69 93//69
f 92//70 96//70 95//70
f 92//70 95//70 91//70
f 89//71 93//71 96//71
f 89//71 96//71 92//71
f 90//72 91//72 95//72
f 90//72 95//72 94//72
o Table_cross_1
v -0.915000 0.565000 -0.235000
v -0.885000 0.565000 -0.235000
v -0.885000 0.595000 -0.235000
v -0.915000 0.595000 -0.235000
v -0.915000 0.565000 0.235000
v -0.885000 0.565000 0.235000
v -0.885000 0.595000 0.235000
v -0.915000 0.595000 0.235000
vn -0.0000 -0.0000 -1.0000
vn -0.0000 -0.0000 1.0000
vn -0.0000 -1.0000 -0.0000
vn -0.0000 1.0000 -0.0000
vn -1.0000 -0.0000 -0.0000
vn 1.0000 -0.0000 -0.0000
s 1
usemtl metal_dark
f 97//73 100//73 99//73
f 97//73 99//73 98//73
f 101//74 102//74 103//74
f 101//74 103//74 104//74
f 97//75 98//75 102//75
f 97//75 102//75 101//75
f 100//76 104//76 103//76
f 100//76 103//76 99//76
f 97//77 101//77 104//77
f 97//77 104//77 100//77
f 98//78 99//78 103//78
f 98//78 103//78 102//78
o Table_cross_3
v 0.885000 0.565000 -0.235000
v 0.915000 0.565000 -0.235000
v 0.915000 0.595000 -0.235000
v 0.885000 0.595000 -0.235000
v 0.885000 0.565000 0.235000
v 0.915000 0.565000 0.235000
v 0.915000 0.595000 0.235000
v 0.885000 0.595000 0.235000
vn -0.0000 -0.0000 -1.0000
vn -0.0000 -0.0000 1.0000
vn -0.0000 -1.0000 -0.0000
vn -0.0000 1.0000 -0.0000
vn -1.0000 -0.0000 -0.0000
vn 1.0000 -0.0000 -0.0000
s 1
usemtl metal_dark
f 105//79 108//79 107//79
f 105//79 107//79 106//79
f 109//80 110//80 111//80
f 109//80 111//80 112//80
f 105//81 106//81 110//81
f 105//81 110//81 109//81
f 108//82 112//82 111//82
f 108//82 111//82 107//82
f 105//83 109//83 112//83
f 105//83 112//83 108//83
f 106//84 107//84 111//84
f 106//84 111//84 110//84
o Table_edge_strip
v -1.125000 0.774500 -0.275000
v 1.125000 0.774500 -0.275000
v 1.125000 0.782500 -0.275000
v -1.125000 0.782500 -0.275000
v -1.125000 0.774500 0.275000
v 1.125000 0.774500 0.275000
v 1.125000 0.782500 0.275000
v -1.125000 0.782500 0.275000
vn -0.0000 -0.0000 -1.0000
vn -0.0000 -0.0000 1.0000
vn -0.0000 -1.0000 -0.0000
vn -0.0000 1.0000 -0.0000
vn -1.0000 -0.0000 -0.0000
vn 1.0000 -0.0000 -0.0000
s 1
usemtl wood_dark.001
f 113//85 116//85 115//85
f 113//85 115//85 114//85
f 117//86 118//86 119//86
f 117//86 119//86 120//86
f 113//87 114//87 118//87
f 113//87 118//87 117//87
f 116//88 120//88 119//88
f 116//88 119//88 115//88
f 113//89 117//89 120//89
f 113//89 120//89 116//89
f 114//90 115//90 119//90
f 114//90 119//90 118//90
o Table_leg_L_1
v -0.920000 -0.000000 -0.255000
v -0.880000 -0.000000 -0.255000
v -0.880000 0.760000 -0.255000
v -0.920000 0.760000 -0.255000
v -0.920000 -0.000000 -0.215000
v -0.880000 -0.000000 -0.215000
v -0.880000 0.760000 -0.215000
v -0.920000 0.760000 -0.215000
vn -0.0000 -0.0000 -1.0000
vn -0.0000 -0.0000 1.0000
vn -0.0000 -1.0000 -0.0000
vn -0.0000 1.0000 -0.0000
vn -1.0000 -0.0000 -0.0000
vn 1.0000 -0.0000 -0.0000
s 1
usemtl metal.001
f 121//91 124//91 123//91
f 121//91 123//91 122//91
f 125//92 126//92 127//92
f 125//92 127//92 128//92
f 121//93 122//93 126//93
f 121//93 126//93 125//93
f 124//94 128//94 127//94
f 124//94 127//94 123//94
f 121//95 125//95 128//95
f 121//95 128//95 124//95
f 122//96 123//96 127//96
f 122//96 127//96 126//96
o Table_leg_L_3
v 0.880000 -0.000000 -0.255000
v 0.920000 -0.000000 -0.255000
v 0.920000 0.760000 -0.255000
v 0.880000 0.760000 -0.255000
v 0.880000 -0.000000 -0.215000
v 0.920000 -0.000000 -0.215000
v 0.920000 0.760000 -0.215000
v 0.880000 0.760000 -0.215000
vn -0.0000 -0.0000 -1.0000
vn -0.0000 -0.0000 1.0000
vn -0.0000 -1.0000 -0.0000
vn -0.0000 1.0000 -0.0000
vn -1.0000 -0.0000 -0.0000
vn 1.0000 -0.0000 -0.0000
s 1
usemtl metal.001
f 129//97 132//97 131//97
f 129//97 131//97 130//97
f 133//98 134//98 135//98
f 133//98 135//98 136//98
f 129//99 130//99 134//99
f 129//99 134//99 133//99
f 132//100 136//100 135//100
f 132//100 135//100 131//100
f 129//101 133//101 136//101
f 129//101 136//101 132//101
f 130//102 131//102 135//102
f 130//102 135//102 134//102
o Table_leg_R_1
v -0.920000 0.000000 0.215000
v -0.880000 0.000000 0.215000
v -0.880000 0.760000 0.215000
v -0.920000 0.760000 0.215000
v -0.920000 0.000000 0.255000
v -0.880000 0.000000 0.255000
v -0.880000 0.760000 0.255000
v -0.920000 0.760000 0.255000
vn -0.0000 -0.0000 -1.0000
vn -0.0000 -0.0000 1.0000
vn -0.0000 -1.0000 -0.0000
vn -0.0000 1.0000 -0.0000
vn -1.0000 -0.0000 -0.0000
vn 1.0000 -0.0000 -0.0000
s 1
usemtl metal.001
f 137//103 140//103 139//103
f 137//103 139//103 138//103
f 141//104 142//104 143//104
f 141//104 143//104 144//104
f 137//105 138//105 142//105
f 137//105 142//105 141//105
f 140//106 144//106 143//106
f 140//106 143//106 139//106
f 137//107 141//107 144//107
f 137//107 144//107 140//107
f 138//108 139//108 143//108
f 138//108 143//108 142//108
o Table_leg_R_3
v 0.880000 0.000000 0.215000
v 0.920000 0.000000 0.215000
v 0.920000 0.760000 0.215000
v 0.880000 0.760000 0.215000
v 0.880000 0.000000 0.255000
v 0.920000 0.000000 0.255000
v 0.920000 0.760000 0.255000
v 0.880000 0.760000 0.255000
vn -0.0000 -0.0000 -1.0000
vn -0.0000 -0.0000 1.0000
vn -0.0000 -1.0000 -0.0000
vn -0.0000 1.0000 -0.0000
vn -1.0000 -0.0000 -0.0000
vn 1.0000 -0.0000 -0.0000
s 1
usemtl metal.001
f 145//109 148//109 147//109
f 145//109 147//109 146//109
f 149//110 150//110 151//110
f 149//110 151//110 152//110
f 145//111 146//111 150//111
f 145//111 150//111 149//111
f 148//112 152//112 151//112
f 148//112 151//112 147//112
f 145//113 149//113 152//113
f 145//113 152//113 148//113
f 146//114 147//114 151//114
f 146//114 151//114 150//114
o Table_top
v -1.125000 0.742500 -0.275000
v 1.125000 0.742500 -0.275000
v 1.125000 0.777500 -0.275000
v -1.125000 0.777500 -0.275000
v -1.125000 0.742500 0.275000
v 1.125000 0.742500 0.275000
v 1.125000 0.777500 0.275000
v -1.125000 0.777500 0.275000
vn -0.0000 -0.0000 -1.0000
vn -0.0000 -0.0000 1.0000
vn -0.0000 -1.0000 -0.0000
vn -0.0000 1.0000 -0.0000
vn -1.0000 -0.0000 -0.0000
vn 1.0000 -0.0000 -0.0000
s 1
usemtl wood.001
f 153//115 156//115 155//115
f 153//115 155//115 154//115
f 157//116 158//116 159//116
f 157//116 159//116 160//116
f 153//117 154//117 158//117
f 153//117 158//117 157//117
f 156//118 160//118 159//118
f 156//118 159//118 155//118
f 153//119 157//119 160//119
f 153//119 160//119 156//119
f 154//120 155//120 159//120
f 154//120 159//120 158//120
