# Linear LED light for Unity
# Unit: meters, Y-up
mtllib linear_led_light.mtl

v -0.600000 -0.013000 -0.045000
v 0.600000 -0.013000 -0.045000
v 0.600000 0.013000 -0.045000
v -0.600000 0.013000 -0.045000
v -0.600000 -0.013000 0.045000
v 0.600000 -0.013000 0.045000
v 0.600000 0.013000 0.045000
v -0.600000 0.013000 0.045000
v -0.600000 -0.000320 -0.044000
v 0.600000 -0.000320 -0.044000
v 0.600000 0.009680 -0.044000
v -0.600000 0.009680 -0.044000
v -0.600000 -0.000320 -0.034000
v 0.600000 -0.000320 -0.034000
v 0.600000 0.009680 -0.034000
v -0.600000 0.009680 -0.034000
v -0.600000 -0.000320 0.034000
v 0.600000 -0.000320 0.034000
v 0.600000 0.009680 0.034000
v -0.600000 0.009680 0.034000
v -0.600000 -0.000320 0.044000
v 0.600000 -0.000320 0.044000
v 0.600000 0.009680 0.044000
v -0.600000 0.009680 0.044000
v -0.586000 0.011000 -0.036000
v -0.586000 0.017676 -0.035097
v -0.586000 0.024017 -0.032435
v -0.586000 0.029705 -0.028146
v -0.586000 0.034455 -0.022446
v -0.586000 0.038029 -0.015620
v -0.586000 0.040248 -0.008011
v -0.586000 0.041000 0.000000
v -0.586000 0.040248 0.008011
v -0.586000 0.038029 0.015620
v -0.586000 0.034455 0.022446
v -0.586000 0.029705 0.028146
v -0.586000 0.024017 0.032435
v -0.586000 0.017676 0.035097
v -0.586000 0.011000 0.036000
v -0.586000 0.010000 0.030000
v -0.586000 0.010000 -0.030000
v 0.586000 0.011000 -0.036000
v 0.586000 0.017676 -0.035097
v 0.586000 0.024017 -0.032435
v 0.586000 0.029705 -0.028146
v 0.586000 0.034455 -0.022446
v 0.586000 0.038029 -0.015620
v 0.586000 0.040248 -0.008011
v 0.586000 0.041000 0.000000
v 0.586000 0.040248 0.008011
v 0.586000 0.038029 0.015620
v 0.586000 0.034455 0.022446
v 0.586000 0.029705 0.028146
v 0.586000 0.024017 0.032435
v 0.586000 0.017676 0.035097
v 0.586000 0.011000 0.036000
v 0.586000 0.010000 0.030000
v 0.586000 0.010000 -0.030000
v -0.586000 0.026545 0.000000
v 0.586000 0.026545 0.000000
v -0.600000 -0.004000 -0.045000
v -0.586000 -0.004000 -0.045000
v -0.586000 0.049000 -0.045000
v -0.600000 0.049000 -0.045000
v -0.600000 -0.004000 0.045000
v -0.586000 -0.004000 0.045000
v -0.586000 0.049000 0.045000
v -0.600000 0.049000 0.045000
v 0.586000 -0.004000 -0.045000
v 0.600000 -0.004000 -0.045000
v 0.600000 0.049000 -0.045000
v 0.586000 0.049000 -0.045000
v 0.586000 -0.004000 0.045000
v 0.600000 -0.004000 0.045000
v 0.600000 0.049000 0.045000
v 0.586000 0.049000 0.045000
v -0.600000 0.010000 -0.041000
v -0.600000 0.017143 -0.039603
v -0.600000 0.023800 -0.035507
v -0.600000 0.029516 -0.028991
v -0.600000 0.033902 -0.020500
v -0.600000 0.036660 -0.010612
v -0.600000 0.037600 0.000000
v -0.600000 0.036660 0.010612
v -0.600000 0.033902 0.020500
v -0.600000 0.029516 0.028991
v -0.600000 0.023800 0.035507
v -0.600000 0.017143 0.039603
v -0.600000 0.010000 0.041000
v -0.600000 0.009000 0.041000
v -0.600000 0.009000 -0.041000
v -0.586700 0.010000 -0.041000
v -0.586700 0.017143 -0.039603
v -0.586700 0.023800 -0.035507
v -0.586700 0.029516 -0.028991
v -0.586700 0.033902 -0.020500
v -0.586700 0.036660 -0.010612
v -0.586700 0.037600 0.000000
v -0.586700 0.036660 0.010612
v -0.586700 0.033902 0.020500
v -0.586700 0.029516 0.028991
v -0.586700 0.023800 0.035507
v -0.586700 0.017143 0.039603
v -0.586700 0.010000 0.041000
v -0.586700 0.009000 0.041000
v -0.586700 0.009000 -0.041000
v -0.600000 0.023843 -0.000000
v -0.586700 0.023843 -0.000000
v 0.586700 0.010000 -0.041000
v 0.586700 0.017143 -0.039603
v 0.586700 0.023800 -0.035507
v 0.586700 0.029516 -0.028991
v 0.586700 0.033902 -0.020500
v 0.586700 0.036660 -0.010612
v 0.586700 0.037600 0.000000
v 0.586700 0.036660 0.010612
v 0.586700 0.033902 0.020500
v 0.586700 0.029516 0.028991
v 0.586700 0.023800 0.035507
v 0.586700 0.017143 0.039603
v 0.586700 0.010000 0.041000
v 0.586700 0.009000 0.041000
v 0.586700 0.009000 -0.041000
v 0.600000 0.010000 -0.041000
v 0.600000 0.017143 -0.039603
v 0.600000 0.023800 -0.035507
v 0.600000 0.029516 -0.028991
v 0.600000 0.033902 -0.020500
v 0.600000 0.036660 -0.010612
v 0.600000 0.037600 0.000000
v 0.600000 0.036660 0.010612
v 0.600000 0.033902 0.020500
v 0.600000 0.029516 0.028991
v 0.600000 0.023800 0.035507
v 0.600000 0.017143 0.039603
v 0.600000 0.010000 0.041000
v 0.600000 0.009000 0.041000
v 0.600000 0.009000 -0.041000
v 0.586700 0.023843 -0.000000
v 0.600000 0.023843 -0.000000
v -0.592500 -0.007000 -0.009000
v -0.587500 -0.007000 -0.009000
v -0.587500 0.003000 -0.009000
v -0.592500 0.003000 -0.009000
v -0.592500 -0.007000 0.009000
v -0.587500 -0.007000 0.009000
v -0.587500 0.003000 0.009000
v -0.592500 0.003000 0.009000

vn 0.000000 0.000000 -1.000000
vn 0.000000 0.000000 -1.000000
vn 0.000000 0.000000 1.000000
vn 0.000000 0.000000 1.000000
vn 0.000000 -1.000000 0.000000
vn 0.000000 -1.000000 0.000000
vn 0.000000 1.000000 0.000000
vn 0.000000 1.000000 0.000000
vn -1.000000 0.000000 0.000000
vn -1.000000 0.000000 0.000000
vn 1.000000 0.000000 0.000000
vn 1.000000 0.000000 0.000000
vn 0.000000 0.000000 -1.000000
vn 0.000000 0.000000 -1.000000
vn 0.000000 0.000000 1.000000
vn 0.000000 0.000000 1.000000
vn 0.000000 -1.000000 0.000000
vn 0.000000 -1.000000 0.000000
vn 0.000000 1.000000 0.000000
vn 0.000000 1.000000 0.000000
vn -1.000000 0.000000 0.000000
vn -1.000000 0.000000 0.000000
vn 1.000000 0.000000 0.000000
vn 1.000000 0.000000 0.000000
vn 0.000000 0.000000 -1.000000
vn 0.000000 0.000000 -1.000000
vn 0.000000 0.000000 1.000000
vn 0.000000 0.000000 1.000000
vn 0.000000 -1.000000 0.000000
vn 0.000000 -1.000000 0.000000
vn 0.000000 1.000000 0.000000
vn 0.000000 1.000000 0.000000
vn -1.000000 0.000000 0.000000
vn -1.000000 0.000000 0.000000
vn 1.000000 0.000000 0.000000
vn 1.000000 0.000000 0.000000
vn 0.000000 0.133988 -0.990983
vn 0.000000 0.133988 -0.990983
vn 0.000000 0.387153 -0.922016
vn 0.000000 0.387153 -0.922016
vn 0.000000 0.602047 -0.798461
vn 0.000000 0.602047 -0.798461
vn 0.000000 0.768221 -0.640184
vn 0.000000 0.768221 -0.640184
vn 0.000000 0.885901 -0.463874
vn 0.000000 0.885901 -0.463874
vn 0.000000 0.960018 -0.279937
vn 0.000000 0.960018 -0.279937
vn 0.000000 0.995621 -0.093483
vn 0.000000 0.995621 -0.093483
vn -0.000000 0.995621 0.093483
vn 0.000000 0.995621 0.093483
vn -0.000000 0.960018 0.279937
vn 0.000000 0.960018 0.279937
vn -0.000000 0.885901 0.463874
vn 0.000000 0.885901 0.463874
vn -0.000000 0.768221 0.640184
vn 0.000000 0.768221 0.640184
vn -0.000000 0.602047 0.798461
vn 0.000000 0.602047 0.798461
vn -0.000000 0.387153 0.922016
vn 0.000000 0.387153 0.922016
vn -0.000000 0.133988 0.990983
vn 0.000000 0.133988 0.990983
vn 0.000000 -0.986394 0.164399
vn 0.000000 -0.986394 0.164399
vn 0.000000 -1.000000 0.000000
vn 0.000000 -1.000000 0.000000
vn 0.000000 -0.986394 -0.164399
vn 0.000000 -0.986394 -0.164399
vn -1.000000 0.000000 0.000000
vn 1.000000 0.000000 0.000000
vn -1.000000 0.000000 0.000000
vn 1.000000 0.000000 0.000000
vn -1.000000 0.000000 -0.000000
vn 1.000000 0.000000 0.000000
vn -1.000000 0.000000 0.000000
vn 1.000000 0.000000 0.000000
vn -1.000000 0.000000 0.000000
vn 1.000000 0.000000 0.000000
vn -1.000000 0.000000 0.000000
vn 1.000000 0.000000 0.000000
vn -1.000000 0.000000 0.000000
vn 1.000000 -0.000000 0.000000
vn -1.000000 0.000000 0.000000
vn 1.000000 0.000000 0.000000
vn -1.000000 0.000000 0.000000
vn 1.000000 0.000000 0.000000
vn -1.000000 0.000000 0.000000
vn 1.000000 0.000000 0.000000
vn -1.000000 0.000000 0.000000
vn 1.000000 0.000000 0.000000
vn -1.000000 0.000000 0.000000
vn 1.000000 0.000000 -0.000000
vn -1.000000 0.000000 0.000000
vn 1.000000 0.000000 0.000000
vn -1.000000 0.000000 0.000000
vn 1.000000 0.000000 0.000000
vn -1.000000 0.000000 0.000000
vn 1.000000 0.000000 0.000000
vn -1.000000 -0.000000 0.000000
vn 1.000000 0.000000 0.000000
vn -1.000000 0.000000 0.000000
vn 1.000000 0.000000 0.000000
vn 0.000000 0.000000 -1.000000
vn 0.000000 0.000000 -1.000000
vn 0.000000 0.000000 1.000000
vn 0.000000 0.000000 1.000000
vn 0.000000 -1.000000 0.000000
vn 0.000000 -1.000000 0.000000
vn 0.000000 1.000000 0.000000
vn 0.000000 1.000000 0.000000
vn -1.000000 0.000000 0.000000
vn -1.000000 0.000000 0.000000
vn 1.000000 0.000000 0.000000
vn 1.000000 0.000000 0.000000
vn 0.000000 0.000000 -1.000000
vn 0.000000 0.000000 -1.000000
vn 0.000000 0.000000 1.000000
vn 0.000000 0.000000 1.000000
vn 0.000000 -1.000000 0.000000
vn 0.000000 -1.000000 0.000000
vn 0.000000 1.000000 0.000000
vn 0.000000 1.000000 0.000000
vn -1.000000 0.000000 0.000000
vn -1.000000 0.000000 0.000000
vn 1.000000 0.000000 0.000000
vn 1.000000 0.000000 0.000000
vn 0.000000 0.191935 -0.981408
vn 0.000000 0.191935 -0.981408
vn 0.000000 0.524056 -0.851684
vn 0.000000 0.524056 -0.851684
vn 0.000000 0.751722 -0.659480
vn 0.000000 0.751722 -0.659480
vn 0.000000 0.888471 -0.458933
vn 0.000000 0.888471 -0.458933
vn 0.000000 0.963254 -0.268590
vn 0.000000 0.963254 -0.268590
vn 0.000000 0.996096 -0.088279
vn 0.000000 0.996096 -0.088279
vn -0.000000 0.996096 0.088279
vn 0.000000 0.996096 0.088279
vn -0.000000 0.963254 0.268590
vn 0.000000 0.963254 0.268590
vn -0.000000 0.888471 0.458933
vn 0.000000 0.888471 0.458933
vn -0.000000 0.751722 0.659480
vn 0.000000 0.751722 0.659480
vn -0.000000 0.524056 0.851684
vn 0.000000 0.524056 0.851684
vn -0.000000 0.191935 0.981408
vn 0.000000 0.191935 0.981408
vn -0.000000 0.000000 1.000000
vn 0.000000 0.000000 1.000000
vn 0.000000 -1.000000 0.000000
vn 0.000000 -1.000000 0.000000
vn 0.000000 0.000000 -1.000000
vn 0.000000 0.000000 -1.000000
vn -1.000000 0.000000 0.000000
vn 1.000000 0.000000 0.000000
vn -1.000000 0.000000 0.000000
vn 1.000000 0.000000 0.000000
vn -1.000000 0.000000 -0.000000
vn 1.000000 0.000000 0.000000
vn -1.000000 0.000000 0.000000
vn 1.000000 0.000000 0.000000
vn -1.000000 0.000000 0.000000
vn 1.000000 0.000000 0.000000
vn -1.000000 0.000000 0.000000
vn 1.000000 -0.000000 0.000000
vn -1.000000 0.000000 0.000000
vn 1.000000 0.000000 0.000000
vn -1.000000 0.000000 0.000000
vn 1.000000 0.000000 0.000000
vn -1.000000 0.000000 0.000000
vn 1.000000 0.000000 0.000000
vn -1.000000 0.000000 0.000000
vn 1.000000 0.000000 -0.000000
vn -1.000000 0.000000 0.000000
vn 1.000000 0.000000 0.000000
vn -1.000000 0.000000 0.000000
vn 1.000000 0.000000 0.000000
vn -1.000000 0.000000 0.000000
vn 1.000000 0.000000 0.000000
vn -1.000000 -0.000000 0.000000
vn 1.000000 0.000000 0.000000
vn -1.000000 0.000000 0.000000
vn 1.000000 0.000000 0.000000
vn 0.000000 0.191935 -0.981408
vn 0.000000 0.191935 -0.981408
vn 0.000000 0.524056 -0.851684
vn 0.000000 0.524056 -0.851684
vn 0.000000 0.751722 -0.659480
vn 0.000000 0.751722 -0.659480
vn 0.000000 0.888471 -0.458933
vn 0.000000 0.888471 -0.458933
vn 0.000000 0.963254 -0.268590
vn 0.000000 0.963254 -0.268590
vn 0.000000 0.996096 -0.088279
vn 0.000000 0.996096 -0.088279
vn -0.000000 0.996096 0.088279
vn 0.000000 0.996096 0.088279
vn -0.000000 0.963254 0.268590
vn 0.000000 0.963254 0.268590
vn -0.000000 0.888471 0.458933
vn 0.000000 0.888471 0.458933
vn -0.000000 0.751722 0.659480
vn 0.000000 0.751722 0.659480
vn -0.000000 0.524056 0.851684
vn 0.000000 0.524056 0.851684
vn -0.000000 0.191935 0.981408
vn 0.000000 0.191935 0.981408
vn -0.000000 0.000000 1.000000
vn 0.000000 0.000000 1.000000
vn 0.000000 -1.000000 0.000000
vn 0.000000 -1.000000 0.000000
vn 0.000000 0.000000 -1.000000
vn 0.000000 0.000000 -1.000000
vn -1.000000 0.000000 0.000000
vn 1.000000 0.000000 0.000000
vn -1.000000 0.000000 0.000000
vn 1.000000 0.000000 0.000000
vn -1.000000 0.000000 -0.000000
vn 1.000000 0.000000 0.000000
vn -1.000000 0.000000 0.000000
vn 1.000000 0.000000 0.000000
vn -1.000000 0.000000 0.000000
vn 1.000000 0.000000 0.000000
vn -1.000000 0.000000 0.000000
vn 1.000000 -0.000000 0.000000
vn -1.000000 0.000000 0.000000
vn 1.000000 0.000000 0.000000
vn -1.000000 0.000000 0.000000
vn 1.000000 0.000000 0.000000
vn -1.000000 0.000000 0.000000
vn 1.000000 0.000000 0.000000
vn -1.000000 0.000000 0.000000
vn 1.000000 0.000000 -0.000000
vn -1.000000 0.000000 0.000000
vn 1.000000 0.000000 0.000000
vn -1.000000 0.000000 0.000000
vn 1.000000 0.000000 0.000000
vn -1.000000 0.000000 0.000000
vn 1.000000 0.000000 0.000000
vn -1.000000 -0.000000 0.000000
vn 1.000000 0.000000 0.000000
vn -1.000000 0.000000 0.000000
vn 1.000000 0.000000 0.000000
vn 0.000000 0.000000 -1.000000
vn 0.000000 0.000000 -1.000000
vn 0.000000 0.000000 1.000000
vn 0.000000 0.000000 1.000000
vn 0.000000 -1.000000 0.000000
vn 0.000000 -1.000000 0.000000
vn 0.000000 1.000000 0.000000
vn 0.000000 1.000000 0.000000
vn -1.000000 0.000000 0.000000
vn -1.000000 0.000000 0.000000
vn 1.000000 0.000000 0.000000
vn 1.000000 0.000000 0.000000


o Body_base
usemtl body_white
f 1//1 4//1 3//1
f 1//2 3//2 2//2
f 5//3 6//3 7//3
f 5//4 7//4 8//4
f 1//5 2//5 6//5
f 1//6 6//6 5//6
f 4//7 8//7 7//7
f 4//8 7//8 3//8
f 1//9 5//9 8//9
f 1//10 8//10 4//10
f 2//11 3//11 7//11
f 2//12 7//12 6//12

o Rail_left
usemtl body_shadow
f 9//13 12//13 11//13
f 9//14 11//14 10//14
f 13//15 14//15 15//15
f 13//16 15//16 16//16
f 9//17 10//17 14//17
f 9//18 14//18 13//18
f 12//19 16//19 15//19
f 12//20 15//20 11//20
f 9//21 13//21 16//21
f 9//22 16//22 12//22
f 10//23 11//23 15//23
f 10//24 15//24 14//24

o Rail_right
usemtl body_shadow
f 17//25 20//25 19//25
f 17//26 19//26 18//26
f 21//27 22//27 23//27
f 21//28 23//28 24//28
f 17//29 18//29 22//29
f 17//30 22//30 21//30
f 20//31 24//31 23//31
f 20//32 23//32 19//32
f 17//33 21//33 24//33
f 17//34 24//34 20//34
f 18//35 19//35 23//35
f 18//36 23//36 22//36

o Diffuser
usemtl diffuser_white
f 25//37 43//37 42//37
f 25//38 26//38 43//38
f 26//39 44//39 43//39
f 26//40 27//40 44//40
f 27//41 45//41 44//41
f 27//42 28//42 45//42
f 28//43 46//43 45//43
f 28//44 29//44 46//44
f 29//45 47//45 46//45
f 29//46 30//46 47//46
f 30//47 48//47 47//47
f 30//48 31//48 48//48
f 31//49 49//49 48//49
f 31//50 32//50 49//50
f 32//51 50//51 49//51
f 32//52 33//52 50//52
f 33//53 51//53 50//53
f 33//54 34//54 51//54
f 34//55 52//55 51//55
f 34//56 35//56 52//56
f 35//57 53//57 52//57
f 35//58 36//58 53//58
f 36//59 54//59 53//59
f 36//60 37//60 54//60
f 37//61 55//61 54//61
f 37//62 38//62 55//62
f 38//63 56//63 55//63
f 38//64 39//64 56//64
f 39//65 57//65 56//65
f 39//66 40//66 57//66
f 40//67 58//67 57//67
f 40//68 41//68 58//68
f 41//69 42//69 58//69
f 41//70 25//70 42//70

o Diffuser_cap0
usemtl diffuser_white
f 59//71 26//71 25//71

o Diffuser_cap1
usemtl diffuser_white
f 60//72 42//72 43//72

o Diffuser_cap0
usemtl diffuser_white
f 59//73 27//73 26//73

o Diffuser_cap1
usemtl diffuser_white
f 60//74 43//74 44//74

o Diffuser_cap0
usemtl diffuser_white
f 59//75 28//75 27//75

o Diffuser_cap1
usemtl diffuser_white
f 60//76 44//76 45//76

o Diffuser_cap0
usemtl diffuser_white
f 59//77 29//77 28//77

o Diffuser_cap1
usemtl diffuser_white
f 60//78 45//78 46//78

o Diffuser_cap0
usemtl diffuser_white
f 59//79 30//79 29//79

o Diffuser_cap1
usemtl diffuser_white
f 60//80 46//80 47//80

o Diffuser_cap0
usemtl diffuser_white
f 59//81 31//81 30//81

o Diffuser_cap1
usemtl diffuser_white
f 60//82 47//82 48//82

o Diffuser_cap0
usemtl diffuser_white
f 59//83 32//83 31//83

o Diffuser_cap1
usemtl diffuser_white
f 60//84 48//84 49//84

o Diffuser_cap0
usemtl diffuser_white
f 59//85 33//85 32//85

o Diffuser_cap1
usemtl diffuser_white
f 60//86 49//86 50//86

o Diffuser_cap0
usemtl diffuser_white
f 59//87 34//87 33//87

o Diffuser_cap1
usemtl diffuser_white
f 60//88 50//88 51//88

o Diffuser_cap0
usemtl diffuser_white
f 59//89 35//89 34//89

o Diffuser_cap1
usemtl diffuser_white
f 60//90 51//90 52//90

o Diffuser_cap0
usemtl diffuser_white
f 59//91 36//91 35//91

o Diffuser_cap1
usemtl diffuser_white
f 60//92 52//92 53//92

o Diffuser_cap0
usemtl diffuser_white
f 59//93 37//93 36//93

o Diffuser_cap1
usemtl diffuser_white
f 60//94 53//94 54//94

o Diffuser_cap0
usemtl diffuser_white
f 59//95 38//95 37//95

o Diffuser_cap1
usemtl diffuser_white
f 60//96 54//96 55//96

o Diffuser_cap0
usemtl diffuser_white
f 59//97 39//97 38//97

o Diffuser_cap1
usemtl diffuser_white
f 60//98 55//98 56//98

o Diffuser_cap0
usemtl diffuser_white
f 59//99 40//99 39//99

o Diffuser_cap1
usemtl diffuser_white
f 60//100 56//100 57//100

o Diffuser_cap0
usemtl diffuser_white
f 59//101 41//101 40//101

o Diffuser_cap1
usemtl diffuser_white
f 60//102 57//102 58//102

o Diffuser_cap0
usemtl diffuser_white
f 59//103 25//103 41//103

o Diffuser_cap1
usemtl diffuser_white
f 60//104 58//104 42//104

o EndCap_left
usemtl body_white
f 61//105 64//105 63//105
f 61//106 63//106 62//106
f 65//107 66//107 67//107
f 65//108 67//108 68//108
f 61//109 62//109 66//109
f 61//110 66//110 65//110
f 64//111 68//111 67//111
f 64//112 67//112 63//112
f 61//113 65//113 68//113
f 61//114 68//114 64//114
f 62//115 63//115 67//115
f 62//116 67//116 66//116

o EndCap_right
usemtl body_white
f 69//117 72//117 71//117
f 69//118 71//118 70//118
f 73//119 74//119 75//119
f 73//120 75//120 76//120
f 69//121 70//121 74//121
f 69//122 74//122 73//122
f 72//123 76//123 75//123
f 72//124 75//124 71//124
f 69//125 73//125 76//125
f 69//126 76//126 72//126
f 70//127 71//127 75//127
f 70//128 75//128 74//128

o EndCapCover_left
usemtl body_white
f 77//129 93//129 92//129
f 77//130 78//130 93//130
f 78//131 94//131 93//131
f 78//132 79//132 94//132
f 79//133 95//133 94//133
f 79//134 80//134 95//134
f 80//135 96//135 95//135
f 80//136 81//136 96//136
f 81//137 97//137 96//137
f 81//138 82//138 97//138
f 82//139 98//139 97//139
f 82//140 83//140 98//140
f 83//141 99//141 98//141
f 83//142 84//142 99//142
f 84//143 100//143 99//143
f 84//144 85//144 100//144
f 85//145 101//145 100//145
f 85//146 86//146 101//146
f 86//147 102//147 101//147
f 86//148 87//148 102//148
f 87//149 103//149 102//149
f 87//150 88//150 103//150
f 88//151 104//151 103//151
f 88//152 89//152 104//152
f 89//153 105//153 104//153
f 89//154 90//154 105//154
f 90//155 106//155 105//155
f 90//156 91//156 106//156
f 91//157 92//157 106//157
f 91//158 77//158 92//158

o EndCapCover_left_cap0
usemtl body_white
f 107//159 78//159 77//159

o EndCapCover_left_cap1
usemtl body_white
f 108//160 92//160 93//160

o EndCapCover_left_cap0
usemtl body_white
f 107//161 79//161 78//161

o EndCapCover_left_cap1
usemtl body_white
f 108//162 93//162 94//162

o EndCapCover_left_cap0
usemtl body_white
f 107//163 80//163 79//163

o EndCapCover_left_cap1
usemtl body_white
f 108//164 94//164 95//164

o EndCapCover_left_cap0
usemtl body_white
f 107//165 81//165 80//165

o EndCapCover_left_cap1
usemtl body_white
f 108//166 95//166 96//166

o EndCapCover_left_cap0
usemtl body_white
f 107//167 82//167 81//167

o EndCapCover_left_cap1
usemtl body_white
f 108//168 96//168 97//168

o EndCapCover_left_cap0
usemtl body_white
f 107//169 83//169 82//169

o EndCapCover_left_cap1
usemtl body_white
f 108//170 97//170 98//170

o EndCapCover_left_cap0
usemtl body_white
f 107//171 84//171 83//171

o EndCapCover_left_cap1
usemtl body_white
f 108//172 98//172 99//172

o EndCapCover_left_cap0
usemtl body_white
f 107//173 85//173 84//173

o EndCapCover_left_cap1
usemtl body_white
f 108//174 99//174 100//174

o EndCapCover_left_cap0
usemtl body_white
f 107//175 86//175 85//175

o EndCapCover_left_cap1
usemtl body_white
f 108//176 100//176 101//176

o EndCapCover_left_cap0
usemtl body_white
f 107//177 87//177 86//177

o EndCapCover_left_cap1
usemtl body_white
f 108//178 101//178 102//178

o EndCapCover_left_cap0
usemtl body_white
f 107//179 88//179 87//179

o EndCapCover_left_cap1
usemtl body_white
f 108//180 102//180 103//180

o EndCapCover_left_cap0
usemtl body_white
f 107//181 89//181 88//181

o EndCapCover_left_cap1
usemtl body_white
f 108//182 103//182 104//182

o EndCapCover_left_cap0
usemtl body_white
f 107//183 90//183 89//183

o EndCapCover_left_cap1
usemtl body_white
f 108//184 104//184 105//184

o EndCapCover_left_cap0
usemtl body_white
f 107//185 91//185 90//185

o EndCapCover_left_cap1
usemtl body_white
f 108//186 105//186 106//186

o EndCapCover_left_cap0
usemtl body_white
f 107//187 77//187 91//187

o EndCapCover_left_cap1
usemtl body_white
f 108//188 106//188 92//188

o EndCapCover_right
usemtl body_white
f 109//189 125//189 124//189
f 109//190 110//190 125//190
f 110//191 126//191 125//191
f 110//192 111//192 126//192
f 111//193 127//193 126//193
f 111//194 112//194 127//194
f 112//195 128//195 127//195
f 112//196 113//196 128//196
f 113//197 129//197 128//197
f 113//198 114//198 129//198
f 114//199 130//199 129//199
f 114//200 115//200 130//200
f 115//201 131//201 130//201
f 115//202 116//202 131//202
f 116//203 132//203 131//203
f 116//204 117//204 132//204
f 117//205 133//205 132//205
f 117//206 118//206 133//206
f 118//207 134//207 133//207
f 118//208 119//208 134//208
f 119//209 135//209 134//209
f 119//210 120//210 135//210
f 120//211 136//211 135//211
f 120//212 121//212 136//212
f 121//213 137//213 136//213
f 121//214 122//214 137//214
f 122//215 138//215 137//215
f 122//216 123//216 138//216
f 123//217 124//217 138//217
f 123//218 109//218 124//218

o EndCapCover_right_cap0
usemtl body_white
f 139//219 110//219 109//219

o EndCapCover_right_cap1
usemtl body_white
f 140//220 124//220 125//220

o EndCapCover_right_cap0
usemtl body_white
f 139//221 111//221 110//221

o EndCapCover_right_cap1
usemtl body_white
f 140//222 125//222 126//222

o EndCapCover_right_cap0
usemtl body_white
f 139//223 112//223 111//223

o EndCapCover_right_cap1
usemtl body_white
f 140//224 126//224 127//224

o EndCapCover_right_cap0
usemtl body_white
f 139//225 113//225 112//225

o EndCapCover_right_cap1
usemtl body_white
f 140//226 127//226 128//226

o EndCapCover_right_cap0
usemtl body_white
f 139//227 114//227 113//227

o EndCapCover_right_cap1
usemtl body_white
f 140//228 128//228 129//228

o EndCapCover_right_cap0
usemtl body_white
f 139//229 115//229 114//229

o EndCapCover_right_cap1
usemtl body_white
f 140//230 129//230 130//230

o EndCapCover_right_cap0
usemtl body_white
f 139//231 116//231 115//231

o EndCapCover_right_cap1
usemtl body_white
f 140//232 130//232 131//232

o EndCapCover_right_cap0
usemtl body_white
f 139//233 117//233 116//233

o EndCapCover_right_cap1
usemtl body_white
f 140//234 131//234 132//234

o EndCapCover_right_cap0
usemtl body_white
f 139//235 118//235 117//235

o EndCapCover_right_cap1
usemtl body_white
f 140//236 132//236 133//236

o EndCapCover_right_cap0
usemtl body_white
f 139//237 119//237 118//237

o EndCapCover_right_cap1
usemtl body_white
f 140//238 133//238 134//238

o EndCapCover_right_cap0
usemtl body_white
f 139//239 120//239 119//239

o EndCapCover_right_cap1
usemtl body_white
f 140//240 134//240 135//240

o EndCapCover_right_cap0
usemtl body_white
f 139//241 121//241 120//241

o EndCapCover_right_cap1
usemtl body_white
f 140//242 135//242 136//242

o EndCapCover_right_cap0
usemtl body_white
f 139//243 122//243 121//243

o EndCapCover_right_cap1
usemtl body_white
f 140//244 136//244 137//244

o EndCapCover_right_cap0
usemtl body_white
f 139//245 123//245 122//245

o EndCapCover_right_cap1
usemtl body_white
f 140//246 137//246 138//246

o EndCapCover_right_cap0
usemtl body_white
f 139//247 109//247 123//247

o EndCapCover_right_cap1
usemtl body_white
f 140//248 138//248 124//248

o Connector_slot
usemtl body_shadow
f 141//249 144//249 143//249
f 141//250 143//250 142//250
f 145//251 146//251 147//251
f 145//252 147//252 148//252
f 141//253 142//253 146//253
f 141//254 146//254 145//254
f 144//255 148//255 147//255
f 144//256 147//256 143//256
f 141//257 145//257 148//257
f 141//258 148//258 144//258
f 142//259 143//259 147//259
f 142//260 147//260 146//260
