# https://github.com/mikedh/trimesh

o tu_duoi_than_chinh
v -0.64000000 -0.23000000 0.00000000 0.71764706 0.69803922 0.64705882
v -0.64000000 -0.23000000 0.74000000 0.71764706 0.69803922 0.64705882
v -0.64000000 0.23000000 0.00000000 0.71764706 0.69803922 0.64705882
v -0.64000000 0.23000000 0.74000000 0.71764706 0.69803922 0.64705882
v 0.64000000 -0.23000000 0.00000000 0.71764706 0.69803922 0.64705882
v 0.64000000 -0.23000000 0.74000000 0.71764706 0.69803922 0.64705882
v 0.64000000 0.23000000 0.00000000 0.71764706 0.69803922 0.64705882
v 0.64000000 0.23000000 0.74000000 0.71764706 0.69803922 0.64705882
f 2 4 1
f 5 2 1
f 1 4 3
f 3 5 1
f 2 8 4
f 6 2 5
f 6 8 2
f 4 8 3
f 7 5 3
f 3 8 7
f 7 6 5
f 8 6 7

o mat_tren_tu
v -0.65000000 -0.24000000 0.73750000 0.43529412 0.41960784 0.38823529
v -0.65000000 -0.24000000 0.77250000 0.43529412 0.41960784 0.38823529
v -0.65000000 0.24000000 0.73750000 0.43529412 0.41960784 0.38823529
v -0.65000000 0.24000000 0.77250000 0.43529412 0.41960784 0.38823529
v 0.65000000 -0.24000000 0.73750000 0.43529412 0.41960784 0.38823529
v 0.65000000 -0.24000000 0.77250000 0.43529412 0.41960784 0.38823529
v 0.65000000 0.24000000 0.73750000 0.43529412 0.41960784 0.38823529
v 0.65000000 0.24000000 0.77250000 0.43529412 0.41960784 0.38823529
f 10 12 9
f 13 10 9
f 9 12 11
f 11 13 9
f 10 16 12
f 14 10 13
f 14 16 10
f 12 16 11
f 15 13 11
f 11 16 15
f 15 14 13
f 16 14 15

o chan_de_tu
v -0.67000000 -0.25000000 0.00050000 0.56078431 0.54117647 0.49411765
v -0.67000000 -0.25000000 0.05550000 0.56078431 0.54117647 0.49411765
v -0.67000000 0.25000000 0.00050000 0.56078431 0.54117647 0.49411765
v -0.67000000 0.25000000 0.05550000 0.56078431 0.54117647 0.49411765
v 0.67000000 -0.25000000 0.00050000 0.56078431 0.54117647 0.49411765
v 0.67000000 -0.25000000 0.05550000 0.56078431 0.54117647 0.49411765
v 0.67000000 0.25000000 0.00050000 0.56078431 0.54117647 0.49411765
v 0.67000000 0.25000000 0.05550000 0.56078431 0.54117647 0.49411765
f 18 20 17
f 21 18 17
f 17 20 19
f 19 21 17
f 18 24 20
f 22 18 21
f 22 24 18
f 20 24 19
f 23 21 19
f 19 24 23
f 23 22 21
f 24 22 23

o canh_tu_trai
v -0.62000000 -0.24500000 0.05500000 0.71764706 0.69803922 0.64705882
v -0.62000000 -0.24500000 0.71500000 0.71764706 0.69803922 0.64705882
v -0.62000000 -0.22700000 0.05500000 0.71764706 0.69803922 0.64705882
v -0.62000000 -0.22700000 0.71500000 0.71764706 0.69803922 0.64705882
v -0.01000000 -0.24500000 0.05500000 0.71764706 0.69803922 0.64705882
v -0.01000000 -0.24500000 0.71500000 0.71764706 0.69803922 0.64705882
v -0.01000000 -0.22700000 0.05500000 0.71764706 0.69803922 0.64705882
v -0.01000000 -0.22700000 0.71500000 0.71764706 0.69803922 0.64705882
f 26 28 25
f 29 26 25
f 25 28 27
f 27 29 25
f 26 32 28
f 30 26 29
f 30 32 26
f 28 32 27
f 31 29 27
f 27 32 31
f 31 30 29
f 32 30 31

o canh_tu_phai
v 0.01000000 -0.24500000 0.05500000 0.71764706 0.69803922 0.64705882
v 0.01000000 -0.24500000 0.71500000 0.71764706 0.69803922 0.64705882
v 0.01000000 -0.22700000 0.05500000 0.71764706 0.69803922 0.64705882
v 0.01000000 -0.22700000 0.71500000 0.71764706 0.69803922 0.64705882
v 0.62000000 -0.24500000 0.05500000 0.71764706 0.69803922 0.64705882
v 0.62000000 -0.24500000 0.71500000 0.71764706 0.69803922 0.64705882
v 0.62000000 -0.22700000 0.05500000 0.71764706 0.69803922 0.64705882
v 0.62000000 -0.22700000 0.71500000 0.71764706 0.69803922 0.64705882
f 34 36 33
f 37 34 33
f 33 36 35
f 35 37 33
f 34 40 36
f 38 34 37
f 38 40 34
f 36 40 35
f 39 37 35
f 35 40 39
f 39 38 37
f 40 38 39

o khe_giua_2_canh
v -0.00600000 -0.24950000 0.05500000 0.13333333 0.13333333 0.13333333
v -0.00600000 -0.24950000 0.71500000 0.13333333 0.13333333 0.13333333
v -0.00600000 -0.22650000 0.05500000 0.13333333 0.13333333 0.13333333
v -0.00600000 -0.22650000 0.71500000 0.13333333 0.13333333 0.13333333
v 0.00600000 -0.24950000 0.05500000 0.13333333 0.13333333 0.13333333
v 0.00600000 -0.24950000 0.71500000 0.13333333 0.13333333 0.13333333
v 0.00600000 -0.22650000 0.05500000 0.13333333 0.13333333 0.13333333
v 0.00600000 -0.22650000 0.71500000 0.13333333 0.13333333 0.13333333
f 42 44 41
f 45 42 41
f 41 44 43
f 43 45 41
f 42 48 44
f 46 42 45
f 46 48 42
f 44 48 43
f 47 45 43
f 43 48 47
f 47 46 45
f 48 46 47

o vien_duoi_canh
v -0.60000000 -0.25000000 0.05500000 0.56078431 0.54117647 0.49411765
v -0.60000000 -0.25000000 0.07500000 0.56078431 0.54117647 0.49411765
v -0.60000000 -0.22800000 0.05500000 0.56078431 0.54117647 0.49411765
v -0.60000000 -0.22800000 0.07500000 0.56078431 0.54117647 0.49411765
v 0.60000000 -0.25000000 0.05500000 0.56078431 0.54117647 0.49411765
v 0.60000000 -0.25000000 0.07500000 0.56078431 0.54117647 0.49411765
v 0.60000000 -0.22800000 0.05500000 0.56078431 0.54117647 0.49411765
v 0.60000000 -0.22800000 0.07500000 0.56078431 0.54117647 0.49411765
f 50 52 49
f 53 50 49
f 49 52 51
f 51 53 49
f 50 56 52
f 54 50 53
f 54 56 50
f 52 56 51
f 55 53 51
f 51 56 55
f 55 54 53
f 56 54 55

o tay_nam_trai
v -0.06750000 -0.25700000 0.41250000 0.13333333 0.13333333 0.13333333
v -0.06750000 -0.25700000 0.44750000 0.13333333 0.13333333 0.13333333
v -0.06750000 -0.24500000 0.41250000 0.13333333 0.13333333 0.13333333
v -0.06750000 -0.24500000 0.44750000 0.13333333 0.13333333 0.13333333
v -0.03250000 -0.25700000 0.41250000 0.13333333 0.13333333 0.13333333
v -0.03250000 -0.25700000 0.44750000 0.13333333 0.13333333 0.13333333
v -0.03250000 -0.24500000 0.41250000 0.13333333 0.13333333 0.13333333
v -0.03250000 -0.24500000 0.44750000 0.13333333 0.13333333 0.13333333
f 58 60 57
f 61 58 57
f 57 60 59
f 59 61 57
f 58 64 60
f 62 58 61
f 62 64 58
f 60 64 59
f 63 61 59
f 59 64 63
f 63 62 61
f 64 62 63

o tay_nam_phai
v 0.03250000 -0.25700000 0.41250000 0.13333333 0.13333333 0.13333333
v 0.03250000 -0.25700000 0.44750000 0.13333333 0.13333333 0.13333333
v 0.03250000 -0.24500000 0.41250000 0.13333333 0.13333333 0.13333333
v 0.03250000 -0.24500000 0.44750000 0.13333333 0.13333333 0.13333333
v 0.06750000 -0.25700000 0.41250000 0.13333333 0.13333333 0.13333333
v 0.06750000 -0.25700000 0.44750000 0.13333333 0.13333333 0.13333333
v 0.06750000 -0.24500000 0.41250000 0.13333333 0.13333333 0.13333333
v 0.06750000 -0.24500000 0.44750000 0.13333333 0.13333333 0.13333333
f 66 68 65
f 69 66 65
f 65 68 67
f 67 69 65
f 66 72 68
f 70 66 69
f 70 72 66
f 68 72 67
f 71 69 67
f 67 72 71
f 71 70 69
f 72 70 71

o lo_khoa_duoi
v -0.04250000 -0.25800000 0.18750000 0.13333333 0.13333333 0.13333333
v -0.04250000 -0.25800000 0.21250000 0.13333333 0.13333333 0.13333333
v -0.04250000 -0.24600000 0.18750000 0.13333333 0.13333333 0.13333333
v -0.04250000 -0.24600000 0.21250000 0.13333333 0.13333333 0.13333333
v -0.01750000 -0.25800000 0.18750000 0.13333333 0.13333333 0.13333333
v -0.01750000 -0.25800000 0.21250000 0.13333333 0.13333333 0.13333333
v -0.01750000 -0.24600000 0.18750000 0.13333333 0.13333333 0.13333333
v -0.01750000 -0.24600000 0.21250000 0.13333333 0.13333333 0.13333333
f 74 76 73
f 77 74 73
f 73 76 75
f 75 77 73
f 74 80 76
f 78 74 77
f 78 80 74
f 76 80 75
f 79 77 75
f 75 80 79
f 79 78 77
f 80 78 79

o hop_trang_tren_tu
v -0.16000000 -0.20000000 0.77500000 0.93333333 0.91372549 0.86274510
v -0.16000000 -0.20000000 0.95500000 0.93333333 0.91372549 0.86274510
v -0.16000000 0.02000000 0.77500000 0.93333333 0.91372549 0.86274510
v -0.16000000 0.02000000 0.95500000 0.93333333 0.91372549 0.86274510
v 0.26000000 -0.20000000 0.77500000 0.93333333 0.91372549 0.86274510
v 0.26000000 -0.20000000 0.95500000 0.93333333 0.91372549 0.86274510
v 0.26000000 0.02000000 0.77500000 0.93333333 0.91372549 0.86274510
v 0.26000000 0.02000000 0.95500000 0.93333333 0.91372549 0.86274510
f 82 84 81
f 85 82 81
f 81 84 83
f 83 85 81
f 82 88 84
f 86 82 85
f 86 88 82
f 84 88 83
f 87 85 83
f 83 88 87
f 87 86 85
f 88 86 87

o mat_truoc_hop
v -0.16000000 -0.21100000 0.78000000 0.84705882 0.83137255 0.78039216
v -0.16000000 -0.21100000 0.93000000 0.84705882 0.83137255 0.78039216
v -0.16000000 -0.19900000 0.78000000 0.84705882 0.83137255 0.78039216
v -0.16000000 -0.19900000 0.93000000 0.84705882 0.83137255 0.78039216
v 0.26000000 -0.21100000 0.78000000 0.84705882 0.83137255 0.78039216
v 0.26000000 -0.21100000 0.93000000 0.84705882 0.83137255 0.78039216
v 0.26000000 -0.19900000 0.78000000 0.84705882 0.83137255 0.78039216
v 0.26000000 -0.19900000 0.93000000 0.84705882 0.83137255 0.78039216
f 90 92 89
f 93 90 89
f 89 92 91
f 91 93 89
f 90 96 92
f 94 90 93
f 94 96 90
f 92 96 91
f 95 93 91
f 91 96 95
f 95 94 93
f 96 94 95

o khe_thong_gio_01
v -0.12500000 -0.22200000 0.83250000 0.43529412 0.41960784 0.38823529
v -0.12500000 -0.22200000 0.90750000 0.43529412 0.41960784 0.38823529
v -0.12500000 -0.20800000 0.83250000 0.43529412 0.41960784 0.38823529
v -0.12500000 -0.20800000 0.90750000 0.43529412 0.41960784 0.38823529
v -0.11500000 -0.22200000 0.83250000 0.43529412 0.41960784 0.38823529
v -0.11500000 -0.22200000 0.90750000 0.43529412 0.41960784 0.38823529
v -0.11500000 -0.20800000 0.83250000 0.43529412 0.41960784 0.38823529
v -0.11500000 -0.20800000 0.90750000 0.43529412 0.41960784 0.38823529
f 98 100 97
f 101 98 97
f 97 100 99
f 99 101 97
f 98 104 100
f 102 98 101
f 102 104 98
f 100 104 99
f 103 101 99
f 99 104 103
f 103 102 101
f 104 102 103

o khe_thong_gio_02
v -0.09900000 -0.22200000 0.83250000 0.43529412 0.41960784 0.38823529
v -0.09900000 -0.22200000 0.90750000 0.43529412 0.41960784 0.38823529
v -0.09900000 -0.20800000 0.83250000 0.43529412 0.41960784 0.38823529
v -0.09900000 -0.20800000 0.90750000 0.43529412 0.41960784 0.38823529
v -0.08900000 -0.22200000 0.83250000 0.43529412 0.41960784 0.38823529
v -0.08900000 -0.22200000 0.90750000 0.43529412 0.41960784 0.38823529
v -0.08900000 -0.20800000 0.83250000 0.43529412 0.41960784 0.38823529
v -0.08900000 -0.20800000 0.90750000 0.43529412 0.41960784 0.38823529
f 106 108 105
f 109 106 105
f 105 108 107
f 107 109 105
f 106 112 108
f 110 106 109
f 110 112 106
f 108 112 107
f 111 109 107
f 107 112 111
f 111 110 109
f 112 110 111

o khe_thong_gio_03
v -0.07300000 -0.22200000 0.83250000 0.43529412 0.41960784 0.38823529
v -0.07300000 -0.22200000 0.90750000 0.43529412 0.41960784 0.38823529
v -0.07300000 -0.20800000 0.83250000 0.43529412 0.41960784 0.38823529
v -0.07300000 -0.20800000 0.90750000 0.43529412 0.41960784 0.38823529
v -0.06300000 -0.22200000 0.83250000 0.43529412 0.41960784 0.38823529
v -0.06300000 -0.22200000 0.90750000 0.43529412 0.41960784 0.38823529
v -0.06300000 -0.20800000 0.83250000 0.43529412 0.41960784 0.38823529
v -0.06300000 -0.20800000 0.90750000 0.43529412 0.41960784 0.38823529
f 114 116 113
f 117 114 113
f 113 116 115
f 115 117 113
f 114 120 116
f 118 114 117
f 118 120 114
f 116 120 115
f 119 117 115
f 115 120 119
f 119 118 117
f 120 118 119

o khe_thong_gio_04
v -0.04700000 -0.22200000 0.83250000 0.43529412 0.41960784 0.38823529
v -0.04700000 -0.22200000 0.90750000 0.43529412 0.41960784 0.38823529
v -0.04700000 -0.20800000 0.83250000 0.43529412 0.41960784 0.38823529
v -0.04700000 -0.20800000 0.90750000 0.43529412 0.41960784 0.38823529
v -0.03700000 -0.22200000 0.83250000 0.43529412 0.41960784 0.38823529
v -0.03700000 -0.22200000 0.90750000 0.43529412 0.41960784 0.38823529
v -0.03700000 -0.20800000 0.83250000 0.43529412 0.41960784 0.38823529
v -0.03700000 -0.20800000 0.90750000 0.43529412 0.41960784 0.38823529
f 122 124 121
f 125 122 121
f 121 124 123
f 123 125 121
f 122 128 124
f 126 122 125
f 126 128 122
f 124 128 123
f 127 125 123
f 123 128 127
f 127 126 125
f 128 126 127

o khe_thong_gio_05
v -0.02100000 -0.22200000 0.83250000 0.43529412 0.41960784 0.38823529
v -0.02100000 -0.22200000 0.90750000 0.43529412 0.41960784 0.38823529
v -0.02100000 -0.20800000 0.83250000 0.43529412 0.41960784 0.38823529
v -0.02100000 -0.20800000 0.90750000 0.43529412 0.41960784 0.38823529
v -0.01100000 -0.22200000 0.83250000 0.43529412 0.41960784 0.38823529
v -0.01100000 -0.22200000 0.90750000 0.43529412 0.41960784 0.38823529
v -0.01100000 -0.20800000 0.83250000 0.43529412 0.41960784 0.38823529
v -0.01100000 -0.20800000 0.90750000 0.43529412 0.41960784 0.38823529
f 130 132 129
f 133 130 129
f 129 132 131
f 131 133 129
f 130 136 132
f 134 130 133
f 134 136 130
f 132 136 131
f 135 133 131
f 131 136 135
f 135 134 133
f 136 134 135

o khe_thong_gio_06
v 0.00500000 -0.22200000 0.83250000 0.43529412 0.41960784 0.38823529
v 0.00500000 -0.22200000 0.90750000 0.43529412 0.41960784 0.38823529
v 0.00500000 -0.20800000 0.83250000 0.43529412 0.41960784 0.38823529
v 0.00500000 -0.20800000 0.90750000 0.43529412 0.41960784 0.38823529
v 0.01500000 -0.22200000 0.83250000 0.43529412 0.41960784 0.38823529
v 0.01500000 -0.22200000 0.90750000 0.43529412 0.41960784 0.38823529
v 0.01500000 -0.20800000 0.83250000 0.43529412 0.41960784 0.38823529
v 0.01500000 -0.20800000 0.90750000 0.43529412 0.41960784 0.38823529
f 138 140 137
f 141 138 137
f 137 140 139
f 139 141 137
f 138 144 140
f 142 138 141
f 142 144 138
f 140 144 139
f 143 141 139
f 139 144 143
f 143 142 141
f 144 142 143

o khe_thong_gio_07
v 0.03100000 -0.22200000 0.83250000 0.43529412 0.41960784 0.38823529
v 0.03100000 -0.22200000 0.90750000 0.43529412 0.41960784 0.38823529
v 0.03100000 -0.20800000 0.83250000 0.43529412 0.41960784 0.38823529
v 0.03100000 -0.20800000 0.90750000 0.43529412 0.41960784 0.38823529
v 0.04100000 -0.22200000 0.83250000 0.43529412 0.41960784 0.38823529
v 0.04100000 -0.22200000 0.90750000 0.43529412 0.41960784 0.38823529
v 0.04100000 -0.20800000 0.83250000 0.43529412 0.41960784 0.38823529
v 0.04100000 -0.20800000 0.90750000 0.43529412 0.41960784 0.38823529
f 146 148 145
f 149 146 145
f 145 148 147
f 147 149 145
f 146 152 148
f 150 146 149
f 150 152 146
f 148 152 147
f 151 149 147
f 147 152 151
f 151 150 149
f 152 150 151

o khe_thong_gio_08
v 0.05700000 -0.22200000 0.83250000 0.43529412 0.41960784 0.38823529
v 0.05700000 -0.22200000 0.90750000 0.43529412 0.41960784 0.38823529
v 0.05700000 -0.20800000 0.83250000 0.43529412 0.41960784 0.38823529
v 0.05700000 -0.20800000 0.90750000 0.43529412 0.41960784 0.38823529
v 0.06700000 -0.22200000 0.83250000 0.43529412 0.41960784 0.38823529
v 0.06700000 -0.22200000 0.90750000 0.43529412 0.41960784 0.38823529
v 0.06700000 -0.20800000 0.83250000 0.43529412 0.41960784 0.38823529
v 0.06700000 -0.20800000 0.90750000 0.43529412 0.41960784 0.38823529
f 154 156 153
f 157 154 153
f 153 156 155
f 155 157 153
f 154 160 156
f 158 154 157
f 158 160 154
f 156 160 155
f 159 157 155
f 155 160 159
f 159 158 157
f 160 158 159

o khe_thong_gio_09
v 0.08300000 -0.22200000 0.83250000 0.43529412 0.41960784 0.38823529
v 0.08300000 -0.22200000 0.90750000 0.43529412 0.41960784 0.38823529
v 0.08300000 -0.20800000 0.83250000 0.43529412 0.41960784 0.38823529
v 0.08300000 -0.20800000 0.90750000 0.43529412 0.41960784 0.38823529
v 0.09300000 -0.22200000 0.83250000 0.43529412 0.41960784 0.38823529
v 0.09300000 -0.22200000 0.90750000 0.43529412 0.41960784 0.38823529
v 0.09300000 -0.20800000 0.83250000 0.43529412 0.41960784 0.38823529
v 0.09300000 -0.20800000 0.90750000 0.43529412 0.41960784 0.38823529
f 162 164 161
f 165 162 161
f 161 164 163
f 163 165 161
f 162 168 164
f 166 162 165
f 166 168 162
f 164 168 163
f 167 165 163
f 163 168 167
f 167 166 165
f 168 166 167

o khe_thong_gio_10
v 0.10900000 -0.22200000 0.83250000 0.43529412 0.41960784 0.38823529
v 0.10900000 -0.22200000 0.90750000 0.43529412 0.41960784 0.38823529
v 0.10900000 -0.20800000 0.83250000 0.43529412 0.41960784 0.38823529
v 0.10900000 -0.20800000 0.90750000 0.43529412 0.41960784 0.38823529
v 0.11900000 -0.22200000 0.83250000 0.43529412 0.41960784 0.38823529
v 0.11900000 -0.22200000 0.90750000 0.43529412 0.41960784 0.38823529
v 0.11900000 -0.20800000 0.83250000 0.43529412 0.41960784 0.38823529
v 0.11900000 -0.20800000 0.90750000 0.43529412 0.41960784 0.38823529
f 170 172 169
f 173 170 169
f 169 172 171
f 171 173 169
f 170 176 172
f 174 170 173
f 174 176 170
f 172 176 171
f 175 173 171
f 171 176 175
f 175 174 173
f 176 174 175

o tru_ke_doc_0_0
v -0.57250000 -0.14250000 0.80000000 0.68235294 0.70980392 0.72549020
v -0.57250000 -0.14250000 1.38000000 0.68235294 0.70980392 0.72549020
v -0.57250000 -0.11750000 0.80000000 0.68235294 0.70980392 0.72549020
v -0.57250000 -0.11750000 1.38000000 0.68235294 0.70980392 0.72549020
v -0.54750000 -0.14250000 0.80000000 0.68235294 0.70980392 0.72549020
v -0.54750000 -0.14250000 1.38000000 0.68235294 0.70980392 0.72549020
v -0.54750000 -0.11750000 0.80000000 0.68235294 0.70980392 0.72549020
v -0.54750000 -0.11750000 1.38000000 0.68235294 0.70980392 0.72549020
f 178 180 177
f 181 178 177
f 177 180 179
f 179 181 177
f 178 184 180
f 182 178 181
f 182 184 178
f 180 184 179
f 183 181 179
f 179 184 183
f 183 182 181
f 184 182 183

o lo_tru_ke_0_0_0
v -0.57500000 -0.14600000 0.85400000 0.13333333 0.13333333 0.13333333
v -0.57500000 -0.14600000 0.86600000 0.13333333 0.13333333 0.13333333
v -0.57500000 -0.14200000 0.85400000 0.13333333 0.13333333 0.13333333
v -0.57500000 -0.14200000 0.86600000 0.13333333 0.13333333 0.13333333
v -0.54500000 -0.14600000 0.85400000 0.13333333 0.13333333 0.13333333
v -0.54500000 -0.14600000 0.86600000 0.13333333 0.13333333 0.13333333
v -0.54500000 -0.14200000 0.85400000 0.13333333 0.13333333 0.13333333
v -0.54500000 -0.14200000 0.86600000 0.13333333 0.13333333 0.13333333
f 186 188 185
f 189 186 185
f 185 188 187
f 187 189 185
f 186 192 188
f 190 186 189
f 190 192 186
f 188 192 187
f 191 189 187
f 187 192 191
f 191 190 189
f 192 190 191

o lo_tru_ke_0_0_1
v -0.57500000 -0.14600000 0.91900000 0.13333333 0.13333333 0.13333333
v -0.57500000 -0.14600000 0.93100000 0.13333333 0.13333333 0.13333333
v -0.57500000 -0.14200000 0.91900000 0.13333333 0.13333333 0.13333333
v -0.57500000 -0.14200000 0.93100000 0.13333333 0.13333333 0.13333333
v -0.54500000 -0.14600000 0.91900000 0.13333333 0.13333333 0.13333333
v -0.54500000 -0.14600000 0.93100000 0.13333333 0.13333333 0.13333333
v -0.54500000 -0.14200000 0.91900000 0.13333333 0.13333333 0.13333333
v -0.54500000 -0.14200000 0.93100000 0.13333333 0.13333333 0.13333333
f 194 196 193
f 197 194 193
f 193 196 195
f 195 197 193
f 194 200 196
f 198 194 197
f 198 200 194
f 196 200 195
f 199 197 195
f 195 200 199
f 199 198 197
f 200 198 199

o lo_tru_ke_0_0_2
v -0.57500000 -0.14600000 0.98400000 0.13333333 0.13333333 0.13333333
v -0.57500000 -0.14600000 0.99600000 0.13333333 0.13333333 0.13333333
v -0.57500000 -0.14200000 0.98400000 0.13333333 0.13333333 0.13333333
v -0.57500000 -0.14200000 0.99600000 0.13333333 0.13333333 0.13333333
v -0.54500000 -0.14600000 0.98400000 0.13333333 0.13333333 0.13333333
v -0.54500000 -0.14600000 0.99600000 0.13333333 0.13333333 0.13333333
v -0.54500000 -0.14200000 0.98400000 0.13333333 0.13333333 0.13333333
v -0.54500000 -0.14200000 0.99600000 0.13333333 0.13333333 0.13333333
f 202 204 201
f 205 202 201
f 201 204 203
f 203 205 201
f 202 208 204
f 206 202 205
f 206 208 202
f 204 208 203
f 207 205 203
f 203 208 207
f 207 206 205
f 208 206 207

o lo_tru_ke_0_0_3
v -0.57500000 -0.14600000 1.04900000 0.13333333 0.13333333 0.13333333
v -0.57500000 -0.14600000 1.06100000 0.13333333 0.13333333 0.13333333
v -0.57500000 -0.14200000 1.04900000 0.13333333 0.13333333 0.13333333
v -0.57500000 -0.14200000 1.06100000 0.13333333 0.13333333 0.13333333
v -0.54500000 -0.14600000 1.04900000 0.13333333 0.13333333 0.13333333
v -0.54500000 -0.14600000 1.06100000 0.13333333 0.13333333 0.13333333
v -0.54500000 -0.14200000 1.04900000 0.13333333 0.13333333 0.13333333
v -0.54500000 -0.14200000 1.06100000 0.13333333 0.13333333 0.13333333
f 210 212 209
f 213 210 209
f 209 212 211
f 211 213 209
f 210 216 212
f 214 210 213
f 214 216 210
f 212 216 211
f 215 213 211
f 211 216 215
f 215 214 213
f 216 214 215

o lo_tru_ke_0_0_4
v -0.57500000 -0.14600000 1.11400000 0.13333333 0.13333333 0.13333333
v -0.57500000 -0.14600000 1.12600000 0.13333333 0.13333333 0.13333333
v -0.57500000 -0.14200000 1.11400000 0.13333333 0.13333333 0.13333333
v -0.57500000 -0.14200000 1.12600000 0.13333333 0.13333333 0.13333333
v -0.54500000 -0.14600000 1.11400000 0.13333333 0.13333333 0.13333333
v -0.54500000 -0.14600000 1.12600000 0.13333333 0.13333333 0.13333333
v -0.54500000 -0.14200000 1.11400000 0.13333333 0.13333333 0.13333333
v -0.54500000 -0.14200000 1.12600000 0.13333333 0.13333333 0.13333333
f 218 220 217
f 221 218 217
f 217 220 219
f 219 221 217
f 218 224 220
f 222 218 221
f 222 224 218
f 220 224 219
f 223 221 219
f 219 224 223
f 223 222 221
f 224 222 223

o lo_tru_ke_0_0_5
v -0.57500000 -0.14600000 1.17900000 0.13333333 0.13333333 0.13333333
v -0.57500000 -0.14600000 1.19100000 0.13333333 0.13333333 0.13333333
v -0.57500000 -0.14200000 1.17900000 0.13333333 0.13333333 0.13333333
v -0.57500000 -0.14200000 1.19100000 0.13333333 0.13333333 0.13333333
v -0.54500000 -0.14600000 1.17900000 0.13333333 0.13333333 0.13333333
v -0.54500000 -0.14600000 1.19100000 0.13333333 0.13333333 0.13333333
v -0.54500000 -0.14200000 1.17900000 0.13333333 0.13333333 0.13333333
v -0.54500000 -0.14200000 1.19100000 0.13333333 0.13333333 0.13333333
f 226 228 225
f 229 226 225
f 225 228 227
f 227 229 225
f 226 232 228
f 230 226 229
f 230 232 226
f 228 232 227
f 231 229 227
f 227 232 231
f 231 230 229
f 232 230 231

o lo_tru_ke_0_0_6
v -0.57500000 -0.14600000 1.24400000 0.13333333 0.13333333 0.13333333
v -0.57500000 -0.14600000 1.25600000 0.13333333 0.13333333 0.13333333
v -0.57500000 -0.14200000 1.24400000 0.13333333 0.13333333 0.13333333
v -0.57500000 -0.14200000 1.25600000 0.13333333 0.13333333 0.13333333
v -0.54500000 -0.14600000 1.24400000 0.13333333 0.13333333 0.13333333
v -0.54500000 -0.14600000 1.25600000 0.13333333 0.13333333 0.13333333
v -0.54500000 -0.14200000 1.24400000 0.13333333 0.13333333 0.13333333
v -0.54500000 -0.14200000 1.25600000 0.13333333 0.13333333 0.13333333
f 234 236 233
f 237 234 233
f 233 236 235
f 235 237 233
f 234 240 236
f 238 234 237
f 238 240 234
f 236 240 235
f 239 237 235
f 235 240 239
f 239 238 237
f 240 238 239

o lo_tru_ke_0_0_7
v -0.57500000 -0.14600000 1.30900000 0.13333333 0.13333333 0.13333333
v -0.57500000 -0.14600000 1.32100000 0.13333333 0.13333333 0.13333333
v -0.57500000 -0.14200000 1.30900000 0.13333333 0.13333333 0.13333333
v -0.57500000 -0.14200000 1.32100000 0.13333333 0.13333333 0.13333333
v -0.54500000 -0.14600000 1.30900000 0.13333333 0.13333333 0.13333333
v -0.54500000 -0.14600000 1.32100000 0.13333333 0.13333333 0.13333333
v -0.54500000 -0.14200000 1.30900000 0.13333333 0.13333333 0.13333333
v -0.54500000 -0.14200000 1.32100000 0.13333333 0.13333333 0.13333333
f 242 244 241
f 245 242 241
f 241 244 243
f 243 245 241
f 242 248 244
f 246 242 245
f 246 248 242
f 244 248 243
f 247 245 243
f 243 248 247
f 247 246 245
f 248 246 247

o tru_ke_doc_0_1
v -0.57250000 0.21750000 0.80000000 0.68235294 0.70980392 0.72549020
v -0.57250000 0.21750000 1.38000000 0.68235294 0.70980392 0.72549020
v -0.57250000 0.24250000 0.80000000 0.68235294 0.70980392 0.72549020
v -0.57250000 0.24250000 1.38000000 0.68235294 0.70980392 0.72549020
v -0.54750000 0.21750000 0.80000000 0.68235294 0.70980392 0.72549020
v -0.54750000 0.21750000 1.38000000 0.68235294 0.70980392 0.72549020
v -0.54750000 0.24250000 0.80000000 0.68235294 0.70980392 0.72549020
v -0.54750000 0.24250000 1.38000000 0.68235294 0.70980392 0.72549020
f 250 252 249
f 253 250 249
f 249 252 251
f 251 253 249
f 250 256 252
f 254 250 253
f 254 256 250
f 252 256 251
f 255 253 251
f 251 256 255
f 255 254 253
f 256 254 255

o lo_tru_ke_0_1_0
v -0.57500000 0.21400000 0.85400000 0.13333333 0.13333333 0.13333333
v -0.57500000 0.21400000 0.86600000 0.13333333 0.13333333 0.13333333
v -0.57500000 0.21800000 0.85400000 0.13333333 0.13333333 0.13333333
v -0.57500000 0.21800000 0.86600000 0.13333333 0.13333333 0.13333333
v -0.54500000 0.21400000 0.85400000 0.13333333 0.13333333 0.13333333
v -0.54500000 0.21400000 0.86600000 0.13333333 0.13333333 0.13333333
v -0.54500000 0.21800000 0.85400000 0.13333333 0.13333333 0.13333333
v -0.54500000 0.21800000 0.86600000 0.13333333 0.13333333 0.13333333
f 258 260 257
f 261 258 257
f 257 260 259
f 259 261 257
f 258 264 260
f 262 258 261
f 262 264 258
f 260 264 259
f 263 261 259
f 259 264 263
f 263 262 261
f 264 262 263

o lo_tru_ke_0_1_1
v -0.57500000 0.21400000 0.91900000 0.13333333 0.13333333 0.13333333
v -0.57500000 0.21400000 0.93100000 0.13333333 0.13333333 0.13333333
v -0.57500000 0.21800000 0.91900000 0.13333333 0.13333333 0.13333333
v -0.57500000 0.21800000 0.93100000 0.13333333 0.13333333 0.13333333
v -0.54500000 0.21400000 0.91900000 0.13333333 0.13333333 0.13333333
v -0.54500000 0.21400000 0.93100000 0.13333333 0.13333333 0.13333333
v -0.54500000 0.21800000 0.91900000 0.13333333 0.13333333 0.13333333
v -0.54500000 0.21800000 0.93100000 0.13333333 0.13333333 0.13333333
f 266 268 265
f 269 266 265
f 265 268 267
f 267 269 265
f 266 272 268
f 270 266 269
f 270 272 266
f 268 272 267
f 271 269 267
f 267 272 271
f 271 270 269
f 272 270 271

o lo_tru_ke_0_1_2
v -0.57500000 0.21400000 0.98400000 0.13333333 0.13333333 0.13333333
v -0.57500000 0.21400000 0.99600000 0.13333333 0.13333333 0.13333333
v -0.57500000 0.21800000 0.98400000 0.13333333 0.13333333 0.13333333
v -0.57500000 0.21800000 0.99600000 0.13333333 0.13333333 0.13333333
v -0.54500000 0.21400000 0.98400000 0.13333333 0.13333333 0.13333333
v -0.54500000 0.21400000 0.99600000 0.13333333 0.13333333 0.13333333
v -0.54500000 0.21800000 0.98400000 0.13333333 0.13333333 0.13333333
v -0.54500000 0.21800000 0.99600000 0.13333333 0.13333333 0.13333333
f 274 276 273
f 277 274 273
f 273 276 275
f 275 277 273
f 274 280 276
f 278 274 277
f 278 280 274
f 276 280 275
f 279 277 275
f 275 280 279
f 279 278 277
f 280 278 279

o lo_tru_ke_0_1_3
v -0.57500000 0.21400000 1.04900000 0.13333333 0.13333333 0.13333333
v -0.57500000 0.21400000 1.06100000 0.13333333 0.13333333 0.13333333
v -0.57500000 0.21800000 1.04900000 0.13333333 0.13333333 0.13333333
v -0.57500000 0.21800000 1.06100000 0.13333333 0.13333333 0.13333333
v -0.54500000 0.21400000 1.04900000 0.13333333 0.13333333 0.13333333
v -0.54500000 0.21400000 1.06100000 0.13333333 0.13333333 0.13333333
v -0.54500000 0.21800000 1.04900000 0.13333333 0.13333333 0.13333333
v -0.54500000 0.21800000 1.06100000 0.13333333 0.13333333 0.13333333
f 282 284 281
f 285 282 281
f 281 284 283
f 283 285 281
f 282 288 284
f 286 282 285
f 286 288 282
f 284 288 283
f 287 285 283
f 283 288 287
f 287 286 285
f 288 286 287

o lo_tru_ke_0_1_4
v -0.57500000 0.21400000 1.11400000 0.13333333 0.13333333 0.13333333
v -0.57500000 0.21400000 1.12600000 0.13333333 0.13333333 0.13333333
v -0.57500000 0.21800000 1.11400000 0.13333333 0.13333333 0.13333333
v -0.57500000 0.21800000 1.12600000 0.13333333 0.13333333 0.13333333
v -0.54500000 0.21400000 1.11400000 0.13333333 0.13333333 0.13333333
v -0.54500000 0.21400000 1.12600000 0.13333333 0.13333333 0.13333333
v -0.54500000 0.21800000 1.11400000 0.13333333 0.13333333 0.13333333
v -0.54500000 0.21800000 1.12600000 0.13333333 0.13333333 0.13333333
f 290 292 289
f 293 290 289
f 289 292 291
f 291 293 289
f 290 296 292
f 294 290 293
f 294 296 290
f 292 296 291
f 295 293 291
f 291 296 295
f 295 294 293
f 296 294 295

o lo_tru_ke_0_1_5
v -0.57500000 0.21400000 1.17900000 0.13333333 0.13333333 0.13333333
v -0.57500000 0.21400000 1.19100000 0.13333333 0.13333333 0.13333333
v -0.57500000 0.21800000 1.17900000 0.13333333 0.13333333 0.13333333
v -0.57500000 0.21800000 1.19100000 0.13333333 0.13333333 0.13333333
v -0.54500000 0.21400000 1.17900000 0.13333333 0.13333333 0.13333333
v -0.54500000 0.21400000 1.19100000 0.13333333 0.13333333 0.13333333
v -0.54500000 0.21800000 1.17900000 0.13333333 0.13333333 0.13333333
v -0.54500000 0.21800000 1.19100000 0.13333333 0.13333333 0.13333333
f 298 300 297
f 301 298 297
f 297 300 299
f 299 301 297
f 298 304 300
f 302 298 301
f 302 304 298
f 300 304 299
f 303 301 299
f 299 304 303
f 303 302 301
f 304 302 303

o lo_tru_ke_0_1_6
v -0.57500000 0.21400000 1.24400000 0.13333333 0.13333333 0.13333333
v -0.57500000 0.21400000 1.25600000 0.13333333 0.13333333 0.13333333
v -0.57500000 0.21800000 1.24400000 0.13333333 0.13333333 0.13333333
v -0.57500000 0.21800000 1.25600000 0.13333333 0.13333333 0.13333333
v -0.54500000 0.21400000 1.24400000 0.13333333 0.13333333 0.13333333
v -0.54500000 0.21400000 1.25600000 0.13333333 0.13333333 0.13333333
v -0.54500000 0.21800000 1.24400000 0.13333333 0.13333333 0.13333333
v -0.54500000 0.21800000 1.25600000 0.13333333 0.13333333 0.13333333
f 306 308 305
f 309 306 305
f 305 308 307
f 307 309 305
f 306 312 308
f 310 306 309
f 310 312 306
f 308 312 307
f 311 309 307
f 307 312 311
f 311 310 309
f 312 310 311

o lo_tru_ke_0_1_7
v -0.57500000 0.21400000 1.30900000 0.13333333 0.13333333 0.13333333
v -0.57500000 0.21400000 1.32100000 0.13333333 0.13333333 0.13333333
v -0.57500000 0.21800000 1.30900000 0.13333333 0.13333333 0.13333333
v -0.57500000 0.21800000 1.32100000 0.13333333 0.13333333 0.13333333
v -0.54500000 0.21400000 1.30900000 0.13333333 0.13333333 0.13333333
v -0.54500000 0.21400000 1.32100000 0.13333333 0.13333333 0.13333333
v -0.54500000 0.21800000 1.30900000 0.13333333 0.13333333 0.13333333
v -0.54500000 0.21800000 1.32100000 0.13333333 0.13333333 0.13333333
f 314 316 313
f 317 314 313
f 313 316 315
f 315 317 313
f 314 320 316
f 318 314 317
f 318 320 314
f 316 320 315
f 319 317 315
f 315 320 319
f 319 318 317
f 320 318 319

o tru_ke_doc_1_0
v 0.54750000 -0.14250000 0.80000000 0.68235294 0.70980392 0.72549020
v 0.54750000 -0.14250000 1.38000000 0.68235294 0.70980392 0.72549020
v 0.54750000 -0.11750000 0.80000000 0.68235294 0.70980392 0.72549020
v 0.54750000 -0.11750000 1.38000000 0.68235294 0.70980392 0.72549020
v 0.57250000 -0.14250000 0.80000000 0.68235294 0.70980392 0.72549020
v 0.57250000 -0.14250000 1.38000000 0.68235294 0.70980392 0.72549020
v 0.57250000 -0.11750000 0.80000000 0.68235294 0.70980392 0.72549020
v 0.57250000 -0.11750000 1.38000000 0.68235294 0.70980392 0.72549020
f 322 324 321
f 325 322 321
f 321 324 323
f 323 325 321
f 322 328 324
f 326 322 325
f 326 328 322
f 324 328 323
f 327 325 323
f 323 328 327
f 327 326 325
f 328 326 327

o lo_tru_ke_1_0_0
v 0.54500000 -0.14600000 0.85400000 0.13333333 0.13333333 0.13333333
v 0.54500000 -0.14600000 0.86600000 0.13333333 0.13333333 0.13333333
v 0.54500000 -0.14200000 0.85400000 0.13333333 0.13333333 0.13333333
v 0.54500000 -0.14200000 0.86600000 0.13333333 0.13333333 0.13333333
v 0.57500000 -0.14600000 0.85400000 0.13333333 0.13333333 0.13333333
v 0.57500000 -0.14600000 0.86600000 0.13333333 0.13333333 0.13333333
v 0.57500000 -0.14200000 0.85400000 0.13333333 0.13333333 0.13333333
v 0.57500000 -0.14200000 0.86600000 0.13333333 0.13333333 0.13333333
f 330 332 329
f 333 330 329
f 329 332 331
f 331 333 329
f 330 336 332
f 334 330 333
f 334 336 330
f 332 336 331
f 335 333 331
f 331 336 335
f 335 334 333
f 336 334 335

o lo_tru_ke_1_0_1
v 0.54500000 -0.14600000 0.91900000 0.13333333 0.13333333 0.13333333
v 0.54500000 -0.14600000 0.93100000 0.13333333 0.13333333 0.13333333
v 0.54500000 -0.14200000 0.91900000 0.13333333 0.13333333 0.13333333
v 0.54500000 -0.14200000 0.93100000 0.13333333 0.13333333 0.13333333
v 0.57500000 -0.14600000 0.91900000 0.13333333 0.13333333 0.13333333
v 0.57500000 -0.14600000 0.93100000 0.13333333 0.13333333 0.13333333
v 0.57500000 -0.14200000 0.91900000 0.13333333 0.13333333 0.13333333
v 0.57500000 -0.14200000 0.93100000 0.13333333 0.13333333 0.13333333
f 338 340 337
f 341 338 337
f 337 340 339
f 339 341 337
f 338 344 340
f 342 338 341
f 342 344 338
f 340 344 339
f 343 341 339
f 339 344 343
f 343 342 341
f 344 342 343

o lo_tru_ke_1_0_2
v 0.54500000 -0.14600000 0.98400000 0.13333333 0.13333333 0.13333333
v 0.54500000 -0.14600000 0.99600000 0.13333333 0.13333333 0.13333333
v 0.54500000 -0.14200000 0.98400000 0.13333333 0.13333333 0.13333333
v 0.54500000 -0.14200000 0.99600000 0.13333333 0.13333333 0.13333333
v 0.57500000 -0.14600000 0.98400000 0.13333333 0.13333333 0.13333333
v 0.57500000 -0.14600000 0.99600000 0.13333333 0.13333333 0.13333333
v 0.57500000 -0.14200000 0.98400000 0.13333333 0.13333333 0.13333333
v 0.57500000 -0.14200000 0.99600000 0.13333333 0.13333333 0.13333333
f 346 348 345
f 349 346 345
f 345 348 347
f 347 349 345
f 346 352 348
f 350 346 349
f 350 352 346
f 348 352 347
f 351 349 347
f 347 352 351
f 351 350 349
f 352 350 351

o lo_tru_ke_1_0_3
v 0.54500000 -0.14600000 1.04900000 0.13333333 0.13333333 0.13333333
v 0.54500000 -0.14600000 1.06100000 0.13333333 0.13333333 0.13333333
v 0.54500000 -0.14200000 1.04900000 0.13333333 0.13333333 0.13333333
v 0.54500000 -0.14200000 1.06100000 0.13333333 0.13333333 0.13333333
v 0.57500000 -0.14600000 1.04900000 0.13333333 0.13333333 0.13333333
v 0.57500000 -0.14600000 1.06100000 0.13333333 0.13333333 0.13333333
v 0.57500000 -0.14200000 1.04900000 0.13333333 0.13333333 0.13333333
v 0.57500000 -0.14200000 1.06100000 0.13333333 0.13333333 0.13333333
f 354 356 353
f 357 354 353
f 353 356 355
f 355 357 353
f 354 360 356
f 358 354 357
f 358 360 354
f 356 360 355
f 359 357 355
f 355 360 359
f 359 358 357
f 360 358 359

o lo_tru_ke_1_0_4
v 0.54500000 -0.14600000 1.11400000 0.13333333 0.13333333 0.13333333
v 0.54500000 -0.14600000 1.12600000 0.13333333 0.13333333 0.13333333
v 0.54500000 -0.14200000 1.11400000 0.13333333 0.13333333 0.13333333
v 0.54500000 -0.14200000 1.12600000 0.13333333 0.13333333 0.13333333
v 0.57500000 -0.14600000 1.11400000 0.13333333 0.13333333 0.13333333
v 0.57500000 -0.14600000 1.12600000 0.13333333 0.13333333 0.13333333
v 0.57500000 -0.14200000 1.11400000 0.13333333 0.13333333 0.13333333
v 0.57500000 -0.14200000 1.12600000 0.13333333 0.13333333 0.13333333
f 362 364 361
f 365 362 361
f 361 364 363
f 363 365 361
f 362 368 364
f 366 362 365
f 366 368 362
f 364 368 363
f 367 365 363
f 363 368 367
f 367 366 365
f 368 366 367

o lo_tru_ke_1_0_5
v 0.54500000 -0.14600000 1.17900000 0.13333333 0.13333333 0.13333333
v 0.54500000 -0.14600000 1.19100000 0.13333333 0.13333333 0.13333333
v 0.54500000 -0.14200000 1.17900000 0.13333333 0.13333333 0.13333333
v 0.54500000 -0.14200000 1.19100000 0.13333333 0.13333333 0.13333333
v 0.57500000 -0.14600000 1.17900000 0.13333333 0.13333333 0.13333333
v 0.57500000 -0.14600000 1.19100000 0.13333333 0.13333333 0.13333333
v 0.57500000 -0.14200000 1.17900000 0.13333333 0.13333333 0.13333333
v 0.57500000 -0.14200000 1.19100000 0.13333333 0.13333333 0.13333333
f 370 372 369
f 373 370 369
f 369 372 371
f 371 373 369
f 370 376 372
f 374 370 373
f 374 376 370
f 372 376 371
f 375 373 371
f 371 376 375
f 375 374 373
f 376 374 375

o lo_tru_ke_1_0_6
v 0.54500000 -0.14600000 1.24400000 0.13333333 0.13333333 0.13333333
v 0.54500000 -0.14600000 1.25600000 0.13333333 0.13333333 0.13333333
v 0.54500000 -0.14200000 1.24400000 0.13333333 0.13333333 0.13333333
v 0.54500000 -0.14200000 1.25600000 0.13333333 0.13333333 0.13333333
v 0.57500000 -0.14600000 1.24400000 0.13333333 0.13333333 0.13333333
v 0.57500000 -0.14600000 1.25600000 0.13333333 0.13333333 0.13333333
v 0.57500000 -0.14200000 1.24400000 0.13333333 0.13333333 0.13333333
v 0.57500000 -0.14200000 1.25600000 0.13333333 0.13333333 0.13333333
f 378 380 377
f 381 378 377
f 377 380 379
f 379 381 377
f 378 384 380
f 382 378 381
f 382 384 378
f 380 384 379
f 383 381 379
f 379 384 383
f 383 382 381
f 384 382 383

o lo_tru_ke_1_0_7
v 0.54500000 -0.14600000 1.30900000 0.13333333 0.13333333 0.13333333
v 0.54500000 -0.14600000 1.32100000 0.13333333 0.13333333 0.13333333
v 0.54500000 -0.14200000 1.30900000 0.13333333 0.13333333 0.13333333
v 0.54500000 -0.14200000 1.32100000 0.13333333 0.13333333 0.13333333
v 0.57500000 -0.14600000 1.30900000 0.13333333 0.13333333 0.13333333
v 0.57500000 -0.14600000 1.32100000 0.13333333 0.13333333 0.13333333
v 0.57500000 -0.14200000 1.30900000 0.13333333 0.13333333 0.13333333
v 0.57500000 -0.14200000 1.32100000 0.13333333 0.13333333 0.13333333
f 386 388 385
f 389 386 385
f 385 388 387
f 387 389 385
f 386 392 388
f 390 386 389
f 390 392 386
f 388 392 387
f 391 389 387
f 387 392 391
f 391 390 389
f 392 390 391

o tru_ke_doc_1_1
v 0.54750000 0.21750000 0.80000000 0.68235294 0.70980392 0.72549020
v 0.54750000 0.21750000 1.38000000 0.68235294 0.70980392 0.72549020
v 0.54750000 0.24250000 0.80000000 0.68235294 0.70980392 0.72549020
v 0.54750000 0.24250000 1.38000000 0.68235294 0.70980392 0.72549020
v 0.57250000 0.21750000 0.80000000 0.68235294 0.70980392 0.72549020
v 0.57250000 0.21750000 1.38000000 0.68235294 0.70980392 0.72549020
v 0.57250000 0.24250000 0.80000000 0.68235294 0.70980392 0.72549020
v 0.57250000 0.24250000 1.38000000 0.68235294 0.70980392 0.72549020
f 394 396 393
f 397 394 393
f 393 396 395
f 395 397 393
f 394 400 396
f 398 394 397
f 398 400 394
f 396 400 395
f 399 397 395
f 395 400 399
f 399 398 397
f 400 398 399

o lo_tru_ke_1_1_0
v 0.54500000 0.21400000 0.85400000 0.13333333 0.13333333 0.13333333
v 0.54500000 0.21400000 0.86600000 0.13333333 0.13333333 0.13333333
v 0.54500000 0.21800000 0.85400000 0.13333333 0.13333333 0.13333333
v 0.54500000 0.21800000 0.86600000 0.13333333 0.13333333 0.13333333
v 0.57500000 0.21400000 0.85400000 0.13333333 0.13333333 0.13333333
v 0.57500000 0.21400000 0.86600000 0.13333333 0.13333333 0.13333333
v 0.57500000 0.21800000 0.85400000 0.13333333 0.13333333 0.13333333
v 0.57500000 0.21800000 0.86600000 0.13333333 0.13333333 0.13333333
f 402 404 401
f 405 402 401
f 401 404 403
f 403 405 401
f 402 408 404
f 406 402 405
f 406 408 402
f 404 408 403
f 407 405 403
f 403 408 407
f 407 406 405
f 408 406 407

o lo_tru_ke_1_1_1
v 0.54500000 0.21400000 0.91900000 0.13333333 0.13333333 0.13333333
v 0.54500000 0.21400000 0.93100000 0.13333333 0.13333333 0.13333333
v 0.54500000 0.21800000 0.91900000 0.13333333 0.13333333 0.13333333
v 0.54500000 0.21800000 0.93100000 0.13333333 0.13333333 0.13333333
v 0.57500000 0.21400000 0.91900000 0.13333333 0.13333333 0.13333333
v 0.57500000 0.21400000 0.93100000 0.13333333 0.13333333 0.13333333
v 0.57500000 0.21800000 0.91900000 0.13333333 0.13333333 0.13333333
v 0.57500000 0.21800000 0.93100000 0.13333333 0.13333333 0.13333333
f 410 412 409
f 413 410 409
f 409 412 411
f 411 413 409
f 410 416 412
f 414 410 413
f 414 416 410
f 412 416 411
f 415 413 411
f 411 416 415
f 415 414 413
f 416 414 415

o lo_tru_ke_1_1_2
v 0.54500000 0.21400000 0.98400000 0.13333333 0.13333333 0.13333333
v 0.54500000 0.21400000 0.99600000 0.13333333 0.13333333 0.13333333
v 0.54500000 0.21800000 0.98400000 0.13333333 0.13333333 0.13333333
v 0.54500000 0.21800000 0.99600000 0.13333333 0.13333333 0.13333333
v 0.57500000 0.21400000 0.98400000 0.13333333 0.13333333 0.13333333
v 0.57500000 0.21400000 0.99600000 0.13333333 0.13333333 0.13333333
v 0.57500000 0.21800000 0.98400000 0.13333333 0.13333333 0.13333333
v 0.57500000 0.21800000 0.99600000 0.13333333 0.13333333 0.13333333
f 418 420 417
f 421 418 417
f 417 420 419
f 419 421 417
f 418 424 420
f 422 418 421
f 422 424 418
f 420 424 419
f 423 421 419
f 419 424 423
f 423 422 421
f 424 422 423

o lo_tru_ke_1_1_3
v 0.54500000 0.21400000 1.04900000 0.13333333 0.13333333 0.13333333
v 0.54500000 0.21400000 1.06100000 0.13333333 0.13333333 0.13333333
v 0.54500000 0.21800000 1.04900000 0.13333333 0.13333333 0.13333333
v 0.54500000 0.21800000 1.06100000 0.13333333 0.13333333 0.13333333
v 0.57500000 0.21400000 1.04900000 0.13333333 0.13333333 0.13333333
v 0.57500000 0.21400000 1.06100000 0.13333333 0.13333333 0.13333333
v 0.57500000 0.21800000 1.04900000 0.13333333 0.13333333 0.13333333
v 0.57500000 0.21800000 1.06100000 0.13333333 0.13333333 0.13333333
f 426 428 425
f 429 426 425
f 425 428 427
f 427 429 425
f 426 432 428
f 430 426 429
f 430 432 426
f 428 432 427
f 431 429 427
f 427 432 431
f 431 430 429
f 432 430 431

o lo_tru_ke_1_1_4
v 0.54500000 0.21400000 1.11400000 0.13333333 0.13333333 0.13333333
v 0.54500000 0.21400000 1.12600000 0.13333333 0.13333333 0.13333333
v 0.54500000 0.21800000 1.11400000 0.13333333 0.13333333 0.13333333
v 0.54500000 0.21800000 1.12600000 0.13333333 0.13333333 0.13333333
v 0.57500000 0.21400000 1.11400000 0.13333333 0.13333333 0.13333333
v 0.57500000 0.21400000 1.12600000 0.13333333 0.13333333 0.13333333
v 0.57500000 0.21800000 1.11400000 0.13333333 0.13333333 0.13333333
v 0.57500000 0.21800000 1.12600000 0.13333333 0.13333333 0.13333333
f 434 436 433
f 437 434 433
f 433 436 435
f 435 437 433
f 434 440 436
f 438 434 437
f 438 440 434
f 436 440 435
f 439 437 435
f 435 440 439
f 439 438 437
f 440 438 439

o lo_tru_ke_1_1_5
v 0.54500000 0.21400000 1.17900000 0.13333333 0.13333333 0.13333333
v 0.54500000 0.21400000 1.19100000 0.13333333 0.13333333 0.13333333
v 0.54500000 0.21800000 1.17900000 0.13333333 0.13333333 0.13333333
v 0.54500000 0.21800000 1.19100000 0.13333333 0.13333333 0.13333333
v 0.57500000 0.21400000 1.17900000 0.13333333 0.13333333 0.13333333
v 0.57500000 0.21400000 1.19100000 0.13333333 0.13333333 0.13333333
v 0.57500000 0.21800000 1.17900000 0.13333333 0.13333333 0.13333333
v 0.57500000 0.21800000 1.19100000 0.13333333 0.13333333 0.13333333
f 442 444 441
f 445 442 441
f 441 444 443
f 443 445 441
f 442 448 444
f 446 442 445
f 446 448 442
f 444 448 443
f 447 445 443
f 443 448 447
f 447 446 445
f 448 446 447

o lo_tru_ke_1_1_6
v 0.54500000 0.21400000 1.24400000 0.13333333 0.13333333 0.13333333
v 0.54500000 0.21400000 1.25600000 0.13333333 0.13333333 0.13333333
v 0.54500000 0.21800000 1.24400000 0.13333333 0.13333333 0.13333333
v 0.54500000 0.21800000 1.25600000 0.13333333 0.13333333 0.13333333
v 0.57500000 0.21400000 1.24400000 0.13333333 0.13333333 0.13333333
v 0.57500000 0.21400000 1.25600000 0.13333333 0.13333333 0.13333333
v 0.57500000 0.21800000 1.24400000 0.13333333 0.13333333 0.13333333
v 0.57500000 0.21800000 1.25600000 0.13333333 0.13333333 0.13333333
f 450 452 449
f 453 450 449
f 449 452 451
f 451 453 449
f 450 456 452
f 454 450 453
f 454 456 450
f 452 456 451
f 455 453 451
f 451 456 455
f 455 454 453
f 456 454 455

o lo_tru_ke_1_1_7
v 0.54500000 0.21400000 1.30900000 0.13333333 0.13333333 0.13333333
v 0.54500000 0.21400000 1.32100000 0.13333333 0.13333333 0.13333333
v 0.54500000 0.21800000 1.30900000 0.13333333 0.13333333 0.13333333
v 0.54500000 0.21800000 1.32100000 0.13333333 0.13333333 0.13333333
v 0.57500000 0.21400000 1.30900000 0.13333333 0.13333333 0.13333333
v 0.57500000 0.21400000 1.32100000 0.13333333 0.13333333 0.13333333
v 0.57500000 0.21800000 1.30900000 0.13333333 0.13333333 0.13333333
v 0.57500000 0.21800000 1.32100000 0.13333333 0.13333333 0.13333333
f 458 460 457
f 461 458 457
f 457 460 459
f 459 461 457
f 458 464 460
f 462 458 461
f 462 464 458
f 460 464 459
f 463 461 459
f 459 464 463
f 463 462 461
f 464 462 463

o mam_ke_1
v -0.56000000 -0.13000000 0.86750000 0.76862745 0.82745098 0.83921569
v -0.56000000 -0.13000000 0.89250000 0.76862745 0.82745098 0.83921569
v -0.56000000 0.23000000 0.86750000 0.76862745 0.82745098 0.83921569
v -0.56000000 0.23000000 0.89250000 0.76862745 0.82745098 0.83921569
v 0.56000000 -0.13000000 0.86750000 0.76862745 0.82745098 0.83921569
v 0.56000000 -0.13000000 0.89250000 0.76862745 0.82745098 0.83921569
v 0.56000000 0.23000000 0.86750000 0.76862745 0.82745098 0.83921569
v 0.56000000 0.23000000 0.89250000 0.76862745 0.82745098 0.83921569
f 466 468 465
f 469 466 465
f 465 468 467
f 467 469 465
f 466 472 468
f 470 466 469
f 470 472 466
f 468 472 467
f 471 469 467
f 467 472 471
f 471 470 469
f 472 470 471

o thanh_ngang_truoc_1
v -0.58000000 -0.14400000 0.90250000 0.68235294 0.70980392 0.72549020
v -0.58000000 -0.14400000 0.92750000 0.68235294 0.70980392 0.72549020
v -0.58000000 -0.12600000 0.90250000 0.68235294 0.70980392 0.72549020
v -0.58000000 -0.12600000 0.92750000 0.68235294 0.70980392 0.72549020
v 0.58000000 -0.14400000 0.90250000 0.68235294 0.70980392 0.72549020
v 0.58000000 -0.14400000 0.92750000 0.68235294 0.70980392 0.72549020
v 0.58000000 -0.12600000 0.90250000 0.68235294 0.70980392 0.72549020
v 0.58000000 -0.12600000 0.92750000 0.68235294 0.70980392 0.72549020
f 474 476 473
f 477 474 473
f 473 476 475
f 475 477 473
f 474 480 476
f 478 474 477
f 478 480 474
f 476 480 475
f 479 477 475
f 475 480 479
f 479 478 477
f 480 478 479

o thanh_ngang_sau_1
v -0.58000000 0.22600000 0.90250000 0.68235294 0.70980392 0.72549020
v -0.58000000 0.22600000 0.92750000 0.68235294 0.70980392 0.72549020
v -0.58000000 0.24400000 0.90250000 0.68235294 0.70980392 0.72549020
v -0.58000000 0.24400000 0.92750000 0.68235294 0.70980392 0.72549020
v 0.58000000 0.22600000 0.90250000 0.68235294 0.70980392 0.72549020
v 0.58000000 0.22600000 0.92750000 0.68235294 0.70980392 0.72549020
v 0.58000000 0.24400000 0.90250000 0.68235294 0.70980392 0.72549020
v 0.58000000 0.24400000 0.92750000 0.68235294 0.70980392 0.72549020
f 482 484 481
f 485 482 481
f 481 484 483
f 483 485 481
f 482 488 484
f 486 482 485
f 486 488 482
f 484 488 483
f 487 485 483
f 483 488 487
f 487 486 485
f 488 486 487

o mam_ke_2
v -0.56000000 -0.13000000 1.06750000 0.76862745 0.82745098 0.83921569
v -0.56000000 -0.13000000 1.09250000 0.76862745 0.82745098 0.83921569
v -0.56000000 0.23000000 1.06750000 0.76862745 0.82745098 0.83921569
v -0.56000000 0.23000000 1.09250000 0.76862745 0.82745098 0.83921569
v 0.56000000 -0.13000000 1.06750000 0.76862745 0.82745098 0.83921569
v 0.56000000 -0.13000000 1.09250000 0.76862745 0.82745098 0.83921569
v 0.56000000 0.23000000 1.06750000 0.76862745 0.82745098 0.83921569
v 0.56000000 0.23000000 1.09250000 0.76862745 0.82745098 0.83921569
f 490 492 489
f 493 490 489
f 489 492 491
f 491 493 489
f 490 496 492
f 494 490 493
f 494 496 490
f 492 496 491
f 495 493 491
f 491 496 495
f 495 494 493
f 496 494 495

o thanh_ngang_truoc_2
v -0.58000000 -0.14400000 1.10250000 0.68235294 0.70980392 0.72549020
v -0.58000000 -0.14400000 1.12750000 0.68235294 0.70980392 0.72549020
v -0.58000000 -0.12600000 1.10250000 0.68235294 0.70980392 0.72549020
v -0.58000000 -0.12600000 1.12750000 0.68235294 0.70980392 0.72549020
v 0.58000000 -0.14400000 1.10250000 0.68235294 0.70980392 0.72549020
v 0.58000000 -0.14400000 1.12750000 0.68235294 0.70980392 0.72549020
v 0.58000000 -0.12600000 1.10250000 0.68235294 0.70980392 0.72549020
v 0.58000000 -0.12600000 1.12750000 0.68235294 0.70980392 0.72549020
f 498 500 497
f 501 498 497
f 497 500 499
f 499 501 497
f 498 504 500
f 502 498 501
f 502 504 498
f 500 504 499
f 503 501 499
f 499 504 503
f 503 502 501
f 504 502 503

o thanh_ngang_sau_2
v -0.58000000 0.22600000 1.10250000 0.68235294 0.70980392 0.72549020
v -0.58000000 0.22600000 1.12750000 0.68235294 0.70980392 0.72549020
v -0.58000000 0.24400000 1.10250000 0.68235294 0.70980392 0.72549020
v -0.58000000 0.24400000 1.12750000 0.68235294 0.70980392 0.72549020
v 0.58000000 0.22600000 1.10250000 0.68235294 0.70980392 0.72549020
v 0.58000000 0.22600000 1.12750000 0.68235294 0.70980392 0.72549020
v 0.58000000 0.24400000 1.10250000 0.68235294 0.70980392 0.72549020
v 0.58000000 0.24400000 1.12750000 0.68235294 0.70980392 0.72549020
f 506 508 505
f 509 506 505
f 505 508 507
f 507 509 505
f 506 512 508
f 510 506 509
f 510 512 506
f 508 512 507
f 511 509 507
f 507 512 511
f 511 510 509
f 512 510 511

o mam_ke_3
v -0.56000000 -0.13000000 1.29750000 0.76862745 0.82745098 0.83921569
v -0.56000000 -0.13000000 1.32250000 0.76862745 0.82745098 0.83921569
v -0.56000000 0.23000000 1.29750000 0.76862745 0.82745098 0.83921569
v -0.56000000 0.23000000 1.32250000 0.76862745 0.82745098 0.83921569
v 0.56000000 -0.13000000 1.29750000 0.76862745 0.82745098 0.83921569
v 0.56000000 -0.13000000 1.32250000 0.76862745 0.82745098 0.83921569
v 0.56000000 0.23000000 1.29750000 0.76862745 0.82745098 0.83921569
v 0.56000000 0.23000000 1.32250000 0.76862745 0.82745098 0.83921569
f 514 516 513
f 517 514 513
f 513 516 515
f 515 517 513
f 514 520 516
f 518 514 517
f 518 520 514
f 516 520 515
f 519 517 515
f 515 520 519
f 519 518 517
f 520 518 519

o thanh_ngang_truoc_3
v -0.58000000 -0.14400000 1.33250000 0.68235294 0.70980392 0.72549020
v -0.58000000 -0.14400000 1.35750000 0.68235294 0.70980392 0.72549020
v -0.58000000 -0.12600000 1.33250000 0.68235294 0.70980392 0.72549020
v -0.58000000 -0.12600000 1.35750000 0.68235294 0.70980392 0.72549020
v 0.58000000 -0.14400000 1.33250000 0.68235294 0.70980392 0.72549020
v 0.58000000 -0.14400000 1.35750000 0.68235294 0.70980392 0.72549020
v 0.58000000 -0.12600000 1.33250000 0.68235294 0.70980392 0.72549020
v 0.58000000 -0.12600000 1.35750000 0.68235294 0.70980392 0.72549020
f 522 524 521
f 525 522 521
f 521 524 523
f 523 525 521
f 522 528 524
f 526 522 525
f 526 528 522
f 524 528 523
f 527 525 523
f 523 528 527
f 527 526 525
f 528 526 527

o thanh_ngang_sau_3
v -0.58000000 0.22600000 1.33250000 0.68235294 0.70980392 0.72549020
v -0.58000000 0.22600000 1.35750000 0.68235294 0.70980392 0.72549020
v -0.58000000 0.24400000 1.33250000 0.68235294 0.70980392 0.72549020
v -0.58000000 0.24400000 1.35750000 0.68235294 0.70980392 0.72549020
v 0.58000000 0.22600000 1.33250000 0.68235294 0.70980392 0.72549020
v 0.58000000 0.22600000 1.35750000 0.68235294 0.70980392 0.72549020
v 0.58000000 0.24400000 1.33250000 0.68235294 0.70980392 0.72549020
v 0.58000000 0.24400000 1.35750000 0.68235294 0.70980392 0.72549020
f 530 532 529
f 533 530 529
f 529 532 531
f 531 533 529
f 530 536 532
f 534 530 533
f 534 536 530
f 532 536 531
f 535 533 531
f 531 536 535
f 535 534 533
f 536 534 535

o thanh_doc_trai_z0.91
v -0.56900000 -0.15500000 0.89900000 0.68235294 0.70980392 0.72549020
v -0.56900000 -0.15500000 0.92100000 0.68235294 0.70980392 0.72549020
v -0.56900000 0.25500000 0.89900000 0.68235294 0.70980392 0.72549020
v -0.56900000 0.25500000 0.92100000 0.68235294 0.70980392 0.72549020
v -0.55100000 -0.15500000 0.89900000 0.68235294 0.70980392 0.72549020
v -0.55100000 -0.15500000 0.92100000 0.68235294 0.70980392 0.72549020
v -0.55100000 0.25500000 0.89900000 0.68235294 0.70980392 0.72549020
v -0.55100000 0.25500000 0.92100000 0.68235294 0.70980392 0.72549020
f 538 540 537
f 541 538 537
f 537 540 539
f 539 541 537
f 538 544 540
f 542 538 541
f 542 544 538
f 540 544 539
f 543 541 539
f 539 544 543
f 543 542 541
f 544 542 543

o thanh_doc_phai_z0.91
v 0.55100000 -0.15500000 0.89900000 0.68235294 0.70980392 0.72549020
v 0.55100000 -0.15500000 0.92100000 0.68235294 0.70980392 0.72549020
v 0.55100000 0.25500000 0.89900000 0.68235294 0.70980392 0.72549020
v 0.55100000 0.25500000 0.92100000 0.68235294 0.70980392 0.72549020
v 0.56900000 -0.15500000 0.89900000 0.68235294 0.70980392 0.72549020
v 0.56900000 -0.15500000 0.92100000 0.68235294 0.70980392 0.72549020
v 0.56900000 0.25500000 0.89900000 0.68235294 0.70980392 0.72549020
v 0.56900000 0.25500000 0.92100000 0.68235294 0.70980392 0.72549020
f 546 548 545
f 549 546 545
f 545 548 547
f 547 549 545
f 546 552 548
f 550 546 549
f 550 552 546
f 548 552 547
f 551 549 547
f 547 552 551
f 551 550 549
f 552 550 551

o thanh_doc_trai_z1.11
v -0.56900000 -0.15500000 1.09900000 0.68235294 0.70980392 0.72549020
v -0.56900000 -0.15500000 1.12100000 0.68235294 0.70980392 0.72549020
v -0.56900000 0.25500000 1.09900000 0.68235294 0.70980392 0.72549020
v -0.56900000 0.25500000 1.12100000 0.68235294 0.70980392 0.72549020
v -0.55100000 -0.15500000 1.09900000 0.68235294 0.70980392 0.72549020
v -0.55100000 -0.15500000 1.12100000 0.68235294 0.70980392 0.72549020
v -0.55100000 0.25500000 1.09900000 0.68235294 0.70980392 0.72549020
v -0.55100000 0.25500000 1.12100000 0.68235294 0.70980392 0.72549020
f 554 556 553
f 557 554 553
f 553 556 555
f 555 557 553
f 554 560 556
f 558 554 557
f 558 560 554
f 556 560 555
f 559 557 555
f 555 560 559
f 559 558 557
f 560 558 559

o thanh_doc_phai_z1.11
v 0.55100000 -0.15500000 1.09900000 0.68235294 0.70980392 0.72549020
v 0.55100000 -0.15500000 1.12100000 0.68235294 0.70980392 0.72549020
v 0.55100000 0.25500000 1.09900000 0.68235294 0.70980392 0.72549020
v 0.55100000 0.25500000 1.12100000 0.68235294 0.70980392 0.72549020
v 0.56900000 -0.15500000 1.09900000 0.68235294 0.70980392 0.72549020
v 0.56900000 -0.15500000 1.12100000 0.68235294 0.70980392 0.72549020
v 0.56900000 0.25500000 1.09900000 0.68235294 0.70980392 0.72549020
v 0.56900000 0.25500000 1.12100000 0.68235294 0.70980392 0.72549020
f 562 564 561
f 565 562 561
f 561 564 563
f 563 565 561
f 562 568 564
f 566 562 565
f 566 568 562
f 564 568 563
f 567 565 563
f 563 568 567
f 567 566 565
f 568 566 567

o thanh_doc_trai_z1.34
v -0.56900000 -0.15500000 1.32900000 0.68235294 0.70980392 0.72549020
v -0.56900000 -0.15500000 1.35100000 0.68235294 0.70980392 0.72549020
v -0.56900000 0.25500000 1.32900000 0.68235294 0.70980392 0.72549020
v -0.56900000 0.25500000 1.35100000 0.68235294 0.70980392 0.72549020
v -0.55100000 -0.15500000 1.32900000 0.68235294 0.70980392 0.72549020
v -0.55100000 -0.15500000 1.35100000 0.68235294 0.70980392 0.72549020
v -0.55100000 0.25500000 1.32900000 0.68235294 0.70980392 0.72549020
v -0.55100000 0.25500000 1.35100000 0.68235294 0.70980392 0.72549020
f 570 572 569
f 573 570 569
f 569 572 571
f 571 573 569
f 570 576 572
f 574 570 573
f 574 576 570
f 572 576 571
f 575 573 571
f 571 576 575
f 575 574 573
f 576 574 575

o thanh_doc_phai_z1.34
v 0.55100000 -0.15500000 1.32900000 0.68235294 0.70980392 0.72549020
v 0.55100000 -0.15500000 1.35100000 0.68235294 0.70980392 0.72549020
v 0.55100000 0.25500000 1.32900000 0.68235294 0.70980392 0.72549020
v 0.55100000 0.25500000 1.35100000 0.68235294 0.70980392 0.72549020
v 0.56900000 -0.15500000 1.32900000 0.68235294 0.70980392 0.72549020
v 0.56900000 -0.15500000 1.35100000 0.68235294 0.70980392 0.72549020
v 0.56900000 0.25500000 1.32900000 0.68235294 0.70980392 0.72549020
v 0.56900000 0.25500000 1.35100000 0.68235294 0.70980392 0.72549020
f 578 580 577
f 581 578 577
f 577 580 579
f 579 581 577
f 578 584 580
f 582 578 581
f 582 584 578
f 580 584 579
f 583 581 579
f 579 584 583
f 583 582 581
f 584 582 583

o tam_go_nau_trong_ke
v -0.24000000 -0.13000000 0.89250000 0.60784314 0.41568627 0.23137255
v -0.24000000 -0.13000000 0.95750000 0.60784314 0.41568627 0.23137255
v -0.24000000 0.09000000 0.89250000 0.60784314 0.41568627 0.23137255
v -0.24000000 0.09000000 0.95750000 0.60784314 0.41568627 0.23137255
v 0.18000000 -0.13000000 0.89250000 0.60784314 0.41568627 0.23137255
v 0.18000000 -0.13000000 0.95750000 0.60784314 0.41568627 0.23137255
v 0.18000000 0.09000000 0.89250000 0.60784314 0.41568627 0.23137255
v 0.18000000 0.09000000 0.95750000 0.60784314 0.41568627 0.23137255
f 586 588 585
f 589 586 585
f 585 588 587
f 587 589 585
f 586 592 588
f 590 586 589
f 590 592 586
f 588 592 587
f 591 589 587
f 587 592 591
f 591 590 589
f 592 590 591

o board_xanh_tren_ke
v -0.42000000 -0.05000000 1.09600000 0.22352941 0.50196078 0.35294118
v -0.42000000 -0.05000000 1.11400000 0.22352941 0.50196078 0.35294118
v -0.42000000 0.11000000 1.09600000 0.22352941 0.50196078 0.35294118
v -0.42000000 0.11000000 1.11400000 0.22352941 0.50196078 0.35294118
v -0.08000000 -0.05000000 1.09600000 0.22352941 0.50196078 0.35294118
v -0.08000000 -0.05000000 1.11400000 0.22352941 0.50196078 0.35294118
v -0.08000000 0.11000000 1.09600000 0.22352941 0.50196078 0.35294118
v -0.08000000 0.11000000 1.11400000 0.22352941 0.50196078 0.35294118
f 594 596 593
f 597 594 593
f 593 596 595
f 595 597 593
f 594 600 596
f 598 594 597
f 598 600 594
f 596 600 595
f 599 597 595
f 595 600 599
f 599 598 597
f 600 598 599

o mach_do_day_dien
v -0.18000000 -0.03000000 1.32250000 0.64705882 0.29411765 0.30980392
v -0.18000000 -0.03000000 1.34750000 0.64705882 0.29411765 0.30980392
v -0.18000000 0.11000000 1.32250000 0.64705882 0.29411765 0.30980392
v -0.18000000 0.11000000 1.34750000 0.64705882 0.29411765 0.30980392
v 0.22000000 -0.03000000 1.32250000 0.64705882 0.29411765 0.30980392
v 0.22000000 -0.03000000 1.34750000 0.64705882 0.29411765 0.30980392
v 0.22000000 0.11000000 1.32250000 0.64705882 0.29411765 0.30980392
v 0.22000000 0.11000000 1.34750000 0.64705882 0.29411765 0.30980392
f 602 604 601
f 605 602 601
f 601 604 603
f 603 605 601
f 602 608 604
f 606 602 605
f 606 608 602
f 604 608 603
f 607 605 603
f 603 608 607
f 607 606 605
f 608 606 607

o hop_den_phia_sau
v 0.28000000 0.10000000 1.09500000 0.13333333 0.13333333 0.13333333
v 0.28000000 0.10000000 1.21500000 0.13333333 0.13333333 0.13333333
v 0.28000000 0.20000000 1.09500000 0.13333333 0.13333333 0.13333333
v 0.28000000 0.20000000 1.21500000 0.13333333 0.13333333 0.13333333
v 0.56000000 0.10000000 1.09500000 0.13333333 0.13333333 0.13333333
v 0.56000000 0.10000000 1.21500000 0.13333333 0.13333333 0.13333333
v 0.56000000 0.20000000 1.09500000 0.13333333 0.13333333 0.13333333
v 0.56000000 0.20000000 1.21500000 0.13333333 0.13333333 0.13333333
f 610 612 609
f 613 610 609
f 609 612 611
f 611 613 609
f 610 616 612
f 614 610 613
f 614 616 610
f 612 616 611
f 615 613 611
f 611 616 615
f 615 614 613
f 616 614 615

o cuon_vai_tui_trang_1
v 0.39000000 -0.14000000 0.89000000 0.93333333 0.91372549 0.86274510
v 0.39000000 -0.14000000 1.07000000 0.93333333 0.91372549 0.86274510
v 0.39000000 0.04000000 0.89000000 0.93333333 0.91372549 0.86274510
v 0.39000000 0.04000000 1.07000000 0.93333333 0.91372549 0.86274510
v 0.61000000 -0.14000000 0.89000000 0.93333333 0.91372549 0.86274510
v 0.61000000 -0.14000000 1.07000000 0.93333333 0.91372549 0.86274510
v 0.61000000 0.04000000 0.89000000 0.93333333 0.91372549 0.86274510
v 0.61000000 0.04000000 1.07000000 0.93333333 0.91372549 0.86274510
f 618 620 617
f 621 618 617
f 617 620 619
f 619 621 617
f 618 624 620
f 622 618 621
f 622 624 618
f 620 624 619
f 623 621 619
f 619 624 623
f 623 622 621
f 624 622 623

o cuon_vai_tui_trang_2
v 0.53500000 -0.10000000 0.94500000 0.93333333 0.91372549 0.86274510
v 0.53500000 -0.10000000 1.09500000 0.93333333 0.91372549 0.86274510
v 0.53500000 0.06000000 0.94500000 0.93333333 0.91372549 0.86274510
v 0.53500000 0.06000000 1.09500000 0.93333333 0.91372549 0.86274510
v 0.78500000 -0.10000000 0.94500000 0.93333333 0.91372549 0.86274510
v 0.78500000 -0.10000000 1.09500000 0.93333333 0.91372549 0.86274510
v 0.78500000 0.06000000 0.94500000 0.93333333 0.91372549 0.86274510
v 0.78500000 0.06000000 1.09500000 0.93333333 0.91372549 0.86274510
f 626 628 625
f 629 626 625
f 625 628 627
f 627 629 625
f 626 632 628
f 630 626 629
f 630 632 626
f 628 632 627
f 631 629 627
f 627 632 631
f 631 630 629
f 632 630 631

o chai_nho_xanh
v 0.70000000 -0.20000000 0.83000000 0.18431373 0.42745098 0.60392157
v 0.70000000 -0.20000000 0.95000000 0.18431373 0.42745098 0.60392157
v 0.70000000 -0.16000000 0.83000000 0.18431373 0.42745098 0.60392157
v 0.70000000 -0.16000000 0.95000000 0.18431373 0.42745098 0.60392157
v 0.74000000 -0.20000000 0.83000000 0.18431373 0.42745098 0.60392157
v 0.74000000 -0.20000000 0.95000000 0.18431373 0.42745098 0.60392157
v 0.74000000 -0.16000000 0.83000000 0.18431373 0.42745098 0.60392157
v 0.74000000 -0.16000000 0.95000000 0.18431373 0.42745098 0.60392157
f 634 636 633
f 637 634 633
f 633 636 635
f 635 637 633
f 634 640 636
f 638 634 637
f 638 640 634
f 636 640 635
f 639 637 635
f 635 640 639
f 639 638 637
f 640 638 639

o vat_the_xanh_nho
v 0.34500000 -0.20000000 0.81000000 0.22352941 0.50196078 0.35294118
v 0.34500000 -0.20000000 0.87000000 0.22352941 0.50196078 0.35294118
v 0.34500000 -0.14000000 0.81000000 0.22352941 0.50196078 0.35294118
v 0.34500000 -0.14000000 0.87000000 0.22352941 0.50196078 0.35294118
v 0.43500000 -0.20000000 0.81000000 0.22352941 0.50196078 0.35294118
v 0.43500000 -0.20000000 0.87000000 0.22352941 0.50196078 0.35294118
v 0.43500000 -0.14000000 0.81000000 0.22352941 0.50196078 0.35294118
v 0.43500000 -0.14000000 0.87000000 0.22352941 0.50196078 0.35294118
f 642 644 641
f 645 642 641
f 641 644 643
f 643 645 641
f 642 648 644
f 646 642 645
f 646 648 642
f 644 648 643
f 647 645 643
f 643 648 647
f 647 646 645
f 648 646 647

o day_dien_1
v -0.50000000 -0.10000000 1.12000000 0.80000000 0.20000000 0.20000000
v -0.49831764 -0.09968100 1.11321267 0.80000000 0.20000000 0.20000000
v -0.19831764 0.02031900 1.19321267 0.80000000 0.20000000 0.20000000
v -0.20000000 0.02000000 1.20000000 0.80000000 0.20000000 0.20000000
v -0.50012224 -0.09590868 1.11432143 0.80000000 0.20000000 0.20000000
v -0.20012224 0.02409132 1.19432143 0.80000000 0.20000000 0.20000000
v -0.50188015 -0.09369911 1.11759921 0.80000000 0.20000000 0.20000000
v -0.20188015 0.02630089 1.19759921 0.80000000 0.20000000 0.20000000
v -0.50291990 -0.09389626 1.12179402 0.80000000 0.20000000 0.20000000
v -0.20291990 0.02610374 1.20179402 0.80000000 0.20000000 0.20000000
v -0.50284435 -0.09642483 1.12530357 0.80000000 0.20000000 0.20000000
v -0.20284435 0.02357517 1.20530357 0.80000000 0.20000000 0.20000000
v -0.50168236 -0.10031900 1.12678733 0.80000000 0.20000000 0.20000000
v -0.20168236 0.01968100 1.20678733 0.80000000 0.20000000 0.20000000
v -0.49987776 -0.10409132 1.12567857 0.80000000 0.20000000 0.20000000
v -0.19987776 0.01590868 1.20567857 0.80000000 0.20000000 0.20000000
v -0.49811985 -0.10630089 1.12240079 0.80000000 0.20000000 0.20000000
v -0.19811985 0.01369911 1.20240079 0.80000000 0.20000000 0.20000000
v -0.49708010 -0.10610374 1.11820598 0.80000000 0.20000000 0.20000000
v -0.19708010 0.01389626 1.19820598 0.80000000 0.20000000 0.20000000
v -0.49715565 -0.10357517 1.11469643 0.80000000 0.20000000 0.20000000
v -0.19715565 0.01642483 1.19469643 0.80000000 0.20000000 0.20000000
f 650 649 653
f 650 653 651
f 651 653 654
f 651 654 652
f 653 649 655
f 653 655 654
f 654 655 656
f 654 656 652
f 655 649 657
f 655 657 656
f 656 657 658
f 656 658 652
f 657 649 659
f 657 659 658
f 658 659 660
f 658 660 652
f 659 649 661
f 659 661 660
f 660 661 662
f 660 662 652
f 661 649 663
f 661 663 662
f 662 663 664
f 662 664 652
f 663 649 665
f 663 665 664
f 664 665 666
f 664 666 652
f 665 649 667
f 665 667 666
f 666 667 668
f 666 668 652
f 667 649 669
f 667 669 668
f 668 669 670
f 668 670 652
f 669 649 650
f 669 650 670
f 670 650 651
f 670 651 652

o day_dien_2
v -0.15000000 0.05000000 1.32000000 0.80000000 0.20000000 0.20000000
v -0.15324111 0.05022850 1.31379976 0.80000000 0.20000000 0.20000000
v 0.37675889 -0.02977150 1.03379976 0.80000000 0.20000000 0.20000000
v 0.38000000 -0.03000000 1.04000000 0.80000000 0.20000000 0.20000000
v -0.15207780 0.05426098 1.31484959 0.80000000 0.20000000 0.20000000
v 0.37792220 -0.02573902 1.03484959 0.80000000 0.20000000 0.20000000
v -0.15012085 0.05666592 1.31786670 0.80000000 0.20000000 0.20000000
v 0.37987915 -0.02333408 1.03786670 0.80000000 0.20000000 0.20000000
v -0.14811773 0.05652469 1.32169866 0.80000000 0.20000000 0.20000000
v 0.38188227 -0.02347531 1.04169866 0.80000000 0.20000000 0.20000000
v -0.14683358 0.05389126 1.32488179 0.80000000 0.20000000 0.20000000
v 0.38316642 -0.02610874 1.04488179 0.80000000 0.20000000 0.20000000
v -0.14675889 0.04977150 1.32620024 0.80000000 0.20000000 0.20000000
v 0.38324111 -0.03022850 1.04620024 0.80000000 0.20000000 0.20000000
v -0.14792220 0.04573902 1.32515041 0.80000000 0.20000000 0.20000000
v 0.38207780 -0.03426098 1.04515041 0.80000000 0.20000000 0.20000000
v -0.14987915 0.04333408 1.32213330 0.80000000 0.20000000 0.20000000
v 0.38012085 -0.03666592 1.04213330 0.80000000 0.20000000 0.20000000
v -0.15188227 0.04347531 1.31830134 0.80000000 0.20000000 0.20000000
v 0.37811773 -0.03652469 1.03830134 0.80000000 0.20000000 0.20000000
v -0.15316642 0.04610874 1.31511821 0.80000000 0.20000000 0.20000000
v 0.37683358 -0.03389126 1.03511821 0.80000000 0.20000000 0.20000000
f 672 671 675
f 672 675 673
f 673 675 676
f 673 676 674
f 675 671 677
f 675 677 676
f 676 677 678
f 676 678 674
f 677 671 679
f 677 679 678
f 678 679 680
f 678 680 674
f 679 671 681
f 679 681 680
f 680 681 682
f 680 682 674
f 681 671 683
f 681 683 682
f 682 683 684
f 682 684 674
f 683 671 685
f 683 685 684
f 684 685 686
f 684 686 674
f 685 671 687
f 685 687 686
f 686 687 688
f 686 688 674
f 687 671 689
f 687 689 688
f 688 689 690
f 688 690 674
f 689 671 691
f 689 691 690
f 690 691 692
f 690 692 674
f 691 671 672
f 691 672 692
f 692 672 673
f 692 673 674

o day_dien_3
v -0.45000000 0.16000000 1.08000000 0.10588235 0.10588235 0.10588235
v -0.45146917 0.16034270 1.07316450 0.10588235 0.10588235 0.10588235
v 0.04853083 -0.08965730 0.95316450 0.10588235 0.10588235 0.10588235
v 0.05000000 -0.09000000 0.96000000 0.10588235 0.10588235 0.10588235
v -0.44938951 0.16397209 1.07426853 0.10588235 0.10588235 0.10588235
v 0.05061049 -0.08602791 0.95426853 0.10588235 0.10588235 0.10588235
v -0.44754303 0.16608428 1.07756178 0.10588235 0.10588235 0.10588235
v 0.05245697 -0.08391572 0.95756178 0.10588235 0.10588235 0.10588235
v -0.44663504 0.16587247 1.08178636 0.10588235 0.10588235 0.10588235
v 0.05336496 -0.08412753 0.96178636 0.10588235 0.10588235 0.10588235
v -0.44701234 0.16341759 1.08532860 0.10588235 0.10588235 0.10588235
v 0.05298766 -0.08658241 0.96532860 0.10588235 0.10588235 0.10588235
v -0.44853083 0.15965730 1.08683550 0.10588235 0.10588235 0.10588235
v 0.05146917 -0.09034270 0.96683550 0.10588235 0.10588235 0.10588235
v -0.45061049 0.15602791 1.08573147 0.10588235 0.10588235 0.10588235
v 0.04938951 -0.09397209 0.96573147 0.10588235 0.10588235 0.10588235
v -0.45245697 0.15391572 1.08243822 0.10588235 0.10588235 0.10588235
v 0.04754303 -0.09608428 0.96243822 0.10588235 0.10588235 0.10588235
v -0.45336496 0.15412753 1.07821364 0.10588235 0.10588235 0.10588235
v 0.04663504 -0.09587247 0.95821364 0.10588235 0.10588235 0.10588235
v -0.45298766 0.15658241 1.07467140 0.10588235 0.10588235 0.10588235
v 0.04701234 -0.09341759 0.95467140 0.10588235 0.10588235 0.10588235
f 694 693 697
f 694 697 695
f 695 697 698
f 695 698 696
f 697 693 699
f 697 699 698
f 698 699 700
f 698 700 696
f 699 693 701
f 699 701 700
f 700 701 702
f 700 702 696
f 701 693 703
f 701 703 702
f 702 703 704
f 702 704 696
f 703 693 705
f 703 705 704
f 704 705 706
f 704 706 696
f 705 693 707
f 705 707 706
f 706 707 708
f 706 708 696
f 707 693 709
f 707 709 708
f 708 709 710
f 708 710 696
f 709 693 711
f 709 711 710
f 710 711 712
f 710 712 696
f 711 693 713
f 711 713 712
f 712 713 714
f 712 714 696
f 713 693 694
f 713 694 714
f 714 694 695
f 714 695 696

o day_dien_4
v 0.12000000 0.11000000 1.31000000 0.18431373 0.60784314 0.34901961
v 0.11642648 0.11066692 1.30401793 0.18431373 0.60784314 0.34901961
v 0.56642648 -0.07933308 1.01401793 0.18431373 0.60784314 0.34901961
v 0.57000000 -0.08000000 1.02000000 0.18431373 0.60784314 0.34901961
v 0.11848513 0.11439722 1.30476840 0.18431373 0.60784314 0.34901961
v 0.56848513 -0.07560278 1.01476840 0.18431373 0.60784314 0.34901961
v 0.12112240 0.11644792 1.30751716 0.18431373 0.60784314 0.34901961
v 0.57112240 -0.07355208 1.01751716 0.18431373 0.60784314 0.34901961
v 0.12333096 0.11603574 1.31121428 0.18431373 0.60784314 0.34901961
v 0.57333096 -0.07396426 1.02121428 0.18431373 0.60784314 0.34901961
v 0.12426721 0.11331812 1.31444759 0.18431373 0.60784314 0.34901961
v 0.57426721 -0.07668188 1.02444759 0.18431373 0.60784314 0.34901961
v 0.12357352 0.10933308 1.31598207 0.18431373 0.60784314 0.34901961
v 0.57357352 -0.08066692 1.02598207 0.18431373 0.60784314 0.34901961
v 0.12151487 0.10560278 1.31523160 0.18431373 0.60784314 0.34901961
v 0.57151487 -0.08439722 1.02523160 0.18431373 0.60784314 0.34901961
v 0.11887760 0.10355208 1.31248284 0.18431373 0.60784314 0.34901961
v 0.56887760 -0.08644792 1.02248284 0.18431373 0.60784314 0.34901961
v 0.11666904 0.10396426 1.30878572 0.18431373 0.60784314 0.34901961
v 0.56666904 -0.08603574 1.01878572 0.18431373 0.60784314 0.34901961
v 0.11573279 0.10668188 1.30555241 0.18431373 0.60784314 0.34901961
v 0.56573279 -0.08331812 1.01555241 0.18431373 0.60784314 0.34901961
f 716 715 719
f 716 719 717
f 717 719 720
f 717 720 718
f 719 715 721
f 719 721 720
f 720 721 722
f 720 722 718
f 721 715 723
f 721 723 722
f 722 723 724
f 722 724 718
f 723 715 725
f 723 725 724
f 724 725 726
f 724 726 718
f 725 715 727
f 725 727 726
f 726 727 728
f 726 728 718
f 727 715 729
f 727 729 728
f 728 729 730
f 728 730 718
f 729 715 731
f 729 731 730
f 730 731 732
f 730 732 718
f 731 715 733
f 731 733 732
f 732 733 734
f 732 734 718
f 733 715 735
f 733 735 734
f 734 735 736
f 734 736 718
f 735 715 716
f 735 716 736
f 736 716 717
f 736 717 718

o day_dien_5
v -0.52000000 -0.12000000 0.88000000 0.21568627 0.47058824 0.74901961
v -0.52029653 -0.12001259 0.87300629 0.21568627 0.47058824 0.74901961
v -0.05029653 -0.08001259 0.85300629 0.21568627 0.47058824 0.74901961
v -0.05000000 -0.08000000 0.86000000 0.21568627 0.47058824 0.74901961
v -0.52058850 -0.11591049 0.87434937 0.21568627 0.47058824 0.74901961
v -0.05058850 -0.07591049 0.85434937 0.21568627 0.47058824 0.74901961
v -0.52065567 -0.11337044 0.87785080 0.21568627 0.47058824 0.74901961
v -0.05065567 -0.07337044 0.85785080 0.21568627 0.47058824 0.74901961
v -0.52047241 -0.11336266 0.88217315 0.21568627 0.47058824 0.74901961
v -0.05047241 -0.07336266 0.86217315 0.21568627 0.47058824 0.74901961
v -0.52010870 -0.11589012 0.88566543 0.21568627 0.47058824 0.74901961
v -0.05010870 -0.07589012 0.86566543 0.21568627 0.47058824 0.74901961
v -0.51970347 -0.11998741 0.88699371 0.21568627 0.47058824 0.74901961
v -0.04970347 -0.07998741 0.86699371 0.21568627 0.47058824 0.74901961
v -0.51941150 -0.12408951 0.88565063 0.21568627 0.47058824 0.74901961
v -0.04941150 -0.08408951 0.86565063 0.21568627 0.47058824 0.74901961
v -0.51934433 -0.12662956 0.88214920 0.21568627 0.47058824 0.74901961
v -0.04934433 -0.08662956 0.86214920 0.21568627 0.47058824 0.74901961
v -0.51952759 -0.12663734 0.87782685 0.21568627 0.47058824 0.74901961
v -0.04952759 -0.08663734 0.85782685 0.21568627 0.47058824 0.74901961
v -0.51989130 -0.12410988 0.87433457 0.21568627 0.47058824 0.74901961
v -0.04989130 -0.08410988 0.85433457 0.21568627 0.47058824 0.74901961
f 738 737 741
f 738 741 739
f 739 741 742
f 739 742 740
f 741 737 743
f 741 743 742
f 742 743 744
f 742 744 740
f 743 737 745
f 743 745 744
f 744 745 746
f 744 746 740
f 745 737 747
f 745 747 746
f 746 747 748
f 746 748 740
f 747 737 749
f 747 749 748
f 748 749 750
f 748 750 740
f 749 737 751
f 749 751 750
f 750 751 752
f 750 752 740
f 751 737 753
f 751 753 752
f 752 753 754
f 752 754 740
f 753 737 755
f 753 755 754
f 754 755 756
f 754 756 740
f 755 737 757
f 755 757 756
f 756 757 758
f 756 758 740
f 757 737 738
f 757 738 758
f 758 738 739
f 758 739 740

o day_dien_6
v 0.20000000 0.13000000 1.34000000 0.10588235 0.10588235 0.10588235
v 0.19541257 0.13089445 1.33478891 0.10588235 0.10588235 0.10588235
v 0.46541257 0.00089445 1.07478891 0.10588235 0.10588235 0.10588235
v 0.47000000 0.00000000 1.08000000 0.10588235 0.10588235 0.10588235
v 0.19763691 0.13457525 1.33525839 0.10588235 0.10588235 0.10588235
v 0.46763691 0.00457525 1.07525839 0.10588235 0.10588235 0.10588235
v 0.20076386 0.13650846 1.33753901 0.10588235 0.10588235 0.10588235
v 0.47076386 0.00650846 1.07753901 0.10588235 0.10588235 0.10588235
v 0.20359904 0.13595566 1.34075964 0.10588235 0.10588235 0.10588235
v 0.47359904 0.00595566 1.08075964 0.10588235 0.10588235 0.10588235
v 0.20505952 0.13312799 1.34369012 0.10588235 0.10588235 0.10588235
v 0.47505952 0.00312799 1.08369012 0.10588235 0.10588235 0.10588235
v 0.20458743 0.12910555 1.34521109 0.10588235 0.10588235 0.10588235
v 0.47458743 -0.00089445 1.08521109 0.10588235 0.10588235 0.10588235
v 0.20236309 0.12542475 1.34474161 0.10588235 0.10588235 0.10588235
v 0.47236309 -0.00457525 1.08474161 0.10588235 0.10588235 0.10588235
v 0.19923614 0.12349154 1.34246099 0.10588235 0.10588235 0.10588235
v 0.46923614 -0.00650846 1.08246099 0.10588235 0.10588235 0.10588235
v 0.19640096 0.12404434 1.33924036 0.10588235 0.10588235 0.10588235
v 0.46640096 -0.00595566 1.07924036 0.10588235 0.10588235 0.10588235
v 0.19494048 0.12687201 1.33630988 0.10588235 0.10588235 0.10588235
v 0.46494048 -0.00312799 1.07630988 0.10588235 0.10588235 0.10588235
f 760 759 763
f 760 763 761
f 761 763 764
f 761 764 762
f 763 759 765
f 763 765 764
f 764 765 766
f 764 766 762
f 765 759 767
f 765 767 766
f 766 767 768
f 766 768 762
f 767 759 769
f 767 769 768
f 768 769 770
f 768 770 762
f 769 759 771
f 769 771 770
f 770 771 772
f 770 772 762
f 771 759 773
f 771 773 772
f 772 773 774
f 772 774 762
f 773 759 775
f 773 775 774
f 774 775 776
f 774 776 762
f 775 759 777
f 775 777 776
f 776 777 778
f 776 778 762
f 777 759 779
f 777 779 778
f 778 779 780
f 778 780 762
f 779 759 760
f 779 760 780
f 780 760 761
f 780 761 762

o khung_do_doc_phai_1
v 0.81250000 0.24250000 0.03500000 0.64705882 0.29411765 0.30980392
v 0.81250000 0.24250000 1.48500000 0.64705882 0.29411765 0.30980392
v 0.81250000 0.27750000 0.03500000 0.64705882 0.29411765 0.30980392
v 0.81250000 0.27750000 1.48500000 0.64705882 0.29411765 0.30980392
v 0.84750000 0.24250000 0.03500000 0.64705882 0.29411765 0.30980392
v 0.84750000 0.24250000 1.48500000 0.64705882 0.29411765 0.30980392
v 0.84750000 0.27750000 0.03500000 0.64705882 0.29411765 0.30980392
v 0.84750000 0.27750000 1.48500000 0.64705882 0.29411765 0.30980392
f 782 784 781
f 785 782 781
f 781 784 783
f 783 785 781
f 782 788 784
f 786 782 785
f 786 788 782
f 784 788 783
f 787 785 783
f 783 788 787
f 787 786 785
f 788 786 787

o khung_do_doc_phai_2
v 1.03250000 0.24250000 0.03500000 0.64705882 0.29411765 0.30980392
v 1.03250000 0.24250000 1.48500000 0.64705882 0.29411765 0.30980392
v 1.03250000 0.27750000 0.03500000 0.64705882 0.29411765 0.30980392
v 1.03250000 0.27750000 1.48500000 0.64705882 0.29411765 0.30980392
v 1.06750000 0.24250000 0.03500000 0.64705882 0.29411765 0.30980392
v 1.06750000 0.24250000 1.48500000 0.64705882 0.29411765 0.30980392
v 1.06750000 0.27750000 0.03500000 0.64705882 0.29411765 0.30980392
v 1.06750000 0.27750000 1.48500000 0.64705882 0.29411765 0.30980392
f 790 792 789
f 793 790 789
f 789 792 791
f 791 793 789
f 790 796 792
f 794 790 793
f 794 796 790
f 792 796 791
f 795 793 791
f 791 796 795
f 795 794 793
f 796 794 795

o khung_do_ngang_0.25
v 0.80000000 0.24250000 0.23250000 0.64705882 0.29411765 0.30980392
v 0.80000000 0.24250000 0.26750000 0.64705882 0.29411765 0.30980392
v 0.80000000 0.27750000 0.23250000 0.64705882 0.29411765 0.30980392
v 0.80000000 0.27750000 0.26750000 0.64705882 0.29411765 0.30980392
v 1.08000000 0.24250000 0.23250000 0.64705882 0.29411765 0.30980392
v 1.08000000 0.24250000 0.26750000 0.64705882 0.29411765 0.30980392
v 1.08000000 0.27750000 0.23250000 0.64705882 0.29411765 0.30980392
v 1.08000000 0.27750000 0.26750000 0.64705882 0.29411765 0.30980392
f 798 800 797
f 801 798 797
f 797 800 799
f 799 801 797
f 798 804 800
f 802 798 801
f 802 804 798
f 800 804 799
f 803 801 799
f 799 804 803
f 803 802 801
f 804 802 803

o khung_do_ngang_0.7
v 0.80000000 0.24250000 0.68250000 0.64705882 0.29411765 0.30980392
v 0.80000000 0.24250000 0.71750000 0.64705882 0.29411765 0.30980392
v 0.80000000 0.27750000 0.68250000 0.64705882 0.29411765 0.30980392
v 0.80000000 0.27750000 0.71750000 0.64705882 0.29411765 0.30980392
v 1.08000000 0.24250000 0.68250000 0.64705882 0.29411765 0.30980392
v 1.08000000 0.24250000 0.71750000 0.64705882 0.29411765 0.30980392
v 1.08000000 0.27750000 0.68250000 0.64705882 0.29411765 0.30980392
v 1.08000000 0.27750000 0.71750000 0.64705882 0.29411765 0.30980392
f 806 808 805
f 809 806 805
f 805 808 807
f 807 809 805
f 806 812 808
f 810 806 809
f 810 812 806
f 808 812 807
f 811 809 807
f 807 812 811
f 811 810 809
f 812 810 811

o khung_do_ngang_1.15
v 0.80000000 0.24250000 1.13250000 0.64705882 0.29411765 0.30980392
v 0.80000000 0.24250000 1.16750000 0.64705882 0.29411765 0.30980392
v 0.80000000 0.27750000 1.13250000 0.64705882 0.29411765 0.30980392
v 0.80000000 0.27750000 1.16750000 0.64705882 0.29411765 0.30980392
v 1.08000000 0.24250000 1.13250000 0.64705882 0.29411765 0.30980392
v 1.08000000 0.24250000 1.16750000 0.64705882 0.29411765 0.30980392
v 1.08000000 0.27750000 1.13250000 0.64705882 0.29411765 0.30980392
v 1.08000000 0.27750000 1.16750000 0.64705882 0.29411765 0.30980392
f 814 816 813
f 817 814 813
f 813 816 815
f 815 817 813
f 814 820 816
f 818 814 817
f 818 820 814
f 816 820 815
f 819 817 815
f 815 820 819
f 819 818 817
f 820 818 819

o khung_do_ngang_1.42
v 0.80000000 0.24250000 1.40250000 0.64705882 0.29411765 0.30980392
v 0.80000000 0.24250000 1.43750000 0.64705882 0.29411765 0.30980392
v 0.80000000 0.27750000 1.40250000 0.64705882 0.29411765 0.30980392
v 0.80000000 0.27750000 1.43750000 0.64705882 0.29411765 0.30980392
v 1.08000000 0.24250000 1.40250000 0.64705882 0.29411765 0.30980392
v 1.08000000 0.24250000 1.43750000 0.64705882 0.29411765 0.30980392
v 1.08000000 0.27750000 1.40250000 0.64705882 0.29411765 0.30980392
v 1.08000000 0.27750000 1.43750000 0.64705882 0.29411765 0.30980392
f 822 824 821
f 825 822 821
f 821 824 823
f 823 825 821
f 822 828 824
f 826 822 825
f 826 828 822
f 824 828 823
f 827 825 823
f 823 828 827
f 827 826 825
f 828 826 827

o man_hinh_den_o_ke_phai
v 0.87000000 0.22500000 0.97500000 0.11372549 0.14117647 0.14901961
v 0.87000000 0.22500000 1.14500000 0.11372549 0.14117647 0.14901961
v 0.87000000 0.25500000 0.97500000 0.11372549 0.14117647 0.14901961
v 0.87000000 0.25500000 1.14500000 0.11372549 0.14117647 0.14901961
v 1.03000000 0.22500000 0.97500000 0.11372549 0.14117647 0.14901961
v 1.03000000 0.22500000 1.14500000 0.11372549 0.14117647 0.14901961
v 1.03000000 0.25500000 0.97500000 0.11372549 0.14117647 0.14901961
v 1.03000000 0.25500000 1.14500000 0.11372549 0.14117647 0.14901961
f 830 832 829
f 833 830 829
f 829 832 831
f 831 833 829
f 830 836 832
f 834 830 833
f 834 836 830
f 832 836 831
f 835 833 831
f 831 836 835
f 835 834 833
f 836 834 835

o mat_ban_go_phai
v 0.58000000 -0.82500000 0.51750000 0.60784314 0.41568627 0.23137255
v 0.58000000 -0.82500000 0.56250000 0.60784314 0.41568627 0.23137255
v 0.58000000 -0.27500000 0.51750000 0.60784314 0.41568627 0.23137255
v 0.58000000 -0.27500000 0.56250000 0.60784314 0.41568627 0.23137255
v 1.28000000 -0.82500000 0.51750000 0.60784314 0.41568627 0.23137255
v 1.28000000 -0.82500000 0.56250000 0.60784314 0.41568627 0.23137255
v 1.28000000 -0.27500000 0.51750000 0.60784314 0.41568627 0.23137255
v 1.28000000 -0.27500000 0.56250000 0.60784314 0.41568627 0.23137255
f 838 840 837
f 841 838 837
f 837 840 839
f 839 841 837
f 838 844 840
f 842 838 841
f 842 844 838
f 840 844 839
f 843 841 839
f 839 844 843
f 843 842 841
f 844 842 843

o chan_ban_truoc
v 0.60500000 -0.80500000 -0.00500000 0.71764706 0.69803922 0.64705882
v 0.60500000 -0.80500000 0.54500000 0.71764706 0.69803922 0.64705882
v 0.60500000 -0.75500000 -0.00500000 0.71764706 0.69803922 0.64705882
v 0.60500000 -0.75500000 0.54500000 0.71764706 0.69803922 0.64705882
v 0.65500000 -0.80500000 -0.00500000 0.71764706 0.69803922 0.64705882
v 0.65500000 -0.80500000 0.54500000 0.71764706 0.69803922 0.64705882
v 0.65500000 -0.75500000 -0.00500000 0.71764706 0.69803922 0.64705882
v 0.65500000 -0.75500000 0.54500000 0.71764706 0.69803922 0.64705882
f 846 848 845
f 849 846 845
f 845 848 847
f 847 849 845
f 846 852 848
f 850 846 849
f 850 852 846
f 848 852 847
f 851 849 847
f 847 852 851
f 851 850 849
f 852 850 851

o chan_ban_sau
v 1.17500000 -0.39500000 -0.00500000 0.71764706 0.69803922 0.64705882
v 1.17500000 -0.39500000 0.54500000 0.71764706 0.69803922 0.64705882
v 1.17500000 -0.34500000 -0.00500000 0.71764706 0.69803922 0.64705882
v 1.17500000 -0.34500000 0.54500000 0.71764706 0.69803922 0.64705882
v 1.22500000 -0.39500000 -0.00500000 0.71764706 0.69803922 0.64705882
v 1.22500000 -0.39500000 0.54500000 0.71764706 0.69803922 0.64705882
v 1.22500000 -0.34500000 -0.00500000 0.71764706 0.69803922 0.64705882
v 1.22500000 -0.34500000 0.54500000 0.71764706 0.69803922 0.64705882
f 854 856 853
f 857 854 853
f 853 856 855
f 855 857 853
f 854 860 856
f 858 854 857
f 858 860 854
f 856 860 855
f 859 857 855
f 855 860 859
f 859 858 857
f 860 858 859

o tam_phu_mo_ben_trai
v -0.89000000 -0.54500000 0.00500000 0.87843137 0.88627451 0.87843137
v -0.89000000 -0.54500000 0.85500000 0.87843137 0.88627451 0.87843137
v -0.89000000 -0.49500000 0.00500000 0.87843137 0.88627451 0.87843137
v -0.89000000 -0.49500000 0.85500000 0.87843137 0.88627451 0.87843137
v -0.71000000 -0.54500000 0.00500000 0.87843137 0.88627451 0.87843137
v -0.71000000 -0.54500000 0.85500000 0.87843137 0.88627451 0.87843137
v -0.71000000 -0.49500000 0.00500000 0.87843137 0.88627451 0.87843137
v -0.71000000 -0.49500000 0.85500000 0.87843137 0.88627451 0.87843137
f 862 864 861
f 865 862 861
f 861 864 863
f 863 865 861
f 862 868 864
f 866 862 865
f 866 868 862
f 864 868 863
f 867 865 863
f 863 868 867
f 867 866 865
f 868 866 867

o tam_phu_mo_ben_phai
v 0.64000000 -0.57500000 0.00000000 0.87843137 0.88627451 0.87843137
v 0.64000000 -0.57500000 0.70000000 0.87843137 0.88627451 0.87843137
v 0.64000000 -0.52500000 0.00000000 0.87843137 0.88627451 0.87843137
v 0.64000000 -0.52500000 0.70000000 0.87843137 0.88627451 0.87843137
v 0.80000000 -0.57500000 0.00000000 0.87843137 0.88627451 0.87843137
v 0.80000000 -0.57500000 0.70000000 0.87843137 0.88627451 0.87843137
v 0.80000000 -0.52500000 0.00000000 0.87843137 0.88627451 0.87843137
v 0.80000000 -0.52500000 0.70000000 0.87843137 0.88627451 0.87843137
f 870 872 869
f 873 870 869
f 869 872 871
f 871 873 869
f 870 876 872
f 874 870 873
f 874 876 870
f 872 876 871
f 875 873 871
f 871 876 875
f 875 874 873
f 876 874 875

o san_nha
v -0.95000000 -0.85000000 -0.02500000 0.78823529 0.78823529 0.75294118
v -0.95000000 -0.85000000 0.00000000 0.78823529 0.78823529 0.75294118
v -0.95000000 0.75000000 -0.02500000 0.78823529 0.78823529 0.75294118
v -0.95000000 0.75000000 0.00000000 0.78823529 0.78823529 0.75294118
v 1.25000000 -0.85000000 -0.02500000 0.78823529 0.78823529 0.75294118
v 1.25000000 -0.85000000 0.00000000 0.78823529 0.78823529 0.75294118
v 1.25000000 0.75000000 -0.02500000 0.78823529 0.78823529 0.75294118
v 1.25000000 0.75000000 0.00000000 0.78823529 0.78823529 0.75294118
f 878 880 877
f 881 878 877
f 877 880 879
f 879 881 877
f 878 884 880
f 882 878 881
f 882 884 878
f 880 884 879
f 883 881 879
f 879 884 883
f 883 882 881
f 884 882 883

o tuong_sau
v -0.95000000 0.41750000 0.00000000 0.81568627 0.83137255 0.81176471
v -0.95000000 0.41750000 1.65000000 0.81568627 0.83137255 0.81176471
v -0.95000000 0.44250000 0.00000000 0.81568627 0.83137255 0.81176471
v -0.95000000 0.44250000 1.65000000 0.81568627 0.83137255 0.81176471
v 1.25000000 0.41750000 0.00000000 0.81568627 0.83137255 0.81176471
v 1.25000000 0.41750000 1.65000000 0.81568627 0.83137255 0.81176471
v 1.25000000 0.44250000 0.00000000 0.81568627 0.83137255 0.81176471
v 1.25000000 0.44250000 1.65000000 0.81568627 0.83137255 0.81176471
f 886 888 885
f 889 886 885
f 885 888 887
f 887 889 885
f 886 892 888
f 890 886 889
f 890 892 886
f 888 892 887
f 891 889 887
f 887 892 891
f 891 890 889
f 892 890 891

