# Blender 5.0.1
# www.blender.org
mtllib school_chair_FIXED_Unity.mtl
o Back_left_post
v -0.220000 0.480000 0.219000
v -0.220000 1.080000 0.219000
v -0.215674 0.480000 0.218315
v -0.215674 1.080000 0.218315
v -0.211771 0.480000 0.216326
v -0.211771 1.080000 0.216326
v -0.208674 0.480000 0.213229
v -0.208674 1.080000 0.213229
v -0.206685 0.480000 0.209326
v -0.206685 1.080000 0.209326
v -0.206000 0.480000 0.205000
v -0.206000 1.080000 0.205000
v -0.206685 0.480000 0.200674
v -0.206685 1.080000 0.200674
v -0.208674 0.480000 0.196771
v -0.208674 1.080000 0.196771
v -0.211771 0.480000 0.193674
v -0.211771 1.080000 0.193674
v -0.215674 0.480000 0.191685
v -0.215674 1.080000 0.191685
v -0.220000 0.480000 0.191000
v -0.220000 1.080000 0.191000
v -0.224326 0.480000 0.191685
v -0.224326 1.080000 0.191685
v -0.228229 0.480000 0.193674
v -0.228229 1.080000 0.193674
v -0.231326 0.480000 0.196771
v -0.231326 1.080000 0.196771
v -0.233315 0.480000 0.200674
v -0.233315 1.080000 0.200674
v -0.234000 0.480000 0.205000
v -0.234000 1.080000 0.205000
v -0.233315 0.480000 0.209326
v -0.233315 1.080000 0.209326
v -0.231326 0.480000 0.213229
v -0.231326 1.080000 0.213229
v -0.228229 0.480000 0.216326
v -0.228229 1.080000 0.216326
v -0.224326 0.480000 0.218315
v -0.224326 1.080000 0.218315
v -0.220000 0.480000 0.205000
v -0.220000 1.080000 0.205000
vn 0.1564 -0.0000 0.9877
vn 0.4541 -0.0000 0.8910
vn 0.4540 -0.0000 0.8910
vn 0.7071 -0.0000 0.7071
vn 0.8910 -0.0000 0.4540
vn 0.9877 -0.0000 0.1564
vn 0.9877 -0.0000 -0.1564
vn 0.8910 -0.0000 -0.4540
vn 0.7071 -0.0000 -0.7071
vn 0.4540 -0.0000 -0.8910
vn 0.1564 -0.0000 -0.9877
vn -0.1564 -0.0000 -0.9877
vn -0.4541 -0.0000 -0.8910
vn -0.4540 -0.0000 -0.8910
vn -0.7071 -0.0000 -0.7071
vn -0.8910 -0.0000 -0.4541
vn -0.8910 -0.0000 -0.4540
vn -0.9877 -0.0000 -0.1564
vn -0.9877 -0.0000 0.1564
vn -0.8910 -0.0000 0.4540
vn -0.7071 -0.0000 0.7071
vn -0.4541 -0.0000 0.8910
vn -0.4540 -0.0000 0.8910
vn -0.1564 -0.0000 0.9877
vn -0.0000 -1.0000 -0.0000
vn -0.0000 1.0000 -0.0000
s 1
usemtl metal
f 1//1 3//1 4//1
f 1//1 4//1 2//1
f 3//2 5//3 6//3
f 3//2 6//3 4//3
f 5//4 7//4 8//4
f 5//4 8//4 6//4
f 7//5 9//5 10//5
f 7//5 10//5 8//5
f 9//6 11//6 12//6
f 9//6 12//6 10//6
f 11//7 13//7 14//7
f 11//7 14//7 12//7
f 13//8 15//8 16//8
f 13//8 16//8 14//8
f 15//9 17//9 18//9
f 15//9 18//9 16//9
f 17//10 19//10 20//10
f 17//10 20//10 18//10
f 19//11 21//11 22//11
f 19//11 22//11 20//11
f 21//12 23//12 24//12
f 21//12 24//12 22//12
f 23//13 25//13 26//14
f 23//13 26//14 24//14
f 25//15 27//15 28//15
f 25//15 28//15 26//15
f 27//16 29//16 30//17
f 27//16 30//17 28//17
f 29//18 31//18 32//18
f 29//18 32//18 30//18
f 31//19 33//19 34//19
f 31//19 34//19 32//19
f 33//20 35//20 36//20
f 33//20 36//20 34//20
f 35//21 37//21 38//21
f 35//21 38//21 36//21
f 37//22 39//22 40//23
f 37//22 40//23 38//23
f 39//24 1//24 2//24
f 39//24 2//24 40//24
f 41//25 3//25 1//25
f 42//26 2//26 4//26
f 41//25 5//25 3//25
f 42//26 4//26 6//26
f 41//25 7//25 5//25
f 42//26 6//26 8//26
f 41//25 9//25 7//25
f 42//26 8//26 10//26
f 41//25 11//25 9//25
f 42//26 10//26 12//26
f 41//25 13//25 11//25
f 42//26 12//26 14//26
f 41//25 15//25 13//25
f 42//26 14//26 16//26
f 41//25 17//25 15//25
f 42//26 16//26 18//26
f 41//25 19//25 17//25
f 42//26 18//26 20//26
f 41//25 21//25 19//25
f 42//26 20//26 22//26
f 41//25 23//25 21//25
f 42//26 22//26 24//26
f 41//25 25//25 23//25
f 42//26 24//26 26//26
f 41//25 27//25 25//25
f 42//26 26//26 28//26
f 41//25 29//25 27//25
f 42//26 28//26 30//26
f 41//25 31//25 29//25
f 42//26 30//26 32//26
f 41//25 33//25 31//25
f 42//26 32//26 34//26
f 41//25 35//25 33//25
f 42//26 34//26 36//26
f 41//25 37//25 35//25
f 42//26 36//26 38//26
f 41//25 39//25 37//25
f 42//26 38//26 40//26
f 41//25 1//25 39//25
f 42//26 40//26 2//26
o Back_right_post
v 0.220000 0.480000 0.219000
v 0.220000 1.080000 0.219000
v 0.224326 0.480000 0.218315
v 0.224326 1.080000 0.218315
v 0.228229 0.480000 0.216326
v 0.228229 1.080000 0.216326
v 0.231326 0.480000 0.213229
v 0.231326 1.080000 0.213229
v 0.233315 0.480000 0.209326
v 0.233315 1.080000 0.209326
v 0.234000 0.480000 0.205000
v 0.234000 1.080000 0.205000
v 0.233315 0.480000 0.200674
v 0.233315 1.080000 0.200674
v 0.231326 0.480000 0.196771
v 0.231326 1.080000 0.196771
v 0.228229 0.480000 0.193674
v 0.228229 1.080000 0.193674
v 0.224326 0.480000 0.191685
v 0.224326 1.080000 0.191685
v 0.220000 0.480000 0.191000
v 0.220000 1.080000 0.191000
v 0.215674 0.480000 0.191685
v 0.215674 1.080000 0.191685
v 0.211771 0.480000 0.193674
v 0.211771 1.080000 0.193674
v 0.208674 0.480000 0.196771
v 0.208674 1.080000 0.196771
v 0.206685 0.480000 0.200674
v 0.206685 1.080000 0.200674
v 0.206000 0.480000 0.205000
v 0.206000 1.080000 0.205000
v 0.206685 0.480000 0.209326
v 0.206685 1.080000 0.209326
v 0.208674 0.480000 0.213229
v 0.208674 1.080000 0.213229
v 0.211771 0.480000 0.216326
v 0.211771 1.080000 0.216326
v 0.215674 0.480000 0.218315
v 0.215674 1.080000 0.218315
v 0.220000 0.480000 0.205000
v 0.220000 1.080000 0.205000
vn 0.1564 -0.0000 0.9877
vn 0.4541 -0.0000 0.8910
vn 0.4540 -0.0000 0.8910
vn 0.7071 -0.0000 0.7071
vn 0.8910 -0.0000 0.4540
vn 0.9877 -0.0000 0.1564
vn 0.9877 -0.0000 -0.1564
vn 0.8910 -0.0000 -0.4540
vn 0.8910 -0.0000 -0.4541
vn 0.7071 -0.0000 -0.7071
vn 0.4540 -0.0000 -0.8910
vn 0.1564 -0.0000 -0.9877
vn -0.1564 -0.0000 -0.9877
vn -0.4541 -0.0000 -0.8910
vn -0.4540 -0.0000 -0.8910
vn -0.7071 -0.0000 -0.7071
vn -0.8910 -0.0000 -0.4540
vn -0.9877 -0.0000 -0.1564
vn -0.9877 -0.0000 0.1564
vn -0.8910 -0.0000 0.4540
vn -0.7071 -0.0000 0.7071
vn -0.4541 -0.0000 0.8910
vn -0.4540 -0.0000 0.8910
vn -0.1564 -0.0000 0.9877
vn -0.0000 -1.0000 -0.0000
vn -0.0000 1.0000 -0.0000
s 1
usemtl metal
f 43//27 45//27 46//27
f 43//27 46//27 44//27
f 45//28 47//29 48//29
f 45//28 48//29 46//29
f 47//30 49//30 50//30
f 47//30 50//30 48//30
f 49//31 51//31 52//31
f 49//31 52//31 50//31
f 51//32 53//32 54//32
f 51//32 54//32 52//32
f 53//33 55//33 56//33
f 53//33 56//33 54//33
f 55//34 57//34 58//35
f 55//34 58//35 56//35
f 57//36 59//36 60//36
f 57//36 60//36 58//36
f 59//37 61//37 62//37
f 59//37 62//37 60//37
f 61//38 63//38 64//38
f 61//38 64//38 62//38
f 63//39 65//39 66//39
f 63//39 66//39 64//39
f 65//40 67//40 68//41
f 65//40 68//41 66//41
f 67//42 69//42 70//42
f 67//42 70//42 68//42
f 69//43 71//43 72//43
f 69//43 72//43 70//43
f 71//44 73//44 74//44
f 71//44 74//44 72//44
f 73//45 75//45 76//45
f 73//45 76//45 74//45
f 75//46 77//46 78//46
f 75//46 78//46 76//46
f 77//47 79//47 80//47
f 77//47 80//47 78//47
f 79//48 81//48 82//49
f 79//48 82//49 80//49
f 81//50 43//50 44//50
f 81//50 44//50 82//50
f 83//51 45//51 43//51
f 84//52 44//52 46//52
f 83//51 47//51 45//51
f 84//52 46//52 48//52
f 83//51 49//51 47//51
f 84//52 48//52 50//52
f 83//51 51//51 49//51
f 84//52 50//52 52//52
f 83//51 53//51 51//51
f 84//52 52//52 54//52
f 83//51 55//51 53//51
f 84//52 54//52 56//52
f 83//51 57//51 55//51
f 84//52 56//52 58//52
f 83//51 59//51 57//51
f 84//52 58//52 60//52
f 83//51 61//51 59//51
f 84//52 60//52 62//52
f 83//51 63//51 61//51
f 84//52 62//52 64//52
f 83//51 65//51 63//51
f 84//52 64//52 66//52
f 83//51 67//51 65//51
f 84//52 66//52 68//52
f 83//51 69//51 67//51
f 84//52 68//52 70//52
f 83//51 71//51 69//51
f 84//52 70//52 72//52
f 83//51 73//51 71//51
f 84//52 72//52 74//52
f 83//51 75//51 73//51
f 84//52 74//52 76//52
f 83//51 77//51 75//51
f 84//52 76//52 78//52
f 83//51 79//51 77//51
f 84//52 78//52 80//52
f 83//51 81//51 79//51
f 84//52 80//52 82//52
f 83//51 43//51 81//51
f 84//52 82//52 44//52
o Backrest_thick_wood_board
v -0.240000 0.810000 0.174687
v 0.240000 0.810000 0.174687
v 0.240000 1.030000 0.174687
v -0.240000 1.030000 0.174687
v -0.240000 0.810000 0.229687
v 0.240000 0.810000 0.229687
v 0.240000 1.030000 0.229687
v -0.240000 1.030000 0.229687
vn -0.0000 -0.0000 -1.0000
vn -0.0000 -0.0000 1.0000
vn -0.0000 -1.0000 -0.0000
vn -0.0000 1.0000 -0.0000
vn -1.0000 -0.0000 -0.0000
vn 1.0000 -0.0000 -0.0000
s 1
usemtl wood
f 85//53 88//53 87//53
f 85//53 87//53 86//53
f 89//54 90//54 91//54
f 89//54 91//54 92//54
f 85//55 86//55 90//55
f 85//55 90//55 89//55
f 88//56 92//56 91//56
f 88//56 91//56 87//56
f 85//57 89//57 92//57
f 85//57 92//57 88//57
f 86//58 87//58 91//58
f 86//58 91//58 90//58
o Black_rubber_foot_1
v -0.220000 0.005000 -0.157000
v -0.220000 0.040000 -0.157000
v -0.212893 0.005000 -0.158126
v -0.212893 0.040000 -0.158126
v -0.206481 0.005000 -0.161393
v -0.206481 0.040000 -0.161393
v -0.201393 0.005000 -0.166481
v -0.201393 0.040000 -0.166481
v -0.198126 0.005000 -0.172893
v -0.198126 0.040000 -0.172893
v -0.197000 0.005000 -0.180000
v -0.197000 0.040000 -0.180000
v -0.198126 0.005000 -0.187107
v -0.198126 0.040000 -0.187107
v -0.201393 0.005000 -0.193519
v -0.201393 0.040000 -0.193519
v -0.206481 0.005000 -0.198607
v -0.206481 0.040000 -0.198607
v -0.212893 0.005000 -0.201874
v -0.212893 0.040000 -0.201874
v -0.220000 0.005000 -0.203000
v -0.220000 0.040000 -0.203000
v -0.227107 0.005000 -0.201874
v -0.227107 0.040000 -0.201874
v -0.233519 0.005000 -0.198607
v -0.233519 0.040000 -0.198607
v -0.238607 0.005000 -0.193519
v -0.238607 0.040000 -0.193519
v -0.241874 0.005000 -0.187107
v -0.241874 0.040000 -0.187107
v -0.243000 0.005000 -0.180000
v -0.243000 0.040000 -0.180000
v -0.241874 0.005000 -0.172893
v -0.241874 0.040000 -0.172893
v -0.238607 0.005000 -0.166481
v -0.238607 0.040000 -0.166481
v -0.233519 0.005000 -0.161393
v -0.233519 0.040000 -0.161393
v -0.227107 0.005000 -0.158126
v -0.227107 0.040000 -0.158126
v -0.220000 0.005000 -0.180000
v -0.220000 0.040000 -0.180000
vn 0.1565 -0.0000 0.9877
vn 0.4540 -0.0000 0.8910
vn 0.7071 -0.0000 0.7071
vn 0.8910 -0.0000 0.4540
vn 0.9877 -0.0000 0.1565
vn 0.9877 -0.0000 -0.1565
vn 0.8910 -0.0000 -0.4540
vn 0.7071 -0.0000 -0.7071
vn 0.4540 -0.0000 -0.8910
vn 0.1565 -0.0000 -0.9877
vn -0.1565 -0.0000 -0.9877
vn -0.4540 -0.0000 -0.8910
vn -0.7071 -0.0000 -0.7071
vn -0.8910 -0.0000 -0.4540
vn -0.9877 -0.0000 -0.1565
vn -0.9877 -0.0000 0.1565
vn -0.8910 -0.0000 0.4540
vn -0.7071 -0.0000 0.7071
vn -0.4540 -0.0000 0.8910
vn -0.1565 -0.0000 0.9877
vn -0.0000 -1.0000 -0.0000
vn -0.0000 1.0000 -0.0000
s 1
usemtl rubber
f 93//59 95//59 96//59
f 93//59 96//59 94//59
f 95//60 97//60 98//60
f 95//60 98//60 96//60
f 97//61 99//61 100//61
f 97//61 100//61 98//61
f 99//62 101//62 102//62
f 99//62 102//62 100//62
f 101//63 103//63 104//63
f 101//63 104//63 102//63
f 103//64 105//64 106//64
f 103//64 106//64 104//64
f 105//65 107//65 108//65
f 105//65 108//65 106//65
f 107//66 109//66 110//66
f 107//66 110//66 108//66
f 109//67 111//67 112//67
f 109//67 112//67 110//67
f 111//68 113//68 114//68
f 111//68 114//68 112//68
f 113//69 115//69 116//69
f 113//69 116//69 114//69
f 115//70 117//70 118//70
f 115//70 118//70 116//70
f 117//71 119//71 120//71
f 117//71 120//71 118//71
f 119//72 121//72 122//72
f 119//72 122//72 120//72
f 121//73 123//73 124//73
f 121//73 124//73 122//73
f 123//74 125//74 126//74
f 123//74 126//74 124//74
f 125//75 127//75 128//75
f 125//75 128//75 126//75
f 127//76 129//76 130//76
f 127//76 130//76 128//76
f 129//77 131//77 132//77
f 129//77 132//77 130//77
f 131//78 93//78 94//78
f 131//78 94//78 132//78
f 133//79 95//79 93//79
f 134//80 94//80 96//80
f 133//79 97//79 95//79
f 134//80 96//80 98//80
f 133//79 99//79 97//79
f 134//80 98//80 100//80
f 133//79 101//79 99//79
f 134//80 100//80 102//80
f 133//79 103//79 101//79
f 134//80 102//80 104//80
f 133//79 105//79 103//79
f 134//80 104//80 106//80
f 133//79 107//79 105//79
f 134//80 106//80 108//80
f 133//79 109//79 107//79
f 134//80 108//80 110//80
f 133//79 111//79 109//79
f 134//80 110//80 112//80
f 133//79 113//79 111//79
f 134//80 112//80 114//80
f 133//79 115//79 113//79
f 134//80 114//80 116//80
f 133//79 117//79 115//79
f 134//80 116//80 118//80
f 133//79 119//79 117//79
f 134//80 118//80 120//80
f 133//79 121//79 119//79
f 134//80 120//80 122//80
f 133//79 123//79 121//79
f 134//80 122//80 124//80
f 133//79 125//79 123//79
f 134//80 124//80 126//80
f 133//79 127//79 125//79
f 134//80 126//80 128//80
f 133//79 129//79 127//79
f 134//80 128//80 130//80
f 133//79 131//79 129//79
f 134//80 130//80 132//80
f 133//79 93//79 131//79
f 134//80 132//80 94//80
o Black_rubber_foot_2
v 0.220000 0.005000 -0.157000
v 0.220000 0.040000 -0.157000
v 0.227107 0.005000 -0.158126
v 0.227107 0.040000 -0.158126
v 0.233519 0.005000 -0.161393
v 0.233519 0.040000 -0.161393
v 0.238607 0.005000 -0.166481
v 0.238607 0.040000 -0.166481
v 0.241874 0.005000 -0.172893
v 0.241874 0.040000 -0.172893
v 0.243000 0.005000 -0.180000
v 0.243000 0.040000 -0.180000
v 0.241874 0.005000 -0.187107
v 0.241874 0.040000 -0.187107
v 0.238607 0.005000 -0.193519
v 0.238607 0.040000 -0.193519
v 0.233519 0.005000 -0.198607
v 0.233519 0.040000 -0.198607
v 0.227107 0.005000 -0.201874
v 0.227107 0.040000 -0.201874
v 0.220000 0.005000 -0.203000
v 0.220000 0.040000 -0.203000
v 0.212893 0.005000 -0.201874
v 0.212893 0.040000 -0.201874
v 0.206481 0.005000 -0.198607
v 0.206481 0.040000 -0.198607
v 0.201393 0.005000 -0.193519
v 0.201393 0.040000 -0.193519
v 0.198126 0.005000 -0.187107
v 0.198126 0.040000 -0.187107
v 0.197000 0.005000 -0.180000
v 0.197000 0.040000 -0.180000
v 0.198126 0.005000 -0.172893
v 0.198126 0.040000 -0.172893
v 0.201393 0.005000 -0.166481
v 0.201393 0.040000 -0.166481
v 0.206481 0.005000 -0.161393
v 0.206481 0.040000 -0.161393
v 0.212893 0.005000 -0.158126
v 0.212893 0.040000 -0.158126
v 0.220000 0.005000 -0.180000
v 0.220000 0.040000 -0.180000
vn 0.1565 -0.0000 0.9877
vn 0.4540 -0.0000 0.8910
vn 0.7071 -0.0000 0.7071
vn 0.8910 -0.0000 0.4540
vn 0.9877 -0.0000 0.1565
vn 0.9877 -0.0000 -0.1565
vn 0.8910 -0.0000 -0.4540
vn 0.7071 -0.0000 -0.7071
vn 0.4540 -0.0000 -0.8910
vn 0.1565 -0.0000 -0.9877
vn -0.1565 -0.0000 -0.9877
vn -0.4540 -0.0000 -0.8910
vn -0.7071 -0.0000 -0.7071
vn -0.8910 -0.0000 -0.4540
vn -0.9877 -0.0000 -0.1565
vn -0.9877 -0.0000 0.1565
vn -0.8910 -0.0000 0.4540
vn -0.7071 -0.0000 0.7071
vn -0.4540 -0.0000 0.8910
vn -0.1565 -0.0000 0.9877
vn -0.0000 -1.0000 -0.0000
vn -0.0000 1.0000 -0.0000
s 1
usemtl rubber
f 135//81 137//81 138//81
f 135//81 138//81 136//81
f 137//82 139//82 140//82
f 137//82 140//82 138//82
f 139//83 141//83 142//83
f 139//83 142//83 140//83
f 141//84 143//84 144//84
f 141//84 144//84 142//84
f 143//85 145//85 146//85
f 143//85 146//85 144//85
f 145//86 147//86 148//86
f 145//86 148//86 146//86
f 147//87 149//87 150//87
f 147//87 150//87 148//87
f 149//88 151//88 152//88
f 149//88 152//88 150//88
f 151//89 153//89 154//89
f 151//89 154//89 152//89
f 153//90 155//90 156//90
f 153//90 156//90 154//90
f 155//91 157//91 158//91
f 155//91 158//91 156//91
f 157//92 159//92 160//92
f 157//92 160//92 158//92
f 159//93 161//93 162//93
f 159//93 162//93 160//93
f 161//94 163//94 164//94
f 161//94 164//94 162//94
f 163//95 165//95 166//95
f 163//95 166//95 164//95
f 165//96 167//96 168//96
f 165//96 168//96 166//96
f 167//97 169//97 170//97
f 167//97 170//97 168//97
f 169//98 171//98 172//98
f 169//98 172//98 170//98
f 171//99 173//99 174//99
f 171//99 174//99 172//99
f 173//100 135//100 136//100
f 173//100 136//100 174//100
f 175//101 137//101 135//101
f 176//102 136//102 138//102
f 175//101 139//101 137//101
f 176//102 138//102 140//102
f 175//101 141//101 139//101
f 176//102 140//102 142//102
f 175//101 143//101 141//101
f 176//102 142//102 144//102
f 175//101 145//101 143//101
f 176//102 144//102 146//102
f 175//101 147//101 145//101
f 176//102 146//102 148//102
f 175//101 149//101 147//101
f 176//102 148//102 150//102
f 175//101 151//101 149//101
f 176//102 150//102 152//102
f 175//101 153//101 151//101
f 176//102 152//102 154//102
f 175//101 155//101 153//101
f 176//102 154//102 156//102
f 175//101 157//101 155//101
f 176//102 156//102 158//102
f 175//101 159//101 157//101
f 176//102 158//102 160//102
f 175//101 161//101 159//101
f 176//102 160//102 162//102
f 175//101 163//101 161//101
f 176//102 162//102 164//102
f 175//101 165//101 163//101
f 176//102 164//102 166//102
f 175//101 167//101 165//101
f 176//102 166//102 168//102
f 175//101 169//101 167//101
f 176//102 168//102 170//102
f 175//101 171//101 169//101
f 176//102 170//102 172//102
f 175//101 173//101 171//101
f 176//102 172//102 174//102
f 175//101 135//101 173//101
f 176//102 174//102 136//102
o Black_rubber_foot_3
v -0.220000 0.005000 0.203000
v -0.220000 0.040000 0.203000
v -0.212893 0.005000 0.201874
v -0.212893 0.040000 0.201874
v -0.206481 0.005000 0.198607
v -0.206481 0.040000 0.198607
v -0.201393 0.005000 0.193519
v -0.201393 0.040000 0.193519
v -0.198126 0.005000 0.187107
v -0.198126 0.040000 0.187107
v -0.197000 0.005000 0.180000
v -0.197000 0.040000 0.180000
v -0.198126 0.005000 0.172893
v -0.198126 0.040000 0.172893
v -0.201393 0.005000 0.166481
v -0.201393 0.040000 0.166481
v -0.206481 0.005000 0.161393
v -0.206481 0.040000 0.161393
v -0.212893 0.005000 0.158126
v -0.212893 0.040000 0.158126
v -0.220000 0.005000 0.157000
v -0.220000 0.040000 0.157000
v -0.227107 0.005000 0.158126
v -0.227107 0.040000 0.158126
v -0.233519 0.005000 0.161393
v -0.233519 0.040000 0.161393
v -0.238607 0.005000 0.166481
v -0.238607 0.040000 0.166481
v -0.241874 0.005000 0.172893
v -0.241874 0.040000 0.172893
v -0.243000 0.005000 0.180000
v -0.243000 0.040000 0.180000
v -0.241874 0.005000 0.187107
v -0.241874 0.040000 0.187107
v -0.238607 0.005000 0.193519
v -0.238607 0.040000 0.193519
v -0.233519 0.005000 0.198607
v -0.233519 0.040000 0.198607
v -0.227107 0.005000 0.201874
v -0.227107 0.040000 0.201874
v -0.220000 0.005000 0.180000
v -0.220000 0.040000 0.180000
vn 0.1565 -0.0000 0.9877
vn 0.4540 -0.0000 0.8910
vn 0.7071 -0.0000 0.7071
vn 0.8910 -0.0000 0.4540
vn 0.9877 -0.0000 0.1565
vn 0.9877 -0.0000 -0.1565
vn 0.8910 -0.0000 -0.4540
vn 0.7071 -0.0000 -0.7071
vn 0.4540 -0.0000 -0.8910
vn 0.1565 -0.0000 -0.9877
vn -0.1565 -0.0000 -0.9877
vn -0.4540 -0.0000 -0.8910
vn -0.7071 -0.0000 -0.7071
vn -0.8910 -0.0000 -0.4540
vn -0.9877 -0.0000 -0.1565
vn -0.9877 -0.0000 0.1565
vn -0.8910 -0.0000 0.4540
vn -0.7071 -0.0000 0.7071
vn -0.4540 -0.0000 0.8910
vn -0.1565 -0.0000 0.9877
vn -0.0000 -1.0000 -0.0000
vn -0.0000 1.0000 -0.0000
s 1
usemtl rubber
f 177//103 179//103 180//103
f 177//103 180//103 178//103
f 179//104 181//104 182//104
f 179//104 182//104 180//104
f 181//105 183//105 184//105
f 181//105 184//105 182//105
f 183//106 185//106 186//106
f 183//106 186//106 184//106
f 185//107 187//107 188//107
f 185//107 188//107 186//107
f 187//108 189//108 190//108
f 187//108 190//108 188//108
f 189//109 191//109 192//109
f 189//109 192//109 190//109
f 191//110 193//110 194//110
f 191//110 194//110 192//110
f 193//111 195//111 196//111
f 193//111 196//111 194//111
f 195//112 197//112 198//112
f 195//112 198//112 196//112
f 197//113 199//113 200//113
f 197//113 200//113 198//113
f 199//114 201//114 202//114
f 199//114 202//114 200//114
f 201//115 203//115 204//115
f 201//115 204//115 202//115
f 203//116 205//116 206//116
f 203//116 206//116 204//116
f 205//117 207//117 208//117
f 205//117 208//117 206//117
f 207//118 209//118 210//118
f 207//118 210//118 208//118
f 209//119 211//119 212//119
f 209//119 212//119 210//119
f 211//120 213//120 214//120
f 211//120 214//120 212//120
f 213//121 215//121 216//121
f 213//121 216//121 214//121
f 215//122 177//122 178//122
f 215//122 178//122 216//122
f 217//123 179//123 177//123
f 218//124 178//124 180//124
f 217//123 181//123 179//123
f 218//124 180//124 182//124
f 217//123 183//123 181//123
f 218//124 182//124 184//124
f 217//123 185//123 183//123
f 218//124 184//124 186//124
f 217//123 187//123 185//123
f 218//124 186//124 188//124
f 217//123 189//123 187//123
f 218//124 188//124 190//124
f 217//123 191//123 189//123
f 218//124 190//124 192//124
f 217//123 193//123 191//123
f 218//124 192//124 194//124
f 217//123 195//123 193//123
f 218//124 194//124 196//124
f 217//123 197//123 195//123
f 218//124 196//124 198//124
f 217//123 199//123 197//123
f 218//124 198//124 200//124
f 217//123 201//123 199//123
f 218//124 200//124 202//124
f 217//123 203//123 201//123
f 218//124 202//124 204//124
f 217//123 205//123 203//123
f 218//124 204//124 206//124
f 217//123 207//123 205//123
f 218//124 206//124 208//124
f 217//123 209//123 207//123
f 218//124 208//124 210//124
f 217//123 211//123 209//123
f 218//124 210//124 212//124
f 217//123 213//123 211//123
f 218//124 212//124 214//124
f 217//123 215//123 213//123
f 218//124 214//124 216//124
f 217//123 177//123 215//123
f 218//124 216//124 178//124
o Black_rubber_foot_4
v 0.220000 0.005000 0.203000
v 0.220000 0.040000 0.203000
v 0.227107 0.005000 0.201874
v 0.227107 0.040000 0.201874
v 0.233519 0.005000 0.198607
v 0.233519 0.040000 0.198607
v 0.238607 0.005000 0.193519
v 0.238607 0.040000 0.193519
v 0.241874 0.005000 0.187107
v 0.241874 0.040000 0.187107
v 0.243000 0.005000 0.180000
v 0.243000 0.040000 0.180000
v 0.241874 0.005000 0.172893
v 0.241874 0.040000 0.172893
v 0.238607 0.005000 0.166481
v 0.238607 0.040000 0.166481
v 0.233519 0.005000 0.161393
v 0.233519 0.040000 0.161393
v 0.227107 0.005000 0.158126
v 0.227107 0.040000 0.158126
v 0.220000 0.005000 0.157000
v 0.220000 0.040000 0.157000
v 0.212893 0.005000 0.158126
v 0.212893 0.040000 0.158126
v 0.206481 0.005000 0.161393
v 0.206481 0.040000 0.161393
v 0.201393 0.005000 0.166481
v 0.201393 0.040000 0.166481
v 0.198126 0.005000 0.172893
v 0.198126 0.040000 0.172893
v 0.197000 0.005000 0.180000
v 0.197000 0.040000 0.180000
v 0.198126 0.005000 0.187107
v 0.198126 0.040000 0.187107
v 0.201393 0.005000 0.193519
v 0.201393 0.040000 0.193519
v 0.206481 0.005000 0.198607
v 0.206481 0.040000 0.198607
v 0.212893 0.005000 0.201874
v 0.212893 0.040000 0.201874
v 0.220000 0.005000 0.180000
v 0.220000 0.040000 0.180000
vn 0.1565 -0.0000 0.9877
vn 0.4540 -0.0000 0.8910
vn 0.7071 -0.0000 0.7071
vn 0.8910 -0.0000 0.4540
vn 0.9877 -0.0000 0.1565
vn 0.9877 -0.0000 -0.1565
vn 0.8910 -0.0000 -0.4540
vn 0.7071 -0.0000 -0.7071
vn 0.4540 -0.0000 -0.8910
vn 0.1565 -0.0000 -0.9877
vn -0.1565 -0.0000 -0.9877
vn -0.4540 -0.0000 -0.8910
vn -0.7071 -0.0000 -0.7071
vn -0.8910 -0.0000 -0.4540
vn -0.9877 -0.0000 -0.1565
vn -0.9877 -0.0000 0.1565
vn -0.8910 -0.0000 0.4540
vn -0.7071 -0.0000 0.7071
vn -0.4540 -0.0000 0.8910
vn -0.1565 -0.0000 0.9877
vn -0.0000 -1.0000 -0.0000
vn -0.0000 1.0000 -0.0000
s 1
usemtl rubber
f 219//125 221//125 222//125
f 219//125 222//125 220//125
f 221//126 223//126 224//126
f 221//126 224//126 222//126
f 223//127 225//127 226//127
f 223//127 226//127 224//127
f 225//128 227//128 228//128
f 225//128 228//128 226//128
f 227//129 229//129 230//129
f 227//129 230//129 228//129
f 229//130 231//130 232//130
f 229//130 232//130 230//130
f 231//131 233//131 234//131
f 231//131 234//131 232//131
f 233//132 235//132 236//132
f 233//132 236//132 234//132
f 235//133 237//133 238//133
f 235//133 238//133 236//133
f 237//134 239//134 240//134
f 237//134 240//134 238//134
f 239//135 241//135 242//135
f 239//135 242//135 240//135
f 241//136 243//136 244//136
f 241//136 244//136 242//136
f 243//137 245//137 246//137
f 243//137 246//137 244//137
f 245//138 247//138 248//138
f 245//138 248//138 246//138
f 247//139 249//139 250//139
f 247//139 250//139 248//139
f 249//140 251//140 252//140
f 249//140 252//140 250//140
f 251//141 253//141 254//141
f 251//141 254//141 252//141
f 253//142 255//142 256//142
f 253//142 256//142 254//142
f 255//143 257//143 258//143
f 255//143 258//143 256//143
f 257//144 219//144 220//144
f 257//144 220//144 258//144
f 259//145 221//145 219//145
f 260//146 220//146 222//146
f 259//145 223//145 221//145
f 260//146 222//146 224//146
f 259//145 225//145 223//145
f 260//146 224//146 226//146
f 259//145 227//145 225//145
f 260//146 226//146 228//146
f 259//145 229//145 227//145
f 260//146 228//146 230//146
f 259//145 231//145 229//145
f 260//146 230//146 232//146
f 259//145 233//145 231//145
f 260//146 232//146 234//146
f 259//145 235//145 233//145
f 260//146 234//146 236//146
f 259//145 237//145 235//145
f 260//146 236//146 238//146
f 259//145 239//145 237//145
f 260//146 238//146 240//146
f 259//145 241//145 239//145
f 260//146 240//146 242//146
f 259//145 243//145 241//145
f 260//146 242//146 244//146
f 259//145 245//145 243//145
f 260//146 244//146 246//146
f 259//145 247//145 245//145
f 260//146 246//146 248//146
f 259//145 249//145 247//145
f 260//146 248//146 250//146
f 259//145 251//145 249//145
f 260//146 250//146 252//146
f 259//145 253//145 251//145
f 260//146 252//146 254//146
f 259//145 255//145 253//145
f 260//146 254//146 256//146
f 259//145 257//145 255//145
f 260//146 256//146 258//146
f 259//145 219//145 257//145
f 260//146 258//146 220//146
o Metal_leg_1
v -0.220000 0.040000 -0.166000
v -0.220000 0.455000 -0.166000
v -0.215674 0.040000 -0.166685
v -0.215674 0.455000 -0.166685
v -0.211771 0.040000 -0.168674
v -0.211771 0.455000 -0.168674
v -0.208674 0.040000 -0.171771
v -0.208674 0.455000 -0.171771
v -0.206685 0.040000 -0.175674
v -0.206685 0.455000 -0.175674
v -0.206000 0.040000 -0.180000
v -0.206000 0.455000 -0.180000
v -0.206685 0.040000 -0.184326
v -0.206685 0.455000 -0.184326
v -0.208674 0.040000 -0.188229
v -0.208674 0.455000 -0.188229
v -0.211771 0.040000 -0.191326
v -0.211771 0.455000 -0.191326
v -0.215674 0.040000 -0.193315
v -0.215674 0.455000 -0.193315
v -0.220000 0.040000 -0.194000
v -0.220000 0.455000 -0.194000
v -0.224326 0.040000 -0.193315
v -0.224326 0.455000 -0.193315
v -0.228229 0.040000 -0.191326
v -0.228229 0.455000 -0.191326
v -0.231326 0.040000 -0.188229
v -0.231326 0.455000 -0.188229
v -0.233315 0.040000 -0.184326
v -0.233315 0.455000 -0.184326
v -0.234000 0.040000 -0.180000
v -0.234000 0.455000 -0.180000
v -0.233315 0.040000 -0.175674
v -0.233315 0.455000 -0.175674
v -0.231326 0.040000 -0.171771
v -0.231326 0.455000 -0.171771
v -0.228229 0.040000 -0.168674
v -0.228229 0.455000 -0.168674
v -0.224326 0.040000 -0.166685
v -0.224326 0.455000 -0.166685
v -0.220000 0.040000 -0.180000
v -0.220000 0.455000 -0.180000
vn 0.1564 -0.0000 0.9877
vn 0.4540 -0.0000 0.8910
vn 0.7071 -0.0000 0.7071
vn 0.8910 -0.0000 0.4540
vn 0.9877 -0.0000 0.1564
vn 0.9877 -0.0000 -0.1564
vn 0.8910 -0.0000 -0.4540
vn 0.7071 -0.0000 -0.7071
vn 0.4540 -0.0000 -0.8910
vn 0.1564 -0.0000 -0.9877
vn -0.1564 -0.0000 -0.9877
vn -0.4540 -0.0000 -0.8910
vn -0.7071 -0.0000 -0.7071
vn -0.8910 -0.0000 -0.4541
vn -0.8910 -0.0000 -0.4540
vn -0.9877 -0.0000 -0.1564
vn -0.9877 -0.0000 0.1564
vn -0.8910 -0.0000 0.4541
vn -0.7071 -0.0000 0.7071
vn -0.4540 -0.0000 0.8910
vn -0.1564 -0.0000 0.9877
vn -0.0000 -1.0000 -0.0000
vn -0.0000 1.0000 -0.0000
s 1
usemtl metal
f 261//147 263//147 264//147
f 261//147 264//147 262//147
f 263//148 265//148 266//148
f 263//148 266//148 264//148
f 265//149 267//149 268//149
f 265//149 268//149 266//149
f 267//150 269//150 270//150
f 267//150 270//150 268//150
f 269//151 271//151 272//151
f 269//151 272//151 270//151
f 271//152 273//152 274//152
f 271//152 274//152 272//152
f 273//153 275//153 276//153
f 273//153 276//153 274//153
f 275//154 277//154 278//154
f 275//154 278//154 276//154
f 277//155 279//155 280//155
f 277//155 280//155 278//155
f 279//156 281//156 282//156
f 279//156 282//156 280//156
f 281//157 283//157 284//157
f 281//157 284//157 282//157
f 283//158 285//158 286//158
f 283//158 286//158 284//158
f 285//159 287//159 288//159
f 285//159 288//159 286//159
f 287//160 289//160 290//161
f 287//160 290//161 288//161
f 289//162 291//162 292//162
f 289//162 292//162 290//162
f 291//163 293//163 294//163
f 291//163 294//163 292//163
f 293//164 295//164 296//164
f 293//164 296//164 294//164
f 295//165 297//165 298//165
f 295//165 298//165 296//165
f 297//166 299//166 300//166
f 297//166 300//166 298//166
f 299//167 261//167 262//167
f 299//167 262//167 300//167
f 301//168 263//168 261//168
f 302//169 262//169 264//169
f 301//168 265//168 263//168
f 302//169 264//169 266//169
f 301//168 267//168 265//168
f 302//169 266//169 268//169
f 301//168 269//168 267//168
f 302//169 268//169 270//169
f 301//168 271//168 269//168
f 302//169 270//169 272//169
f 301//168 273//168 271//168
f 302//169 272//169 274//169
f 301//168 275//168 273//168
f 302//169 274//169 276//169
f 301//168 277//168 275//168
f 302//169 276//169 278//169
f 301//168 279//168 277//168
f 302//169 278//169 280//169
f 301//168 281//168 279//168
f 302//169 280//169 282//169
f 301//168 283//168 281//168
f 302//169 282//169 284//169
f 301//168 285//168 283//168
f 302//169 284//169 286//169
f 301//168 287//168 285//168
f 302//169 286//169 288//169
f 301//168 289//168 287//168
f 302//169 288//169 290//169
f 301//168 291//168 289//168
f 302//169 290//169 292//169
f 301//168 293//168 291//168
f 302//169 292//169 294//169
f 301//168 295//168 293//168
f 302//169 294//169 296//169
f 301//168 297//168 295//168
f 302//169 296//169 298//169
f 301//168 299//168 297//168
f 302//169 298//169 300//169
f 301//168 261//168 299//168
f 302//169 300//169 262//169
o Metal_leg_2
v 0.220000 0.040000 -0.166000
v 0.220000 0.455000 -0.166000
v 0.224326 0.040000 -0.166685
v 0.224326 0.455000 -0.166685
v 0.228229 0.040000 -0.168674
v 0.228229 0.455000 -0.168674
v 0.231326 0.040000 -0.171771
v 0.231326 0.455000 -0.171771
v 0.233315 0.040000 -0.175674
v 0.233315 0.455000 -0.175674
v 0.234000 0.040000 -0.180000
v 0.234000 0.455000 -0.180000
v 0.233315 0.040000 -0.184326
v 0.233315 0.455000 -0.184326
v 0.231326 0.040000 -0.188229
v 0.231326 0.455000 -0.188229
v 0.228229 0.040000 -0.191326
v 0.228229 0.455000 -0.191326
v 0.224326 0.040000 -0.193315
v 0.224326 0.455000 -0.193315
v 0.220000 0.040000 -0.194000
v 0.220000 0.455000 -0.194000
v 0.215674 0.040000 -0.193315
v 0.215674 0.455000 -0.193315
v 0.211771 0.040000 -0.191326
v 0.211771 0.455000 -0.191326
v 0.208674 0.040000 -0.188229
v 0.208674 0.455000 -0.188229
v 0.206685 0.040000 -0.184326
v 0.206685 0.455000 -0.184326
v 0.206000 0.040000 -0.180000
v 0.206000 0.455000 -0.180000
v 0.206685 0.040000 -0.175674
v 0.206685 0.455000 -0.175674
v 0.208674 0.040000 -0.171771
v 0.208674 0.455000 -0.171771
v 0.211771 0.040000 -0.168674
v 0.211771 0.455000 -0.168674
v 0.215674 0.040000 -0.166685
v 0.215674 0.455000 -0.166685
v 0.220000 0.040000 -0.180000
v 0.220000 0.455000 -0.180000
vn 0.1564 -0.0000 0.9877
vn 0.4540 -0.0000 0.8910
vn 0.7071 -0.0000 0.7071
vn 0.8910 -0.0000 0.4541
vn 0.9877 -0.0000 0.1564
vn 0.9877 -0.0000 -0.1564
vn 0.8910 -0.0000 -0.4540
vn 0.8910 -0.0000 -0.4541
vn 0.7071 -0.0000 -0.7071
vn 0.4540 -0.0000 -0.8910
vn 0.1564 -0.0000 -0.9877
vn -0.1564 -0.0000 -0.9877
vn -0.4540 -0.0000 -0.8910
vn -0.7071 -0.0000 -0.7071
vn -0.8910 -0.0000 -0.4540
vn -0.9877 -0.0000 -0.1564
vn -0.9877 -0.0000 0.1564
vn -0.8910 -0.0000 0.4540
vn -0.7071 -0.0000 0.7071
vn -0.4540 -0.0000 0.8910
vn -0.1564 -0.0000 0.9877
vn -0.0000 -1.0000 -0.0000
vn -0.0000 1.0000 -0.0000
s 1
usemtl metal
f 303//170 305//170 306//170
f 303//170 306//170 304//170
f 305//171 307//171 308//171
f 305//171 308//171 306//171
f 307//172 309//172 310//172
f 307//172 310//172 308//172
f 309//173 311//173 312//173
f 309//173 312//173 310//173
f 311//174 313//174 314//174
f 311//174 314//174 312//174
f 313//175 315//175 316//175
f 313//175 316//175 314//175
f 315//176 317//176 318//177
f 315//176 318//177 316//177
f 317//178 319//178 320//178
f 317//178 320//178 318//178
f 319//179 321//179 322//179
f 319//179 322//179 320//179
f 321//180 323//180 324//180
f 321//180 324//180 322//180
f 323//181 325//181 326//181
f 323//181 326//181 324//181
f 325//182 327//182 328//182
f 325//182 328//182 326//182
f 327//183 329//183 330//183
f 327//183 330//183 328//183
f 329//184 331//184 332//184
f 329//184 332//184 330//184
f 331//185 333//185 334//185
f 331//185 334//185 332//185
f 333//186 335//186 336//186
f 333//186 336//186 334//186
f 335//187 337//187 338//187
f 335//187 338//187 336//187
f 337//188 339//188 340//188
f 337//188 340//188 338//188
f 339//189 341//189 342//189
f 339//189 342//189 340//189
f 341//190 303//190 304//190
f 341//190 304//190 342//190
f 343//191 305//191 303//191
f 344//192 304//192 306//192
f 343//191 307//191 305//191
f 344//192 306//192 308//192
f 343//191 309//191 307//191
f 344//192 308//192 310//192
f 343//191 311//191 309//191
f 344//192 310//192 312//192
f 343//191 313//191 311//191
f 344//192 312//192 314//192
f 343//191 315//191 313//191
f 344//192 314//192 316//192
f 343//191 317//191 315//191
f 344//192 316//192 318//192
f 343//191 319//191 317//191
f 344//192 318//192 320//192
f 343//191 321//191 319//191
f 344//192 320//192 322//192
f 343//191 323//191 321//191
f 344//192 322//192 324//192
f 343//191 325//191 323//191
f 344//192 324//192 326//192
f 343//191 327//191 325//191
f 344//192 326//192 328//192
f 343//191 329//191 327//191
f 344//192 328//192 330//192
f 343//191 331//191 329//191
f 344//192 330//192 332//192
f 343//191 333//191 331//191
f 344//192 332//192 334//192
f 343//191 335//191 333//191
f 344//192 334//192 336//192
f 343//191 337//191 335//191
f 344//192 336//192 338//192
f 343//191 339//191 337//191
f 344//192 338//192 340//192
f 343//191 341//191 339//191
f 344//192 340//192 342//192
f 343//191 303//191 341//191
f 344//192 342//192 304//192
o Metal_leg_3
v -0.220000 0.040000 0.194000
v -0.220000 0.455000 0.194000
v -0.215674 0.040000 0.193315
v -0.215674 0.455000 0.193315
v -0.211771 0.040000 0.191326
v -0.211771 0.455000 0.191326
v -0.208674 0.040000 0.188229
v -0.208674 0.455000 0.188229
v -0.206685 0.040000 0.184326
v -0.206685 0.455000 0.184326
v -0.206000 0.040000 0.180000
v -0.206000 0.455000 0.180000
v -0.206685 0.040000 0.175674
v -0.206685 0.455000 0.175674
v -0.208674 0.040000 0.171771
v -0.208674 0.455000 0.171771
v -0.211771 0.040000 0.168674
v -0.211771 0.455000 0.168674
v -0.215674 0.040000 0.166685
v -0.215674 0.455000 0.166685
v -0.220000 0.040000 0.166000
v -0.220000 0.455000 0.166000
v -0.224326 0.040000 0.166685
v -0.224326 0.455000 0.166685
v -0.228229 0.040000 0.168674
v -0.228229 0.455000 0.168674
v -0.231326 0.040000 0.171771
v -0.231326 0.455000 0.171771
v -0.233315 0.040000 0.175674
v -0.233315 0.455000 0.175674
v -0.234000 0.040000 0.180000
v -0.234000 0.455000 0.180000
v -0.233315 0.040000 0.184326
v -0.233315 0.455000 0.184326
v -0.231326 0.040000 0.188229
v -0.231326 0.455000 0.188229
v -0.228229 0.040000 0.191326
v -0.228229 0.455000 0.191326
v -0.224326 0.040000 0.193315
v -0.224326 0.455000 0.193315
v -0.220000 0.040000 0.180000
v -0.220000 0.455000 0.180000
vn 0.1564 -0.0000 0.9877
vn 0.4540 -0.0000 0.8910
vn 0.7071 -0.0000 0.7071
vn 0.8910 -0.0000 0.4540
vn 0.9877 -0.0000 0.1564
vn 0.9877 -0.0000 -0.1564
vn 0.8910 -0.0000 -0.4540
vn 0.7071 -0.0000 -0.7071
vn 0.4540 -0.0000 -0.8910
vn 0.1564 -0.0000 -0.9877
vn -0.1564 -0.0000 -0.9877
vn -0.4540 -0.0000 -0.8910
vn -0.7071 -0.0000 -0.7071
vn -0.8910 -0.0000 -0.4541
vn -0.9877 -0.0000 -0.1564
vn -0.9877 -0.0000 0.1564
vn -0.8910 -0.0000 0.4540
vn -0.8910 -0.0000 0.4541
vn -0.7071 -0.0000 0.7071
vn -0.4540 -0.0000 0.8910
vn -0.1564 -0.0000 0.9877
vn -0.0000 -1.0000 -0.0000
vn -0.0000 1.0000 -0.0000
s 1
usemtl metal
f 345//193 347//193 348//193
f 345//193 348//193 346//193
f 347//194 349//194 350//194
f 347//194 350//194 348//194
f 349//195 351//195 352//195
f 349//195 352//195 350//195
f 351//196 353//196 354//196
f 351//196 354//196 352//196
f 353//197 355//197 356//197
f 353//197 356//197 354//197
f 355//198 357//198 358//198
f 355//198 358//198 356//198
f 357//199 359//199 360//199
f 357//199 360//199 358//199
f 359//200 361//200 362//200
f 359//200 362//200 360//200
f 361//201 363//201 364//201
f 361//201 364//201 362//201
f 363//202 365//202 366//202
f 363//202 366//202 364//202
f 365//203 367//203 368//203
f 365//203 368//203 366//203
f 367//204 369//204 370//204
f 367//204 370//204 368//204
f 369//205 371//205 372//205
f 369//205 372//205 370//205
f 371//206 373//206 374//206
f 371//206 374//206 372//206
f 373//207 375//207 376//207
f 373//207 376//207 374//207
f 375//208 377//208 378//208
f 375//208 378//208 376//208
f 377//209 379//209 380//210
f 377//209 380//210 378//210
f 379//211 381//211 382//211
f 379//211 382//211 380//211
f 381//212 383//212 384//212
f 381//212 384//212 382//212
f 383//213 345//213 346//213
f 383//213 346//213 384//213
f 385//214 347//214 345//214
f 386//215 346//215 348//215
f 385//214 349//214 347//214
f 386//215 348//215 350//215
f 385//214 351//214 349//214
f 386//215 350//215 352//215
f 385//214 353//214 351//214
f 386//215 352//215 354//215
f 385//214 355//214 353//214
f 386//215 354//215 356//215
f 385//214 357//214 355//214
f 386//215 356//215 358//215
f 385//214 359//214 357//214
f 386//215 358//215 360//215
f 385//214 361//214 359//214
f 386//215 360//215 362//215
f 385//214 363//214 361//214
f 386//215 362//215 364//215
f 385//214 365//214 363//214
f 386//215 364//215 366//215
f 385//214 367//214 365//214
f 386//215 366//215 368//215
f 385//214 369//214 367//214
f 386//215 368//215 370//215
f 385//214 371//214 369//214
f 386//215 370//215 372//215
f 385//214 373//214 371//214
f 386//215 372//215 374//215
f 385//214 375//214 373//214
f 386//215 374//215 376//215
f 385//214 377//214 375//214
f 386//215 376//215 378//215
f 385//214 379//214 377//214
f 386//215 378//215 380//215
f 385//214 381//214 379//214
f 386//215 380//215 382//215
f 385//214 383//214 381//214
f 386//215 382//215 384//215
f 385//214 345//214 383//214
f 386//215 384//215 346//215
o Metal_leg_4
v 0.220000 0.040000 0.194000
v 0.220000 0.455000 0.194000
v 0.224326 0.040000 0.193315
v 0.224326 0.455000 0.193315
v 0.228229 0.040000 0.191326
v 0.228229 0.455000 0.191326
v 0.231326 0.040000 0.188229
v 0.231326 0.455000 0.188229
v 0.233315 0.040000 0.184326
v 0.233315 0.455000 0.184326
v 0.234000 0.040000 0.180000
v 0.234000 0.455000 0.180000
v 0.233315 0.040000 0.175674
v 0.233315 0.455000 0.175674
v 0.231326 0.040000 0.171771
v 0.231326 0.455000 0.171771
v 0.228229 0.040000 0.168674
v 0.228229 0.455000 0.168674
v 0.224326 0.040000 0.166685
v 0.224326 0.455000 0.166685
v 0.220000 0.040000 0.166000
v 0.220000 0.455000 0.166000
v 0.215674 0.040000 0.166685
v 0.215674 0.455000 0.166685
v 0.211771 0.040000 0.168674
v 0.211771 0.455000 0.168674
v 0.208674 0.040000 0.171771
v 0.208674 0.455000 0.171771
v 0.206685 0.040000 0.175674
v 0.206685 0.455000 0.175674
v 0.206000 0.040000 0.180000
v 0.206000 0.455000 0.180000
v 0.206685 0.040000 0.184326
v 0.206685 0.455000 0.184326
v 0.208674 0.040000 0.188229
v 0.208674 0.455000 0.188229
v 0.211771 0.040000 0.191326
v 0.211771 0.455000 0.191326
v 0.215674 0.040000 0.193315
v 0.215674 0.455000 0.193315
v 0.220000 0.040000 0.180000
v 0.220000 0.455000 0.180000
vn 0.1564 -0.0000 0.9877
vn 0.4540 -0.0000 0.8910
vn 0.7071 -0.0000 0.7071
vn 0.8910 -0.0000 0.4541
vn 0.8910 -0.0000 0.4540
vn 0.9877 -0.0000 0.1564
vn 0.9877 -0.0000 -0.1564
vn 0.8910 -0.0000 -0.4541
vn 0.7071 -0.0000 -0.7071
vn 0.4540 -0.0000 -0.8910
vn 0.1564 -0.0000 -0.9877
vn -0.1564 -0.0000 -0.9877
vn -0.4540 -0.0000 -0.8910
vn -0.7071 -0.0000 -0.7071
vn -0.8910 -0.0000 -0.4540
vn -0.9877 -0.0000 -0.1564
vn -0.9877 -0.0000 0.1564
vn -0.8910 -0.0000 0.4540
vn -0.7071 -0.0000 0.7071
vn -0.4540 -0.0000 0.8910
vn -0.1564 -0.0000 0.9877
vn -0.0000 -1.0000 -0.0000
vn -0.0000 1.0000 -0.0000
s 1
usemtl metal
f 387//216 389//216 390//216
f 387//216 390//216 388//216
f 389//217 391//217 392//217
f 389//217 392//217 390//217
f 391//218 393//218 394//218
f 391//218 394//218 392//218
f 393//219 395//219 396//220
f 393//219 396//220 394//220
f 395//221 397//221 398//221
f 395//221 398//221 396//221
f 397//222 399//222 400//222
f 397//222 400//222 398//222
f 399//223 401//223 402//223
f 399//223 402//223 400//223
f 401//224 403//224 404//224
f 401//224 404//224 402//224
f 403//225 405//225 406//225
f 403//225 406//225 404//225
f 405//226 407//226 408//226
f 405//226 408//226 406//226
f 407//227 409//227 410//227
f 407//227 410//227 408//227
f 409//228 411//228 412//228
f 409//228 412//228 410//228
f 411//229 413//229 414//229
f 411//229 414//229 412//229
f 413//230 415//230 416//230
f 413//230 416//230 414//230
f 415//231 417//231 418//231
f 415//231 418//231 416//231
f 417//232 419//232 420//232
f 417//232 420//232 418//232
f 419//233 421//233 422//233
f 419//233 422//233 420//233
f 421//234 423//234 424//234
f 421//234 424//234 422//234
f 423//235 425//235 426//235
f 423//235 426//235 424//235
f 425//236 387//236 388//236
f 425//236 388//236 426//236
f 427//237 389//237 387//237
f 428//238 388//238 390//238
f 427//237 391//237 389//237
f 428//238 390//238 392//238
f 427//237 393//237 391//237
f 428//238 392//238 394//238
f 427//237 395//237 393//237
f 428//238 394//238 396//238
f 427//237 397//237 395//237
f 428//238 396//238 398//238
f 427//237 399//237 397//237
f 428//238 398//238 400//238
f 427//237 401//237 399//237
f 428//238 400//238 402//238
f 427//237 403//237 401//237
f 428//238 402//238 404//238
f 427//237 405//237 403//237
f 428//238 404//238 406//238
f 427//237 407//237 405//237
f 428//238 406//238 408//238
f 427//237 409//237 407//237
f 428//238 408//238 410//238
f 427//237 411//237 409//237
f 428//238 410//238 412//238
f 427//237 413//237 411//237
f 428//238 412//238 414//238
f 427//237 415//237 413//237
f 428//238 414//238 416//238
f 427//237 417//237 415//237
f 428//238 416//238 418//238
f 427//237 419//237 417//237
f 428//238 418//238 420//238
f 427//237 421//237 419//237
f 428//238 420//238 422//238
f 427//237 423//237 421//237
f 428//238 422//238 424//238
f 427//237 425//237 423//237
f 428//238 424//238 426//238
f 427//237 387//237 425//237
f 428//238 426//238 388//238
o Seat_thick_wood_board
v -0.260000 0.447500 -0.230000
v 0.260000 0.447500 -0.230000
v 0.260000 0.512500 -0.230000
v -0.260000 0.512500 -0.230000
v -0.260000 0.447500 0.230000
v 0.260000 0.447500 0.230000
v 0.260000 0.512500 0.230000
v -0.260000 0.512500 0.230000
vn -0.0000 -0.0000 -1.0000
vn -0.0000 -0.0000 1.0000
vn -0.0000 -1.0000 -0.0000
vn -0.0000 1.0000 -0.0000
vn -1.0000 -0.0000 -0.0000
vn 1.0000 -0.0000 -0.0000
s 1
usemtl wood
f 429//239 432//239 431//239
f 429//239 431//239 430//239
f 433//240 434//240 435//240
f 433//240 435//240 436//240
f 429//241 430//241 434//241
f 429//241 434//241 433//241
f 432//242 436//242 435//242
f 432//242 435//242 431//242
f 429//243 433//243 436//243
f 429//243 436//243 432//243
f 430//244 431//244 435//244
f 430//244 435//244 434//244
