mtllib c301_tu_sat_hinh_hop_FIXED.mtl
o c301_tu_sat_hinh_hop
v -1.100000 0.000000 -0.275000
v 1.100000 0.000000 -0.275000
v 1.100000 1.180000 -0.275000
v -1.100000 1.180000 -0.275000
v 1.100000 0.000000 0.275000
v -1.100000 0.000000 0.275000
v -1.100000 1.180000 0.275000
v 1.100000 1.180000 0.275000
v -1.100000 0.000000 0.275000
v -1.100000 0.000000 -0.275000
v -1.100000 1.180000 -0.275000
v -1.100000 1.180000 0.275000
v 1.100000 0.000000 -0.275000
v 1.100000 0.000000 0.275000
v 1.100000 1.180000 0.275000
v 1.100000 1.180000 -0.275000
v -1.100000 1.180000 -0.275000
v 1.100000 1.180000 -0.275000
v 1.100000 1.180000 0.275000
v -1.100000 1.180000 0.275000
v -1.100000 0.000000 0.275000
v 1.100000 0.000000 0.275000
v 1.100000 0.000000 -0.275000
v -1.100000 0.000000 -0.275000
v -1.082500 0.070000 -0.299500
v -0.017500 0.070000 -0.299500
v -0.017500 1.050000 -0.299500
v -1.082500 1.050000 -0.299500
v -0.017500 0.070000 -0.274500
v -1.082500 0.070000 -0.274500
v -1.082500 1.050000 -0.274500
v -0.017500 1.050000 -0.274500
v -1.082500 0.070000 -0.274500
v -1.082500 0.070000 -0.299500
v -1.082500 1.050000 -0.299500
v -1.082500 1.050000 -0.274500
v -0.017500 0.070000 -0.299500
v -0.017500 0.070000 -0.274500
v -0.017500 1.050000 -0.274500
v -0.017500 1.050000 -0.299500
v -1.082500 1.050000 -0.299500
v -0.017500 1.050000 -0.299500
v -0.017500 1.050000 -0.274500
v -1.082500 1.050000 -0.274500
v -1.082500 0.070000 -0.274500
v -0.017500 0.070000 -0.274500
v -0.017500 0.070000 -0.299500
v -1.082500 0.070000 -0.299500
v 0.017500 0.070000 -0.299500
v 1.082500 0.070000 -0.299500
v 1.082500 1.050000 -0.299500
v 0.017500 1.050000 -0.299500
v 1.082500 0.070000 -0.274500
v 0.017500 0.070000 -0.274500
v 0.017500 1.050000 -0.274500
v 1.082500 1.050000 -0.274500
v 0.017500 0.070000 -0.274500
v 0.017500 0.070000 -0.299500
v 0.017500 1.050000 -0.299500
v 0.017500 1.050000 -0.274500
v 1.082500 0.070000 -0.299500
v 1.082500 0.070000 -0.274500
v 1.082500 1.050000 -0.274500
v 1.082500 1.050000 -0.299500
v 0.017500 1.050000 -0.299500
v 1.082500 1.050000 -0.299500
v 1.082500 1.050000 -0.274500
v 0.017500 1.050000 -0.274500
v 0.017500 0.070000 -0.274500
v 1.082500 0.070000 -0.274500
v 1.082500 0.070000 -0.299500
v 0.017500 0.070000 -0.299500
v -0.012500 0.060000 -0.312000
v 0.012500 0.060000 -0.312000
v 0.012500 1.060000 -0.312000
v -0.012500 1.060000 -0.312000
v 0.012500 0.060000 -0.292000
v -0.012500 0.060000 -0.292000
v -0.012500 1.060000 -0.292000
v 0.012500 1.060000 -0.292000
v -0.012500 0.060000 -0.292000
v -0.012500 0.060000 -0.312000
v -0.012500 1.060000 -0.312000
v -0.012500 1.060000 -0.292000
v 0.012500 0.060000 -0.312000
v 0.012500 0.060000 -0.292000
v 0.012500 1.060000 -0.292000
v 0.012500 1.060000 -0.312000
v -0.012500 1.060000 -0.312000
v 0.012500 1.060000 -0.312000
v 0.012500 1.060000 -0.292000
v -0.012500 1.060000 -0.292000
v -0.012500 0.060000 -0.292000
v 0.012500 0.060000 -0.292000
v 0.012500 0.060000 -0.312000
v -0.012500 0.060000 -0.312000
v -1.023000 1.067500 -0.314000
v 1.023000 1.067500 -0.314000
v 1.023000 1.092500 -0.314000
v -1.023000 1.092500 -0.314000
v 1.023000 1.067500 -0.296000
v -1.023000 1.067500 -0.296000
v -1.023000 1.092500 -0.296000
v 1.023000 1.092500 -0.296000
v -1.023000 1.067500 -0.296000
v -1.023000 1.067500 -0.314000
v -1.023000 1.092500 -0.314000
v -1.023000 1.092500 -0.296000
v 1.023000 1.067500 -0.314000
v 1.023000 1.067500 -0.296000
v 1.023000 1.092500 -0.296000
v 1.023000 1.092500 -0.314000
v -1.023000 1.092500 -0.314000
v 1.023000 1.092500 -0.314000
v 1.023000 1.092500 -0.296000
v -1.023000 1.092500 -0.296000
v -1.023000 1.067500 -0.296000
v 1.023000 1.067500 -0.296000
v 1.023000 1.067500 -0.314000
v -1.023000 1.067500 -0.314000
v -1.023000 0.042500 -0.314000
v 1.023000 0.042500 -0.314000
v 1.023000 0.067500 -0.314000
v -1.023000 0.067500 -0.314000
v 1.023000 0.042500 -0.296000
v -1.023000 0.042500 -0.296000
v -1.023000 0.067500 -0.296000
v 1.023000 0.067500 -0.296000
v -1.023000 0.042500 -0.296000
v -1.023000 0.042500 -0.314000
v -1.023000 0.067500 -0.314000
v -1.023000 0.067500 -0.296000
v 1.023000 0.042500 -0.314000
v 1.023000 0.042500 -0.296000
v 1.023000 0.067500 -0.296000
v 1.023000 0.067500 -0.314000
v -1.023000 0.067500 -0.314000
v 1.023000 0.067500 -0.314000
v 1.023000 0.067500 -0.296000
v -1.023000 0.067500 -0.296000
v -1.023000 0.042500 -0.296000
v 1.023000 0.042500 -0.296000
v 1.023000 0.042500 -0.314000
v -1.023000 0.042500 -0.314000
v -1.055000 0.080000 -0.314000
v -1.035000 0.080000 -0.314000
v -1.035000 1.040000 -0.314000
v -1.055000 1.040000 -0.314000
v -1.035000 0.080000 -0.296000
v -1.055000 0.080000 -0.296000
v -1.055000 1.040000 -0.296000
v -1.035000 1.040000 -0.296000
v -1.055000 0.080000 -0.296000
v -1.055000 0.080000 -0.314000
v -1.055000 1.040000 -0.314000
v -1.055000 1.040000 -0.296000
v -1.035000 0.080000 -0.314000
v -1.035000 0.080000 -0.296000
v -1.035000 1.040000 -0.296000
v -1.035000 1.040000 -0.314000
v -1.055000 1.040000 -0.314000
v -1.035000 1.040000 -0.314000
v -1.035000 1.040000 -0.296000
v -1.055000 1.040000 -0.296000
v -1.055000 0.080000 -0.296000
v -1.035000 0.080000 -0.296000
v -1.035000 0.080000 -0.314000
v -1.055000 0.080000 -0.314000
v 1.035000 0.080000 -0.314000
v 1.055000 0.080000 -0.314000
v 1.055000 1.040000 -0.314000
v 1.035000 1.040000 -0.314000
v 1.055000 0.080000 -0.296000
v 1.035000 0.080000 -0.296000
v 1.035000 1.040000 -0.296000
v 1.055000 1.040000 -0.296000
v 1.035000 0.080000 -0.296000
v 1.035000 0.080000 -0.314000
v 1.035000 1.040000 -0.314000
v 1.035000 1.040000 -0.296000
v 1.055000 0.080000 -0.314000
v 1.055000 0.080000 -0.296000
v 1.055000 1.040000 -0.296000
v 1.055000 1.040000 -0.314000
v 1.035000 1.040000 -0.314000
v 1.055000 1.040000 -0.314000
v 1.055000 1.040000 -0.296000
v 1.035000 1.040000 -0.296000
v 1.035000 0.080000 -0.296000
v 1.055000 0.080000 -0.296000
v 1.055000 0.080000 -0.314000
v 1.035000 0.080000 -0.314000
v -1.120000 1.180000 -0.295000
v 1.120000 1.180000 -0.295000
v 1.120000 1.230000 -0.295000
v -1.120000 1.230000 -0.295000
v 1.120000 1.180000 0.295000
v -1.120000 1.180000 0.295000
v -1.120000 1.230000 0.295000
v 1.120000 1.230000 0.295000
v -1.120000 1.180000 0.295000
v -1.120000 1.180000 -0.295000
v -1.120000 1.230000 -0.295000
v -1.120000 1.230000 0.295000
v 1.120000 1.180000 -0.295000
v 1.120000 1.180000 0.295000
v 1.120000 1.230000 0.295000
v 1.120000 1.230000 -0.295000
v -1.120000 1.230000 -0.295000
v 1.120000 1.230000 -0.295000
v 1.120000 1.230000 0.295000
v -1.120000 1.230000 0.295000
v -1.120000 1.180000 0.295000
v 1.120000 1.180000 0.295000
v 1.120000 1.180000 -0.295000
v -1.120000 1.180000 -0.295000
v -1.125000 1.160000 -0.316000
v 1.125000 1.160000 -0.316000
v 1.125000 1.210000 -0.316000
v -1.125000 1.210000 -0.316000
v 1.125000 1.160000 -0.298000
v -1.125000 1.160000 -0.298000
v -1.125000 1.210000 -0.298000
v 1.125000 1.210000 -0.298000
v -1.125000 1.160000 -0.298000
v -1.125000 1.160000 -0.316000
v -1.125000 1.210000 -0.316000
v -1.125000 1.210000 -0.298000
v 1.125000 1.160000 -0.316000
v 1.125000 1.160000 -0.298000
v 1.125000 1.210000 -0.298000
v 1.125000 1.210000 -0.316000
v -1.125000 1.210000 -0.316000
v 1.125000 1.210000 -0.316000
v 1.125000 1.210000 -0.298000
v -1.125000 1.210000 -0.298000
v -1.125000 1.160000 -0.298000
v 1.125000 1.160000 -0.298000
v 1.125000 1.160000 -0.316000
v -1.125000 1.160000 -0.316000
v -0.060000 0.610000 -0.334500
v -0.061193 0.619059 -0.334500
v -0.064689 0.627500 -0.334500
v -0.070251 0.634749 -0.334500
v -0.077500 0.640311 -0.334500
v -0.085941 0.643807 -0.334500
v -0.095000 0.645000 -0.334500
v -0.104059 0.643807 -0.334500
v -0.112500 0.640311 -0.334500
v -0.119749 0.634749 -0.334500
v -0.125311 0.627500 -0.334500
v -0.128807 0.619059 -0.334500
v -0.130000 0.610000 -0.334500
v -0.128807 0.600941 -0.334500
v -0.125311 0.592500 -0.334500
v -0.119749 0.585251 -0.334500
v -0.112500 0.579689 -0.334500
v -0.104059 0.576193 -0.334500
v -0.095000 0.575000 -0.334500
v -0.085941 0.576193 -0.334500
v -0.077500 0.579689 -0.334500
v -0.070251 0.585251 -0.334500
v -0.064689 0.592500 -0.334500
v -0.061193 0.600941 -0.334500
v -0.060000 0.610000 -0.309500
v -0.061193 0.619059 -0.309500
v -0.064689 0.627500 -0.309500
v -0.070251 0.634749 -0.309500
v -0.077500 0.640311 -0.309500
v -0.085941 0.643807 -0.309500
v -0.095000 0.645000 -0.309500
v -0.104059 0.643807 -0.309500
v -0.112500 0.640311 -0.309500
v -0.119749 0.634749 -0.309500
v -0.125311 0.627500 -0.309500
v -0.128807 0.619059 -0.309500
v -0.130000 0.610000 -0.309500
v -0.128807 0.600941 -0.309500
v -0.125311 0.592500 -0.309500
v -0.119749 0.585251 -0.309500
v -0.112500 0.579689 -0.309500
v -0.104059 0.576193 -0.309500
v -0.095000 0.575000 -0.309500
v -0.085941 0.576193 -0.309500
v -0.077500 0.579689 -0.309500
v -0.070251 0.585251 -0.309500
v -0.064689 0.592500 -0.309500
v -0.061193 0.600941 -0.309500
v -0.095000 0.610000 -0.334500
v -0.095000 0.610000 -0.309500
v -0.063000 0.450000 -0.334500
v -0.064090 0.458282 -0.334500
v -0.067287 0.466000 -0.334500
v -0.072373 0.472627 -0.334500
v -0.079000 0.477713 -0.334500
v -0.086718 0.480910 -0.334500
v -0.095000 0.482000 -0.334500
v -0.103282 0.480910 -0.334500
v -0.111000 0.477713 -0.334500
v -0.117627 0.472627 -0.334500
v -0.122713 0.466000 -0.334500
v -0.125910 0.458282 -0.334500
v -0.127000 0.450000 -0.334500
v -0.125910 0.441718 -0.334500
v -0.122713 0.434000 -0.334500
v -0.117627 0.427373 -0.334500
v -0.111000 0.422287 -0.334500
v -0.103282 0.419090 -0.334500
v -0.095000 0.418000 -0.334500
v -0.086718 0.419090 -0.334500
v -0.079000 0.422287 -0.334500
v -0.072373 0.427373 -0.334500
v -0.067287 0.434000 -0.334500
v -0.064090 0.441718 -0.334500
v -0.063000 0.450000 -0.309500
v -0.064090 0.458282 -0.309500
v -0.067287 0.466000 -0.309500
v -0.072373 0.472627 -0.309500
v -0.079000 0.477713 -0.309500
v -0.086718 0.480910 -0.309500
v -0.095000 0.482000 -0.309500
v -0.103282 0.480910 -0.309500
v -0.111000 0.477713 -0.309500
v -0.117627 0.472627 -0.309500
v -0.122713 0.466000 -0.309500
v -0.125910 0.458282 -0.309500
v -0.127000 0.450000 -0.309500
v -0.125910 0.441718 -0.309500
v -0.122713 0.434000 -0.309500
v -0.117627 0.427373 -0.309500
v -0.111000 0.422287 -0.309500
v -0.103282 0.419090 -0.309500
v -0.095000 0.418000 -0.309500
v -0.086718 0.419090 -0.309500
v -0.079000 0.422287 -0.309500
v -0.072373 0.427373 -0.309500
v -0.067287 0.434000 -0.309500
v -0.064090 0.441718 -0.309500
v -0.095000 0.450000 -0.334500
v -0.095000 0.450000 -0.309500
v -0.037500 0.450000 -0.334500
v -0.012500 0.450000 -0.334500
v -0.012500 0.650000 -0.334500
v -0.037500 0.650000 -0.334500
v -0.012500 0.450000 -0.309500
v -0.037500 0.450000 -0.309500
v -0.037500 0.650000 -0.309500
v -0.012500 0.650000 -0.309500
v -0.037500 0.450000 -0.309500
v -0.037500 0.450000 -0.334500
v -0.037500 0.650000 -0.334500
v -0.037500 0.650000 -0.309500
v -0.012500 0.450000 -0.334500
v -0.012500 0.450000 -0.309500
v -0.012500 0.650000 -0.309500
v -0.012500 0.650000 -0.334500
v -0.037500 0.650000 -0.334500
v -0.012500 0.650000 -0.334500
v -0.012500 0.650000 -0.309500
v -0.037500 0.650000 -0.309500
v -0.037500 0.450000 -0.309500
v -0.012500 0.450000 -0.309500
v -0.012500 0.450000 -0.334500
v -0.037500 0.450000 -0.334500
v 0.022500 0.450000 -0.334500
v 0.047500 0.450000 -0.334500
v 0.047500 0.650000 -0.334500
v 0.022500 0.650000 -0.334500
v 0.047500 0.450000 -0.309500
v 0.022500 0.450000 -0.309500
v 0.022500 0.650000 -0.309500
v 0.047500 0.650000 -0.309500
v 0.022500 0.450000 -0.309500
v 0.022500 0.450000 -0.334500
v 0.022500 0.650000 -0.334500
v 0.022500 0.650000 -0.309500
v 0.047500 0.450000 -0.334500
v 0.047500 0.450000 -0.309500
v 0.047500 0.650000 -0.309500
v 0.047500 0.650000 -0.334500
v 0.022500 0.650000 -0.334500
v 0.047500 0.650000 -0.334500
v 0.047500 0.650000 -0.309500
v 0.022500 0.650000 -0.309500
v 0.022500 0.450000 -0.309500
v 0.047500 0.450000 -0.309500
v 0.047500 0.450000 -0.334500
v 0.022500 0.450000 -0.334500
v -0.810000 -0.050000 -0.210000
v -0.690000 -0.050000 -0.210000
v -0.690000 0.000000 -0.210000
v -0.810000 0.000000 -0.210000
v -0.690000 -0.050000 -0.030000
v -0.810000 -0.050000 -0.030000
v -0.810000 0.000000 -0.030000
v -0.690000 0.000000 -0.030000
v -0.810000 -0.050000 -0.030000
v -0.810000 -0.050000 -0.210000
v -0.810000 0.000000 -0.210000
v -0.810000 0.000000 -0.030000
v -0.690000 -0.050000 -0.210000
v -0.690000 -0.050000 -0.030000
v -0.690000 0.000000 -0.030000
v -0.690000 0.000000 -0.210000
v -0.810000 0.000000 -0.210000
v -0.690000 0.000000 -0.210000
v -0.690000 0.000000 -0.030000
v -0.810000 0.000000 -0.030000
v -0.810000 -0.050000 -0.030000
v -0.690000 -0.050000 -0.030000
v -0.690000 -0.050000 -0.210000
v -0.810000 -0.050000 -0.210000
v 0.690000 -0.050000 -0.210000
v 0.810000 -0.050000 -0.210000
v 0.810000 0.000000 -0.210000
v 0.690000 0.000000 -0.210000
v 0.810000 -0.050000 -0.030000
v 0.690000 -0.050000 -0.030000
v 0.690000 0.000000 -0.030000
v 0.810000 0.000000 -0.030000
v 0.690000 -0.050000 -0.030000
v 0.690000 -0.050000 -0.210000
v 0.690000 0.000000 -0.210000
v 0.690000 0.000000 -0.030000
v 0.810000 -0.050000 -0.210000
v 0.810000 -0.050000 -0.030000
v 0.810000 0.000000 -0.030000
v 0.810000 0.000000 -0.210000
v 0.690000 0.000000 -0.210000
v 0.810000 0.000000 -0.210000
v 0.810000 0.000000 -0.030000
v 0.690000 0.000000 -0.030000
v 0.690000 -0.050000 -0.030000
v 0.810000 -0.050000 -0.030000
v 0.810000 -0.050000 -0.210000
v 0.690000 -0.050000 -0.210000
v -1.012000 0.140000 0.275500
v 1.012000 0.140000 0.275500
v 1.012000 1.060000 0.275500
v -1.012000 1.060000 0.275500
v 1.012000 0.140000 0.290500
v -1.012000 0.140000 0.290500
v -1.012000 1.060000 0.290500
v 1.012000 1.060000 0.290500
v -1.012000 0.140000 0.290500
v -1.012000 0.140000 0.275500
v -1.012000 1.060000 0.275500
v -1.012000 1.060000 0.290500
v 1.012000 0.140000 0.275500
v 1.012000 0.140000 0.290500
v 1.012000 1.060000 0.290500
v 1.012000 1.060000 0.275500
v -1.012000 1.060000 0.275500
v 1.012000 1.060000 0.275500
v 1.012000 1.060000 0.290500
v -1.012000 1.060000 0.290500
v -1.012000 0.140000 0.290500
v 1.012000 0.140000 0.290500
v 1.012000 0.140000 0.275500
v -1.012000 0.140000 0.275500
usemtl painted_light_gray
f 1 2 3 4
f 5 6 7 8
f 9 10 11 12
f 13 14 15 16
f 17 18 19 20
f 21 22 23 24
usemtl painted_panel_gray
f 25 26 27 28
f 29 30 31 32
f 33 34 35 36
f 37 38 39 40
f 41 42 43 44
f 45 46 47 48
f 49 50 51 52
f 53 54 55 56
f 57 58 59 60
f 61 62 63 64
f 65 66 67 68
f 69 70 71 72
usemtl dark_seam_black
f 73 74 75 76
f 77 78 79 80
f 81 82 83 84
f 85 86 87 88
f 89 90 91 92
f 93 94 95 96
f 97 98 99 100
f 101 102 103 104
f 105 106 107 108
f 109 110 111 112
f 113 114 115 116
f 117 118 119 120
f 121 122 123 124
f 125 126 127 128
f 129 130 131 132
f 133 134 135 136
f 137 138 139 140
f 141 142 143 144
f 145 146 147 148
f 149 150 151 152
f 153 154 155 156
f 157 158 159 160
f 161 162 163 164
f 165 166 167 168
f 169 170 171 172
f 173 174 175 176
f 177 178 179 180
f 181 182 183 184
f 185 186 187 188
f 189 190 191 192
usemtl painted_panel_gray
f 193 194 195 196
f 197 198 199 200
f 201 202 203 204
f 205 206 207 208
f 209 210 211 212
f 213 214 215 216
usemtl edge_gray
f 217 218 219 220
f 221 222 223 224
f 225 226 227 228
f 229 230 231 232
f 233 234 235 236
f 237 238 239 240
usemtl dark_seam_black
f 289 242 241
f 241 242 266 265
f 290 265 266
f 289 243 242
f 242 243 267 266
f 290 266 267
f 289 244 243
f 243 244 268 267
f 290 267 268
f 289 245 244
f 244 245 269 268
f 290 268 269
f 289 246 245
f 245 246 270 269
f 290 269 270
f 289 247 246
f 246 247 271 270
f 290 270 271
f 289 248 247
f 247 248 272 271
f 290 271 272
f 289 249 248
f 248 249 273 272
f 290 272 273
f 289 250 249
f 249 250 274 273
f 290 273 274
f 289 251 250
f 250 251 275 274
f 290 274 275
f 289 252 251
f 251 252 276 275
f 290 275 276
f 289 253 252
f 252 253 277 276
f 290 276 277
f 289 254 253
f 253 254 278 277
f 290 277 278
f 289 255 254
f 254 255 279 278
f 290 278 279
f 289 256 255
f 255 256 280 279
f 290 279 280
f 289 257 256
f 256 257 281 280
f 290 280 281
f 289 258 257
f 257 258 282 281
f 290 281 282
f 289 259 258
f 258 259 283 282
f 290 282 283
f 289 260 259
f 259 260 284 283
f 290 283 284
f 289 261 260
f 260 261 285 284
f 290 284 285
f 289 262 261
f 261 262 286 285
f 290 285 286
f 289 263 262
f 262 263 287 286
f 290 286 287
f 289 264 263
f 263 264 288 287
f 290 287 288
f 289 241 264
f 264 241 265 288
f 290 288 265
f 339 292 291
f 291 292 316 315
f 340 315 316
f 339 293 292
f 292 293 317 316
f 340 316 317
f 339 294 293
f 293 294 318 317
f 340 317 318
f 339 295 294
f 294 295 319 318
f 340 318 319
f 339 296 295
f 295 296 320 319
f 340 319 320
f 339 297 296
f 296 297 321 320
f 340 320 321
f 339 298 297
f 297 298 322 321
f 340 321 322
f 339 299 298
f 298 299 323 322
f 340 322 323
f 339 300 299
f 299 300 324 323
f 340 323 324
f 339 301 300
f 300 301 325 324
f 340 324 325
f 339 302 301
f 301 302 326 325
f 340 325 326
f 339 303 302
f 302 303 327 326
f 340 326 327
f 339 304 303
f 303 304 328 327
f 340 327 328
f 339 305 304
f 304 305 329 328
f 340 328 329
f 339 306 305
f 305 306 330 329
f 340 329 330
f 339 307 306
f 306 307 331 330
f 340 330 331
f 339 308 307
f 307 308 332 331
f 340 331 332
f 339 309 308
f 308 309 333 332
f 340 332 333
f 339 310 309
f 309 310 334 333
f 340 333 334
f 339 311 310
f 310 311 335 334
f 340 334 335
f 339 312 311
f 311 312 336 335
f 340 335 336
f 339 313 312
f 312 313 337 336
f 340 336 337
f 339 314 313
f 313 314 338 337
f 340 337 338
f 339 291 314
f 314 291 315 338
f 340 338 315
usemtl slight_shadow
f 341 342 343 344
f 345 346 347 348
f 349 350 351 352
f 353 354 355 356
f 357 358 359 360
f 361 362 363 364
f 365 366 367 368
f 369 370 371 372
f 373 374 375 376
f 377 378 379 380
f 381 382 383 384
f 385 386 387 388
usemtl edge_gray
f 389 390 391 392
f 393 394 395 396
f 397 398 399 400
f 401 402 403 404
f 405 406 407 408
f 409 410 411 412
f 413 414 415 416
f 417 418 419 420
f 421 422 423 424
f 425 426 427 428
f 429 430 431 432
f 433 434 435 436
usemtl slight_shadow
f 437 438 439 440
f 441 442 443 444
f 445 446 447 448
f 449 450 451 452
f 453 454 455 456
f 457 458 459 460
